<svg width="43" height="48" viewBox="0 0 43 48" fill="none" xmlns="http://www.w3.org/2000/svg">
<path d="M19.6005 47.024C15.7178 47.024 12.3045 46.4907 9.3605 45.424C6.45917 44.3147 4.1765 42.7787 2.5125 40.816C0.891167 38.8107 0.0805 36.5067 0.0805 33.904C0.0805 30.704 0.9765 27.9947 2.7685 25.776C4.60317 23.5573 7.0565 21.872 10.1285 20.72C13.2432 19.568 16.7418 18.992 20.6245 18.992C24.4218 18.992 27.7925 19.504 30.7365 20.528C33.6805 21.552 35.9845 23.0027 37.6485 24.88C39.3552 26.7573 40.2085 28.9973 40.2085 31.6C40.2085 34.8 39.3125 37.552 37.5205 39.856C35.7712 42.16 33.3392 43.9307 30.2245 45.168C27.1525 46.4053 23.6112 47.024 19.6005 47.024ZM19.7925 36.848C21.2858 36.848 22.5232 36.4 23.5045 35.504C24.5285 34.608 25.0405 33.3707 25.0405 31.792C25.0405 30.4267 24.6138 29.3813 23.7605 28.656C22.9072 27.888 21.7978 27.504 20.4325 27.504C18.9392 27.504 17.6805 27.952 16.6565 28.848C15.6752 29.744 15.1845 30.9813 15.1845 32.56C15.1845 33.8827 15.6325 34.928 16.5285 35.696C17.4245 36.464 18.5125 36.848 19.7925 36.848ZM23.4405 26.288C19.9845 26.288 16.8912 25.8187 14.1605 24.88C11.4298 23.9413 9.27517 22.5973 7.6965 20.848C6.11783 19.056 5.3285 16.9653 5.3285 14.576C5.3285 11.5467 6.13917 8.96533 7.7605 6.832C9.4245 4.69866 11.6858 3.056 14.5445 1.904C17.4032 0.751999 20.6672 0.175999 24.3365 0.175999C27.9205 0.175999 31.0565 0.687998 33.7445 1.712C36.4752 2.736 38.5872 4.16533 40.0805 6C41.6165 7.792 42.3845 9.904 42.3845 12.336C42.3845 15.3227 41.5525 17.8613 39.8885 19.952C38.2245 22.0427 35.9632 23.6213 33.1045 24.688C30.2458 25.7547 27.0245 26.288 23.4405 26.288ZM23.6325 18.032C24.7418 18.032 25.6592 17.648 26.3845 16.88C27.1098 16.112 27.4725 15.0667 27.4725 13.744C27.4725 12.6347 27.1525 11.8027 26.5125 11.248C25.9152 10.6507 25.1258 10.352 24.1445 10.352C23.0778 10.352 22.1605 10.736 21.3925 11.504C20.6672 12.2293 20.3045 13.2747 20.3045 14.64C20.3045 15.7067 20.6245 16.5387 21.2645 17.136C21.9045 17.7333 22.6938 18.032 23.6325 18.032Z" fill="#FFED00"/>
</svg>
