<svg width="15" height="15" viewBox="0 0 15 15" fill="none" xmlns="http://www.w3.org/2000/svg">
<g id="Double Arrow Right">
<path id="Shape" fill-rule="evenodd" clip-rule="evenodd" d="M2.14639 11.1464C1.95112 11.3417 1.95112 11.6583 2.14639 11.8536C2.34165 12.0488 2.65823 12.0488 2.85349 11.8536L6.85349 7.85355C7.04875 7.65829 7.04875 7.34171 6.85349 7.14645L2.85349 3.14645C2.65823 2.95118 2.34165 2.95118 2.14639 3.14645C1.95112 3.34171 1.95112 3.65829 2.14639 3.85355L5.79283 7.5L2.14639 11.1464ZM8.14639 11.1464C7.95112 11.3417 7.95112 11.6583 8.14639 11.8536C8.34165 12.0488 8.65823 12.0488 8.85349 11.8536L12.8535 7.85355C13.0488 7.65829 13.0488 7.34171 12.8535 7.14645L8.85349 3.14645C8.65823 2.95118 8.34165 2.95118 8.14639 3.14645C7.95112 3.34171 7.95112 3.65829 8.14639 3.85355L11.7928 7.5L8.14639 11.1464Z" fill="black"/>
</g>
</svg>
