<svg width="223" height="48" viewBox="0 0 223 48" fill="none" xmlns="http://www.w3.org/2000/svg">
<path d="M23.9438 47.024C19.3358 47.024 15.3038 46.192 11.8478 44.528C8.39175 42.8213 5.70375 40.4747 3.78375 37.488C1.90642 34.4587 0.96775 30.96 0.96775 26.992C0.96775 23.0667 1.65042 19.4613 3.01575 16.176C4.42375 12.8907 6.38642 10.0533 8.90375 7.664C11.4211 5.27466 14.4078 3.44 17.8638 2.16C21.3198 0.837331 25.1171 0.175999 29.2558 0.175999C33.5651 0.175999 37.3838 0.943999 40.7118 2.48C44.0398 4.016 46.5144 6.23466 48.1358 9.136L37.2558 17.648C36.3171 15.984 35.1011 14.704 33.6077 13.808C32.1144 12.8693 30.3438 12.4 28.2958 12.4C26.5038 12.4 24.8611 12.7413 23.3678 13.424C21.9171 14.064 20.6584 15.0027 19.5918 16.24C18.5251 17.4347 17.6931 18.864 17.0958 20.528C16.4984 22.192 16.1998 24.0267 16.1998 26.032C16.1998 27.7813 16.5838 29.3173 17.3518 30.64C18.1198 31.9627 19.1864 32.9867 20.5518 33.712C21.9598 34.4373 23.5811 34.8 25.4158 34.8C27.1651 34.8 28.8718 34.3947 30.5358 33.584C32.2424 32.7733 33.8638 31.4507 35.3998 29.616L44.2958 38.128C41.5651 41.456 38.5144 43.7813 35.1438 45.104C31.8158 46.384 28.0824 47.024 23.9438 47.024ZM57.6168 46L61.5208 26.352L63.1848 35.376L49.6808 1.2H64.8488L74.0648 24.688H64.5288L83.4088 1.2H98.5768L71.5048 35.376L76.6248 26.352L72.7208 46H57.6168ZM115.069 47.024C110.461 47.024 106.429 46.192 102.973 44.528C99.5168 42.8213 96.8288 40.4747 94.9088 37.488C93.0314 34.4587 92.0928 30.96 92.0928 26.992C92.0928 23.0667 92.7754 19.4613 94.1408 16.176C95.5488 12.8907 97.5114 10.0533 100.029 7.664C102.546 5.27466 105.533 3.44 108.989 2.16C112.445 0.837331 116.242 0.175999 120.381 0.175999C124.69 0.175999 128.509 0.943999 131.837 2.48C135.165 4.016 137.639 6.23466 139.261 9.136L128.381 17.648C127.442 15.984 126.226 14.704 124.733 13.808C123.239 12.8693 121.469 12.4 119.421 12.4C117.629 12.4 115.986 12.7413 114.493 13.424C113.042 14.064 111.783 15.0027 110.717 16.24C109.65 17.4347 108.818 18.864 108.221 20.528C107.623 22.192 107.325 24.0267 107.325 26.032C107.325 27.7813 107.709 29.3173 108.477 30.64C109.245 31.9627 110.311 32.9867 111.677 33.712C113.085 34.4373 114.706 34.8 116.541 34.8C118.29 34.8 119.997 34.3947 121.661 33.584C123.367 32.7733 124.989 31.4507 126.525 29.616L135.421 38.128C132.69 41.456 129.639 43.7813 126.269 45.104C122.941 46.384 119.207 47.024 115.069 47.024ZM137.222 46L146.182 1.2H161.286L154.694 34.288H174.918L172.55 46H137.222ZM196.178 17.84H216.146L213.97 28.72H194.002L196.178 17.84ZM193.81 34.608H216.274L213.97 46H176.722L185.682 1.2H222.098L219.794 12.592H198.226L193.81 34.608Z" fill="#FFED00"/>
</svg>
