<svg width="155" height="174" viewBox="0 0 155 174" fill="none" xmlns="http://www.w3.org/2000/svg">
<path d="M36.2071 135.39C34.0471 135.39 31.8571 135.15 29.6371 134.67C27.4171 134.19 25.4671 133.485 23.7871 132.555L27.3871 124.725C28.7371 125.505 30.1471 126.09 31.6171 126.48C33.1171 126.84 34.5271 127.02 35.8471 127.02C37.0471 127.02 38.0221 126.825 38.7721 126.435C39.5521 126.015 39.9421 125.4 39.9421 124.59C39.9421 123.9 39.6571 123.375 39.0871 123.015C38.5171 122.625 37.5571 122.43 36.2071 122.43H32.0221V115.905L40.1671 107.625L41.1121 111.18H25.4071V103.17H48.8971V109.695L40.7521 117.975L35.6671 115.095H38.4571C42.4171 115.095 45.4321 115.98 47.5021 117.75C49.5721 119.52 50.6071 121.8 50.6071 124.59C50.6071 126.39 50.0971 128.115 49.0771 129.765C48.0871 131.415 46.5271 132.765 44.3971 133.815C42.2971 134.865 39.5671 135.39 36.2071 135.39ZM68.1237 135.39C65.1237 135.39 62.4837 134.82 60.2037 133.68C57.9537 132.51 56.1837 130.785 54.8937 128.505C53.6337 126.195 53.0037 123.33 53.0037 119.91C53.0037 116.22 53.7387 113.085 55.2087 110.505C56.6787 107.895 58.7187 105.9 61.3287 104.52C63.9687 103.14 67.0137 102.45 70.4637 102.45C72.3237 102.45 74.1087 102.675 75.8187 103.125C77.5587 103.545 79.0287 104.145 80.2287 104.925L76.4037 112.35C75.4737 111.69 74.5287 111.255 73.5687 111.045C72.6387 110.805 71.6787 110.685 70.6887 110.685C68.5587 110.685 66.8487 111.33 65.5587 112.62C64.2987 113.88 63.6687 115.725 63.6687 118.155C63.6687 118.605 63.6687 119.055 63.6687 119.505C63.6687 119.925 63.6687 120.36 63.6687 120.81L61.2387 119.055C61.8387 118.035 62.5437 117.18 63.3537 116.49C64.1637 115.77 65.1237 115.23 66.2337 114.87C67.3437 114.48 68.6337 114.285 70.1037 114.285C72.0237 114.285 73.7937 114.705 75.4137 115.545C77.0637 116.355 78.3837 117.51 79.3737 119.01C80.3937 120.51 80.9037 122.295 80.9037 124.365C80.9037 126.615 80.3337 128.565 79.1937 130.215C78.0537 131.865 76.5087 133.14 74.5587 134.04C72.6387 134.94 70.4937 135.39 68.1237 135.39ZM67.4037 128.055C68.0337 128.055 68.5887 127.935 69.0687 127.695C69.5787 127.425 69.9687 127.05 70.2387 126.57C70.5087 126.09 70.6437 125.52 70.6437 124.86C70.6437 123.87 70.3437 123.09 69.7437 122.52C69.1437 121.92 68.3637 121.62 67.4037 121.62C66.7737 121.62 66.2187 121.755 65.7387 122.025C65.2587 122.295 64.8687 122.67 64.5687 123.15C64.2987 123.63 64.1637 124.2 64.1637 124.86C64.1637 125.52 64.2987 126.09 64.5687 126.57C64.8687 127.05 65.2587 127.425 65.7387 127.695C66.2187 127.935 66.7737 128.055 67.4037 128.055ZM97.0197 135.39C94.2297 135.39 91.7547 134.745 89.5947 133.455C87.4647 132.165 85.7847 130.29 84.5547 127.83C83.3547 125.37 82.7547 122.4 82.7547 118.92C82.7547 115.44 83.3547 112.47 84.5547 110.01C85.7847 107.55 87.4647 105.675 89.5947 104.385C91.7547 103.095 94.2297 102.45 97.0197 102.45C99.8097 102.45 102.27 103.095 104.4 104.385C106.56 105.675 108.24 107.55 109.44 110.01C110.67 112.47 111.285 115.44 111.285 118.92C111.285 122.4 110.67 125.37 109.44 127.83C108.24 130.29 106.56 132.165 104.4 133.455C102.27 134.745 99.8097 135.39 97.0197 135.39ZM97.0197 126.885C97.7097 126.885 98.3247 126.645 98.8647 126.165C99.4047 125.685 99.8247 124.86 100.125 123.69C100.455 122.52 100.62 120.93 100.62 118.92C100.62 116.88 100.455 115.29 100.125 114.15C99.8247 112.98 99.4047 112.155 98.8647 111.675C98.3247 111.195 97.7097 110.955 97.0197 110.955C96.3297 110.955 95.7147 111.195 95.1747 111.675C94.6347 112.155 94.1997 112.98 93.8697 114.15C93.5697 115.29 93.4197 116.88 93.4197 118.92C93.4197 120.93 93.5697 122.52 93.8697 123.69C94.1997 124.86 94.6347 125.685 95.1747 126.165C95.7147 126.645 96.3297 126.885 97.0197 126.885ZM122.282 120.405C119.552 120.405 117.317 119.55 115.577 117.84C113.867 116.13 113.012 113.715 113.012 110.595C113.012 107.475 113.867 105.075 115.577 103.395C117.317 101.685 119.552 100.83 122.282 100.83C125.042 100.83 127.277 101.685 128.987 103.395C130.697 105.075 131.552 107.475 131.552 110.595C131.552 113.715 130.697 116.13 128.987 117.84C127.277 119.55 125.042 120.405 122.282 120.405ZM122.282 115.14C122.912 115.14 123.437 114.81 123.857 114.15C124.307 113.49 124.532 112.305 124.532 110.595C124.532 108.885 124.307 107.715 123.857 107.085C123.437 106.425 122.912 106.095 122.282 106.095C121.652 106.095 121.112 106.425 120.662 107.085C120.242 107.715 120.032 108.885 120.032 110.595C120.032 112.305 120.242 113.49 120.662 114.15C121.112 114.81 121.652 115.14 122.282 115.14Z" fill="black"/>
<path fill-rule="evenodd" clip-rule="evenodd" d="M89.7717 64.2938C88.9332 64.75 85.601 66.4859 82.3668 68.1511C79.1326 69.8164 76.4546 71.2048 76.4159 71.2363C76.3377 71.3001 77.3925 71.8753 85.5775 76.2329C88.661 77.8747 91.2337 79.2179 91.2945 79.2179C91.3553 79.2179 91.4051 78.2207 91.4051 77.002V74.7861L93.5286 74.9326C113.041 76.2783 127.125 78.5993 138.001 82.2612C144.135 84.3268 147.714 86.1611 150.01 88.4153C151.811 90.1847 152.018 90.8456 151.204 92.2414C149.917 94.4497 145.875 96.8355 139.646 99.0635C138.208 99.5774 137.148 100.003 137.288 100.01C137.879 100.037 143.546 97.9101 145.965 96.7534C150.748 94.4663 153.362 92.3597 154.455 89.9108C155.519 87.5264 155.043 85.4912 152.869 83.1301C146.449 76.1578 124.406 70.3378 97.7581 68.5798C94.8029 68.3849 92.1681 68.1848 91.9026 68.1353C91.4454 68.0499 91.4165 67.9233 91.3581 65.7545L91.2962 63.4641L89.7717 64.2938ZM64.9435 67.9748C48.9496 68.7248 37.2627 70.0902 26.0662 72.517C7.30614 76.5833 -2.43501 83.1266 0.794832 89.492C2.28322 92.4256 6.77952 95.4581 13.3178 97.9385C16.8031 99.2608 17.0569 99.185 13.6876 97.8282C7.34077 95.2722 3.54815 92.4479 3.54815 90.2778C3.54815 87.9375 8.8163 84.5095 16.2706 81.999C27.5858 78.1885 43.6877 75.6745 62.3845 74.7994L68.1015 74.5318V71.1814V67.8307L67.1759 67.8721C66.6669 67.8948 65.6622 67.941 64.9435 67.9748ZM133.834 136.742C133.991 136.805 134.179 136.797 134.251 136.724C134.323 136.652 134.195 136.6 133.965 136.609C133.712 136.62 133.66 136.672 133.834 136.742ZM14.307 138.094C6.92435 140.706 2.47509 143.492 0.618422 146.665C-0.192633 148.051 -0.207876 150.444 0.584013 152.003C1.29946 153.412 3.7764 155.704 6.03489 157.048C15.5968 162.738 36.0494 167.211 58.7365 168.575C61.0723 168.716 63.1114 168.868 63.268 168.914C63.4821 168.977 63.5425 169.555 63.5113 171.245C63.4884 172.48 63.5381 173.479 63.6217 173.464C63.98 173.4 78.3375 165.867 78.3364 165.744C78.3355 165.63 64.3507 158.09 63.7332 157.87C63.6135 157.828 63.5279 158.717 63.5279 160.005C63.5279 161.627 63.4556 162.213 63.2556 162.211C62.2967 162.205 53.0569 161.495 50.3515 161.22C28.2692 158.976 10.9618 154.249 5.09621 148.859C3.70953 147.584 3.10865 146.486 3.30531 145.586C3.51548 144.624 4.79239 143.29 6.76841 141.968C8.96702 140.497 11.1014 139.491 14.9604 138.107C16.5775 137.527 17.7536 137.053 17.5739 137.053C17.3942 137.054 15.9241 137.522 14.307 138.094ZM135.358 137.18C135.515 137.243 135.703 137.235 135.776 137.162C135.848 137.09 135.719 137.038 135.49 137.047C135.236 137.058 135.184 137.11 135.358 137.18ZM140.129 138.759C146.641 141.308 150.572 143.907 151.309 146.152C152.109 148.591 147.106 152.125 138.847 154.954C127.299 158.91 110.007 161.553 90.4795 162.347L86.8315 162.495V165.856V169.217L89.1728 169.101C96.2423 168.75 100.173 168.507 103.493 168.216C129.901 165.896 149.081 160.207 153.608 153.353C156.197 149.431 154.28 145.663 147.807 141.952C145.815 140.81 139.916 138.304 138.557 138.023C138.198 137.949 138.905 138.28 140.129 138.759Z" fill="black"/>
<path d="M41.4788 21.336C40.3108 21.336 39.1428 21.192 37.9748 20.904C36.8228 20.616 35.8148 20.208 34.9508 19.68L36.6788 16.104C37.3508 16.552 38.0948 16.896 38.9108 17.136C39.7428 17.376 40.5508 17.496 41.3348 17.496C42.1508 17.496 42.7988 17.344 43.2788 17.04C43.7588 16.736 43.9988 16.304 43.9988 15.744C43.9988 15.248 43.7988 14.856 43.3988 14.568C42.9988 14.264 42.3428 14.112 41.4308 14.112H39.4388V11.112L43.9508 6.24L44.4068 7.872H35.8148V4.2H47.9588V7.176L43.4468 12.048L41.1188 10.728H42.4148C44.5108 10.728 46.0948 11.2 47.1668 12.144C48.2548 13.072 48.7988 14.272 48.7988 15.744C48.7988 16.704 48.5348 17.608 48.0068 18.456C47.4948 19.304 46.7028 20 45.6308 20.544C44.5588 21.072 43.1748 21.336 41.4788 21.336ZM51.1878 21V4.2H59.1318C60.9878 4.2 62.6198 4.544 64.0278 5.232C65.4358 5.92 66.5318 6.888 67.3158 8.136C68.1158 9.384 68.5158 10.872 68.5158 12.6C68.5158 14.312 68.1158 15.8 67.3158 17.064C66.5318 18.312 65.4358 19.28 64.0278 19.968C62.6198 20.656 60.9878 21 59.1318 21H51.1878ZM55.9398 17.208H58.9398C59.8998 17.208 60.7318 17.032 61.4358 16.68C62.1558 16.312 62.7158 15.784 63.1158 15.096C63.5158 14.392 63.7158 13.56 63.7158 12.6C63.7158 11.624 63.5158 10.792 63.1158 10.104C62.7158 9.416 62.1558 8.896 61.4358 8.544C60.7318 8.176 59.8998 7.992 58.9398 7.992H55.9398V17.208ZM80.7603 21V10.608L81.7443 11.616H76.5603V7.992H89.4723V11.616H84.2883L85.2963 10.608V21H80.7603ZM93.7797 25.872C93.0917 25.872 92.3957 25.76 91.6917 25.536C91.0037 25.328 90.4437 25.048 90.0117 24.696L91.5957 21.504C91.8677 21.744 92.1797 21.928 92.5317 22.056C92.8997 22.2 93.2597 22.272 93.6117 22.272C94.1077 22.272 94.4997 22.16 94.7877 21.936C95.0757 21.712 95.3237 21.36 95.5317 20.88L96.1317 19.368L96.4917 18.912L100.908 7.992H105.252L99.6357 21.528C99.1877 22.648 98.6677 23.52 98.0757 24.144C97.4997 24.784 96.8517 25.232 96.1317 25.488C95.4277 25.744 94.6437 25.872 93.7797 25.872ZM95.5557 21.552L89.8197 7.992H94.4997L98.7237 18.504L95.5557 21.552ZM114.915 21.216C113.811 21.216 112.867 20.976 112.083 20.496C111.299 20 110.699 19.264 110.283 18.288C109.883 17.296 109.683 16.032 109.683 14.496C109.683 12.944 109.875 11.68 110.259 10.704C110.643 9.712 111.219 8.976 111.987 8.496C112.771 8.016 113.747 7.776 114.915 7.776C116.099 7.776 117.171 8.056 118.131 8.616C119.107 9.16 119.875 9.936 120.435 10.944C121.011 11.936 121.299 13.12 121.299 14.496C121.299 15.872 121.011 17.064 120.435 18.072C119.875 19.08 119.107 19.856 118.131 20.4C117.171 20.944 116.099 21.216 114.915 21.216ZM106.731 25.656V7.992H111.075V10.2L111.051 14.496L111.291 18.816V25.656H106.731ZM113.955 17.592C114.467 17.592 114.923 17.472 115.323 17.232C115.739 16.992 116.067 16.64 116.307 16.176C116.563 15.712 116.691 15.152 116.691 14.496C116.691 13.84 116.563 13.28 116.307 12.816C116.067 12.352 115.739 12 115.323 11.76C114.923 11.52 114.467 11.4 113.955 11.4C113.443 11.4 112.979 11.52 112.563 11.76C112.163 12 111.835 12.352 111.579 12.816C111.339 13.28 111.219 13.84 111.219 14.496C111.219 15.152 111.339 15.712 111.579 16.176C111.835 16.64 112.163 16.992 112.563 17.232C112.979 17.472 113.443 17.592 113.955 17.592ZM20.868 45V31.992H34.308V45H29.772V34.632L30.78 35.616H24.42L25.404 34.632V45H20.868ZM43.8229 45.216C42.3989 45.216 41.1349 44.928 40.0309 44.352C38.9269 43.776 38.0549 42.984 37.4149 41.976C36.7909 40.952 36.4789 39.784 36.4789 38.472C36.4789 37.16 36.7909 36 37.4149 34.992C38.0549 33.984 38.9269 33.2 40.0309 32.64C41.1349 32.064 42.3989 31.776 43.8229 31.776C45.2469 31.776 46.5109 32.064 47.6149 32.64C48.7349 33.2 49.6069 33.984 50.2309 34.992C50.8549 36 51.1669 37.16 51.1669 38.472C51.1669 39.784 50.8549 40.952 50.2309 41.976C49.6069 42.984 48.7349 43.776 47.6149 44.352C46.5109 44.928 45.2469 45.216 43.8229 45.216ZM43.8229 41.592C44.3509 41.592 44.8149 41.472 45.2149 41.232C45.6309 40.992 45.9589 40.64 46.1989 40.176C46.4389 39.696 46.5589 39.128 46.5589 38.472C46.5589 37.816 46.4389 37.264 46.1989 36.816C45.9589 36.352 45.6309 36 45.2149 35.76C44.8149 35.52 44.3509 35.4 43.8229 35.4C43.3109 35.4 42.8469 35.52 42.4309 35.76C42.0309 36 41.7029 36.352 41.4469 36.816C41.2069 37.264 41.0869 37.816 41.0869 38.472C41.0869 39.128 41.2069 39.696 41.4469 40.176C41.7029 40.64 42.0309 40.992 42.4309 41.232C42.8469 41.472 43.3109 41.592 43.8229 41.592ZM69.4099 45L65.4499 38.928L69.1219 36.768L74.7859 45H69.4099ZM60.2899 45V31.992H64.8499V45H60.2899ZM63.5059 40.368V36.792H68.2099V40.368H63.5059ZM69.5779 39L65.3059 38.568L69.6739 31.992H74.4979L69.5779 39ZM74.9777 45L75.1697 41.28C75.2817 41.296 75.3857 41.312 75.4817 41.328C75.5777 41.328 75.6657 41.328 75.7457 41.328C76.1457 41.328 76.4577 41.232 76.6817 41.04C76.9217 40.832 77.0977 40.552 77.2097 40.2C77.3377 39.848 77.4257 39.44 77.4737 38.976C77.5377 38.496 77.5777 37.976 77.5937 37.416L77.7857 31.992H89.5457V45H84.9857V34.584L85.9937 35.616H80.7857L81.7457 34.536L81.6017 37.608C81.5537 38.776 81.4497 39.84 81.2897 40.8C81.1457 41.744 80.9137 42.552 80.5937 43.224C80.2737 43.896 79.8337 44.416 79.2737 44.784C78.7297 45.136 78.0337 45.312 77.1857 45.312C76.8817 45.312 76.5377 45.28 76.1537 45.216C75.7857 45.168 75.3937 45.096 74.9777 45ZM95.0102 49.872C94.3222 49.872 93.6262 49.76 92.9222 49.536C92.2342 49.328 91.6742 49.048 91.2422 48.696L92.8262 45.504C93.0982 45.744 93.4102 45.928 93.7622 46.056C94.1302 46.2 94.4902 46.272 94.8422 46.272C95.3382 46.272 95.7302 46.16 96.0182 45.936C96.3062 45.712 96.5542 45.36 96.7622 44.88L97.3622 43.368L97.7222 42.912L102.138 31.992H106.482L100.866 45.528C100.418 46.648 99.8982 47.52 99.3062 48.144C98.7302 48.784 98.0822 49.232 97.3622 49.488C96.6582 49.744 95.8742 49.872 95.0102 49.872ZM96.7862 45.552L91.0502 31.992H95.7302L99.9542 42.504L96.7862 45.552ZM114.683 45.336C113.627 45.336 112.643 45.184 111.731 44.88C110.835 44.576 110.051 44.096 109.379 43.44C108.723 42.784 108.203 41.928 107.819 40.872C107.451 39.816 107.267 38.536 107.267 37.032C107.267 36.024 107.355 35.096 107.531 34.248C107.707 33.4 107.971 32.624 108.323 31.92C108.691 31.2 109.155 30.568 109.715 30.024C110.291 29.48 110.963 29.024 111.731 28.656C112.499 28.288 113.379 28.008 114.371 27.816L120.683 26.616L121.307 30.432L115.835 31.464C115.499 31.528 115.131 31.608 114.731 31.704C114.347 31.8 113.971 31.944 113.603 32.136C113.235 32.312 112.891 32.56 112.571 32.88C112.267 33.2 112.019 33.624 111.827 34.152C111.651 34.664 111.563 35.304 111.563 36.072C111.563 36.296 111.571 36.48 111.587 36.624C111.619 36.752 111.643 36.904 111.659 37.08C111.675 37.24 111.683 37.488 111.683 37.824L110.411 36.648C110.795 35.976 111.251 35.408 111.779 34.944C112.323 34.48 112.947 34.12 113.651 33.864C114.355 33.608 115.139 33.48 116.003 33.48C117.267 33.48 118.355 33.728 119.267 34.224C120.179 34.704 120.875 35.376 121.355 36.24C121.851 37.088 122.099 38.056 122.099 39.144C122.099 40.424 121.779 41.528 121.139 42.456C120.499 43.368 119.619 44.08 118.499 44.592C117.395 45.088 116.123 45.336 114.683 45.336ZM114.803 41.88C115.331 41.88 115.787 41.768 116.171 41.544C116.571 41.32 116.883 41.008 117.107 40.608C117.331 40.208 117.443 39.76 117.443 39.264C117.443 38.752 117.331 38.312 117.107 37.944C116.883 37.576 116.571 37.288 116.171 37.08C115.787 36.872 115.331 36.768 114.803 36.768C114.275 36.768 113.803 36.872 113.387 37.08C112.987 37.288 112.675 37.568 112.451 37.92C112.227 38.272 112.115 38.696 112.115 39.192C112.115 39.688 112.227 40.144 112.451 40.56C112.675 40.976 112.987 41.304 113.387 41.544C113.803 41.768 114.275 41.88 114.803 41.88ZM126.252 49.872C125.564 49.872 124.868 49.76 124.164 49.536C123.476 49.328 122.916 49.048 122.484 48.696L124.068 45.504C124.34 45.744 124.652 45.928 125.004 46.056C125.372 46.2 125.732 46.272 126.084 46.272C126.58 46.272 126.972 46.16 127.26 45.936C127.548 45.712 127.796 45.36 128.004 44.88L128.604 43.368L128.964 42.912L133.38 31.992H137.724L132.108 45.528C131.66 46.648 131.14 47.52 130.548 48.144C129.972 48.784 129.324 49.232 128.604 49.488C127.9 49.744 127.116 49.872 126.252 49.872ZM128.028 45.552L122.292 31.992H126.972L131.196 42.504L128.028 45.552Z" fill="black"/>
</svg>
