<svg width="599" height="220" viewBox="0 0 599 220" fill="none" xmlns="http://www.w3.org/2000/svg">
<path d="M4.59692 118.606L7.26092 104.974L8.24492 106.198H2.17292L3.03692 101.806H18.4449L17.5809 106.198H11.3649L12.8289 104.974L10.1649 118.606H4.59692ZM16.8328 118.606L20.1928 101.806H27.6568C29.9128 101.806 31.6488 102.294 32.8648 103.27C34.0968 104.246 34.7128 105.614 34.7128 107.374C34.7128 108.782 34.3608 110.022 33.6568 111.094C32.9688 112.166 31.9848 112.998 30.7048 113.59C29.4408 114.182 27.9448 114.478 26.2168 114.478H20.7928L23.8168 112.006L22.4968 118.606H16.8328ZM23.6728 112.678L21.6808 110.11H26.5048C27.2888 110.11 27.8968 109.918 28.3288 109.534C28.7608 109.134 28.9768 108.582 28.9768 107.878C28.9768 107.27 28.7848 106.838 28.4008 106.582C28.0328 106.31 27.5208 106.174 26.8648 106.174H22.4728L25.4968 103.534L23.6728 112.678ZM41.8504 108.046H49.3384L48.5224 112.126H41.0344L41.8504 108.046ZM40.9624 114.334H49.3864L48.5224 118.606H34.5544L37.9144 101.806H51.5704L50.7064 106.078H42.6184L40.9624 114.334ZM65.076 101.806H70.74L67.38 118.606H61.716L65.076 101.806ZM56.484 118.606H50.82L54.18 101.806H59.844L56.484 118.606ZM63.324 112.414H57.348L58.284 107.758H64.26L63.324 112.414ZM70.3669 118.606L73.7269 101.806H79.2949L77.4949 110.542L85.0069 101.806H90.4069L87.0469 118.606H81.4789L83.3029 109.894L75.7909 118.606H70.3669ZM89.9109 118.606L93.2709 101.806H100.735C102.991 101.806 104.727 102.294 105.943 103.27C107.175 104.246 107.791 105.614 107.791 107.374C107.791 108.782 107.439 110.022 106.735 111.094C106.047 112.166 105.063 112.998 103.783 113.59C102.519 114.182 101.023 114.478 99.2949 114.478H93.8709L96.8949 112.006L95.5749 118.606H89.9109ZM96.7509 112.678L94.7589 110.11H99.5829C100.367 110.11 100.975 109.918 101.407 109.534C101.839 109.134 102.055 108.582 102.055 107.878C102.055 107.27 101.863 106.838 101.479 106.582C101.111 106.31 100.599 106.174 99.9429 106.174H95.5509L98.5749 103.534L96.7509 112.678ZM117.131 118.99C115.387 118.99 113.875 118.67 112.595 118.03C111.331 117.39 110.347 116.51 109.643 115.39C108.955 114.254 108.611 112.95 108.611 111.478C108.611 109.99 108.867 108.638 109.379 107.422C109.907 106.19 110.643 105.126 111.587 104.23C112.531 103.334 113.651 102.646 114.947 102.166C116.243 101.67 117.659 101.422 119.195 101.422C120.939 101.422 122.443 101.742 123.707 102.382C124.987 103.022 125.971 103.91 126.659 105.046C127.363 106.166 127.715 107.462 127.715 108.934C127.715 110.422 127.451 111.782 126.923 113.014C126.411 114.23 125.683 115.286 124.739 116.182C123.795 117.078 122.675 117.774 121.379 118.27C120.083 118.75 118.667 118.99 117.131 118.99ZM117.611 114.406C118.315 114.406 118.931 114.27 119.459 113.998C120.003 113.726 120.467 113.35 120.851 112.87C121.235 112.39 121.523 111.846 121.715 111.238C121.907 110.614 122.003 109.958 122.003 109.27C122.003 108.614 121.867 108.046 121.595 107.566C121.339 107.07 120.963 106.686 120.467 106.414C119.987 106.142 119.403 106.006 118.715 106.006C118.027 106.006 117.411 106.142 116.867 106.414C116.323 106.686 115.859 107.062 115.475 107.542C115.091 108.022 114.803 108.574 114.611 109.198C114.419 109.806 114.323 110.454 114.323 111.142C114.323 111.782 114.451 112.35 114.707 112.846C114.979 113.342 115.355 113.726 115.835 113.998C116.331 114.27 116.923 114.406 117.611 114.406ZM127.927 118.606L131.287 101.806H140.191C142.191 101.806 143.695 102.158 144.703 102.862C145.711 103.55 146.215 104.534 146.215 105.814C146.215 106.854 145.911 107.734 145.303 108.454C144.711 109.174 143.887 109.726 142.831 110.11C141.791 110.478 140.591 110.662 139.231 110.662L139.951 109.366C141.663 109.366 143.007 109.71 143.983 110.398C144.975 111.07 145.471 112.022 145.471 113.254C145.471 114.486 145.111 115.502 144.391 116.302C143.687 117.086 142.743 117.67 141.559 118.054C140.375 118.422 139.063 118.606 137.623 118.606H127.927ZM134.287 114.646H137.935C138.495 114.646 138.951 114.518 139.303 114.262C139.671 114.006 139.855 113.622 139.855 113.11C139.855 112.742 139.711 112.47 139.423 112.294C139.151 112.102 138.831 112.006 138.463 112.006H134.431L135.175 108.262H138.439C138.871 108.262 139.223 108.206 139.495 108.094C139.783 107.966 139.991 107.798 140.119 107.59C140.247 107.366 140.311 107.102 140.311 106.798C140.311 106.446 140.175 106.19 139.903 106.03C139.647 105.854 139.287 105.766 138.823 105.766H136.063L134.287 114.646ZM146.609 118.606L149.969 101.806H155.633L152.273 118.606H146.609ZM151.865 112.534L152.753 108.07H159.113L158.225 112.534H151.865ZM157.385 118.606L154.745 110.734L159.401 108.094L163.385 118.606H157.385ZM159.593 110.806L154.121 110.278L160.625 101.806H166.913L159.593 110.806ZM164.679 118.606L168.039 101.806H173.607L171.807 110.542L179.319 101.806H184.719L181.359 118.606H175.791L177.615 109.894L170.103 118.606H164.679ZM191.539 118.606L194.899 101.806H209.467L208.603 106.078H199.603L199.219 108.022H203.227C204.971 108.022 206.315 108.422 207.259 109.222C208.219 110.006 208.699 111.134 208.699 112.606C208.699 113.838 208.363 114.902 207.691 115.798C207.019 116.694 206.059 117.39 204.811 117.886C203.579 118.366 202.107 118.606 200.395 118.606H191.539ZM197.899 114.646H200.803C201.443 114.646 201.947 114.502 202.315 114.214C202.699 113.926 202.891 113.542 202.891 113.062C202.891 112.694 202.763 112.422 202.507 112.246C202.251 112.054 201.859 111.958 201.331 111.958H198.427L197.899 114.646ZM216.811 108.046H224.299L223.483 112.126H215.995L216.811 108.046ZM215.923 114.334H224.347L223.483 118.606H209.515L212.875 101.806H226.531L225.667 106.078H217.579L215.923 114.334ZM231.781 118.99C230.629 118.99 229.453 118.862 228.253 118.606C227.069 118.366 225.917 117.974 224.797 117.43L227.245 113.518C227.981 113.854 228.749 114.11 229.549 114.286C230.349 114.446 231.117 114.526 231.853 114.526C232.333 114.526 232.781 114.494 233.197 114.43C233.613 114.35 233.973 114.246 234.277 114.118C234.597 113.99 234.845 113.83 235.021 113.638C235.197 113.446 235.285 113.23 235.285 112.99C235.285 112.686 235.165 112.462 234.925 112.318C234.685 112.174 234.309 112.102 233.797 112.102H229.261L230.077 108.022H234.133C234.469 108.022 234.765 107.974 235.021 107.878C235.277 107.782 235.477 107.654 235.621 107.494C235.765 107.318 235.837 107.118 235.837 106.894C235.837 106.638 235.741 106.43 235.549 106.27C235.357 106.094 235.085 105.966 234.733 105.886C234.397 105.79 234.005 105.742 233.557 105.742C232.917 105.742 232.197 105.83 231.397 106.006C230.613 106.182 229.821 106.454 229.021 106.822L228.205 102.622C229.245 102.19 230.293 101.87 231.349 101.662C232.421 101.454 233.445 101.35 234.421 101.35C235.781 101.35 237.005 101.534 238.093 101.902C239.197 102.254 240.077 102.766 240.733 103.438C241.389 104.11 241.717 104.91 241.717 105.838C241.717 106.686 241.453 107.47 240.925 108.19C240.397 108.894 239.685 109.462 238.789 109.894C237.909 110.31 236.941 110.518 235.885 110.518L236.221 109.39C237.133 109.39 237.941 109.566 238.645 109.918C239.349 110.254 239.901 110.726 240.301 111.334C240.701 111.942 240.901 112.638 240.901 113.422C240.901 114.27 240.653 115.038 240.157 115.726C239.677 116.398 239.013 116.982 238.165 117.478C237.333 117.958 236.365 118.334 235.261 118.606C234.173 118.862 233.013 118.99 231.781 118.99ZM258.389 118.99C256.645 118.99 255.133 118.67 253.853 118.03C252.589 117.39 251.605 116.51 250.901 115.39C250.213 114.254 249.869 112.95 249.869 111.478C249.869 109.99 250.125 108.638 250.637 107.422C251.165 106.19 251.901 105.126 252.845 104.23C253.789 103.334 254.909 102.646 256.205 102.166C257.501 101.67 258.917 101.422 260.453 101.422C262.197 101.422 263.701 101.742 264.965 102.382C266.245 103.022 267.229 103.91 267.917 105.046C268.621 106.166 268.973 107.462 268.973 108.934C268.973 110.422 268.709 111.782 268.181 113.014C267.669 114.23 266.941 115.286 265.997 116.182C265.053 117.078 263.933 117.774 262.637 118.27C261.341 118.75 259.925 118.99 258.389 118.99ZM258.869 114.406C259.573 114.406 260.189 114.27 260.717 113.998C261.261 113.726 261.725 113.35 262.109 112.87C262.493 112.39 262.781 111.846 262.973 111.238C263.165 110.614 263.261 109.958 263.261 109.27C263.261 108.614 263.125 108.046 262.853 107.566C262.597 107.07 262.221 106.686 261.725 106.414C261.245 106.142 260.661 106.006 259.973 106.006C259.285 106.006 258.669 106.142 258.125 106.414C257.581 106.686 257.117 107.062 256.733 107.542C256.349 108.022 256.061 108.574 255.869 109.198C255.677 109.806 255.581 110.454 255.581 111.142C255.581 111.782 255.709 112.35 255.965 112.846C256.237 113.342 256.613 113.726 257.093 113.998C257.589 114.27 258.181 114.406 258.869 114.406ZM269.304 118.606L272.664 101.806H285.456L284.592 106.198H276.072L277.536 104.974L274.872 118.606H269.304ZM283.856 118.606L287.216 101.806H294.68C296.936 101.806 298.672 102.294 299.888 103.27C301.12 104.246 301.736 105.614 301.736 107.374C301.736 108.782 301.384 110.022 300.68 111.094C299.992 112.166 299.008 112.998 297.728 113.59C296.464 114.182 294.968 114.478 293.24 114.478H287.816L290.84 112.006L289.52 118.606H283.856ZM290.696 112.678L288.704 110.11H293.528C294.312 110.11 294.92 109.918 295.352 109.534C295.784 109.134 296 108.582 296 107.878C296 107.27 295.808 106.838 295.424 106.582C295.056 106.31 294.544 106.174 293.888 106.174H289.496L292.52 103.534L290.696 112.678ZM299.318 118.606L310.022 101.806H315.59L319.574 118.606H313.934L311.222 104.422H313.43L305.294 118.606H299.318ZM304.262 115.678L306.518 111.598H314.246L314.87 115.678H304.262ZM335.381 101.806H341.045L337.685 118.606H332.021L335.381 101.806ZM326.789 118.606H321.125L324.485 101.806H330.149L326.789 118.606ZM333.629 112.414H327.653L328.589 107.758H334.565L333.629 112.414ZM340.672 118.606L344.032 101.806H349.6L347.8 110.542L355.312 101.806H360.712L357.352 118.606H351.784L353.608 109.894L346.096 118.606H340.672ZM371.699 113.038C370.915 113.294 370.219 113.478 369.611 113.59C369.003 113.686 368.451 113.734 367.955 113.734C365.395 113.734 363.555 113.118 362.435 111.886C361.331 110.638 361.003 108.894 361.451 106.654L362.411 101.806H367.979L367.043 106.462C366.835 107.486 366.875 108.206 367.163 108.622C367.467 109.038 368.027 109.246 368.843 109.246C369.563 109.246 370.195 109.166 370.739 109.006C371.299 108.846 371.771 108.654 372.155 108.43L371.699 113.038ZM369.659 118.606L373.019 101.806H378.587L375.227 118.606H369.659ZM385.491 108.046H392.979L392.163 112.126H384.675L385.491 108.046ZM384.603 114.334H393.027L392.163 118.606H378.195L381.555 101.806H395.211L394.347 106.078H386.259L384.603 114.334ZM408.717 101.806H414.381L411.021 118.606H405.357L408.717 101.806ZM400.125 118.606H394.461L397.821 101.806H403.485L400.125 118.606ZM406.965 112.414H400.989L401.925 107.758H407.901L406.965 112.414ZM414.007 118.606L417.367 101.806H422.935L421.135 110.542L428.647 101.806H434.047L430.687 118.606H425.119L426.943 109.894L419.431 118.606H414.007ZM433.672 118.606L437.032 101.806H442.6L440.8 110.542L448.312 101.806H453.712L450.352 118.606H444.784L446.608 109.894L439.096 118.606H433.672ZM445.6 100.942C443.808 100.942 442.528 100.598 441.76 99.9104C440.992 99.2224 440.712 98.1664 440.92 96.7424H444.424C444.344 97.2864 444.424 97.6864 444.664 97.9424C444.92 98.1984 445.32 98.3264 445.864 98.3264C446.408 98.3264 446.824 98.2064 447.112 97.9664C447.416 97.7104 447.608 97.3024 447.688 96.7424H451.288C451.064 98.2144 450.496 99.2864 449.584 99.9584C448.688 100.614 447.36 100.942 445.6 100.942Z" fill="white"/>
<g filter="url(#filter0_f_633_63)">
<path d="M491.422 100.771H479.095L472.86 107.086H486.274L478.515 113.256H489.609L483.373 119.207L496.86 111.005H487.506L496.86 103.457H487.941L491.422 100.771Z" stroke="white"/>
</g>
<path d="M491.422 100.771H479.095L472.86 107.086H486.274L478.515 113.256H489.609L483.373 119.207L496.86 111.005H487.506L496.86 103.457H487.941L491.422 100.771Z" fill="white"/>
<defs>
<filter id="filter0_f_633_63" x="371.663" y="0.270996" width="226.981" height="219.364" filterUnits="userSpaceOnUse" color-interpolation-filters="sRGB">
<feFlood flood-opacity="0" result="BackgroundImageFix"/>
<feBlend mode="normal" in="SourceGraphic" in2="BackgroundImageFix" result="shape"/>
<feGaussianBlur stdDeviation="50" result="effect1_foregroundBlur_633_63"/>
</filter>
</defs>
</svg>
