<svg width="20" height="20" viewBox="0 0 20 20" fill="none" xmlns="http://www.w3.org/2000/svg">
<rect width="20" height="20" fill="#F5F5F5"/>
<g id="Pd Zaruba" clip-path="url(#clip0_0_1)">
<rect width="1920" height="11698" transform="translate(-1437 -27)" fill="black"/>
<g id="&#208;&#156;&#208;&#181;&#208;&#189;&#209;&#142;">
<g id="&#208;&#154;&#208;&#190;&#208;&#189;&#209;&#130;&#208;&#176;&#208;&#186;&#209;&#130;&#209;&#139;">
<g id="&#208;&#155;&#208;&#184;&#209;&#135;&#208;&#189;&#209;&#139;&#208;&#185; &#208;&#186;&#208;&#176;&#208;&#177;&#208;&#184;&#208;&#189;&#208;&#181;&#209;&#130;">
<g id="user-shared-2-line" clip-path="url(#clip1_0_1)">
<g id="Group">
<path id="Vector" d="M11.6666 11.8766V13.6183C10.9124 13.3517 10.1052 13.2699 9.31282 13.3798C8.52042 13.4897 7.76598 13.7882 7.11284 14.2502C6.4597 14.7121 5.92693 15.324 5.55928 16.0345C5.19163 16.745 4.99983 17.5333 4.99998 18.3333L3.33331 18.3325C3.33305 17.3149 3.56575 16.3107 4.01356 15.397C4.46138 14.4832 5.11243 13.6841 5.91683 13.0608C6.72123 12.4376 7.65763 12.0068 8.65427 11.8014C9.65092 11.5959 10.6814 11.6214 11.6666 11.8758V11.8766ZM9.99998 10.8333C7.23748 10.8333 4.99998 8.59581 4.99998 5.83331C4.99998 3.07081 7.23748 0.833313 9.99998 0.833313C12.7625 0.833313 15 3.07081 15 5.83331C15 8.59581 12.7625 10.8333 9.99998 10.8333ZM9.99998 9.16665C11.8416 9.16665 13.3333 7.67498 13.3333 5.83331C13.3333 3.99165 11.8416 2.49998 9.99998 2.49998C8.15831 2.49998 6.66665 3.99165 6.66665 5.83331C6.66665 7.67498 8.15831 9.16665 9.99998 9.16665ZM15 14.1666V11.25L19.1666 15L15 18.75V15.8333H12.5V14.1666H15Z" fill="#FFED00"/>
</g>
</g>
</g>
</g>
</g>
</g>
<defs>
<clipPath id="clip0_0_1">
<rect width="1920" height="11698" fill="white" transform="translate(-1437 -27)"/>
</clipPath>
<clipPath id="clip1_0_1">
<rect width="20" height="20" fill="white"/>
</clipPath>
</defs>
</svg>
