<svg width="24" height="14" viewBox="0 0 24 14" fill="none" xmlns="http://www.w3.org/2000/svg">
<path d="M19.9157 8.028C19.5277 7.538 19.6387 7.32 19.9157 6.882C19.9207 6.877 23.1238 2.451 23.4538 0.95L23.4558 0.949C23.6198 0.402 23.4558 0 22.6628 0H20.0387C19.3707 0 19.0627 0.345 18.8977 0.731C18.8977 0.731 17.5616 3.929 15.6715 6.002C15.0615 6.601 14.7795 6.793 14.4465 6.793C14.2825 6.793 14.0275 6.601 14.0275 6.054V0.949C14.0275 0.293 13.8405 0 13.2875 0H9.16132C8.7423 0 8.49329 0.306 8.49329 0.591C8.49329 1.213 9.43833 1.356 9.53633 3.106V6.903C9.53633 7.735 9.38533 7.888 9.05031 7.888C8.15828 7.888 5.99321 4.677 4.71016 1.002C4.45115 0.289 4.19815 0.000999928 3.52512 0.000999928H0.900031C0.151005 0.000999928 0 0.346 0 0.732C0 1.414 0.892031 4.805 4.14814 9.285C6.31822 12.343 9.37433 14 12.1544 14C13.8255 14 14.0295 13.632 14.0295 12.999C14.0295 10.077 13.8785 9.801 14.7155 9.801C15.1035 9.801 15.7715 9.993 17.3316 11.468C19.1147 13.217 19.4077 14 20.4057 14H23.0298C23.7778 14 24.1568 13.632 23.9388 12.906C23.4398 11.379 20.0677 8.238 19.9157 8.028Z" fill="#FAED19"/>
</svg>
