<svg width="155" height="111" viewBox="0 0 155 111" fill="none" xmlns="http://www.w3.org/2000/svg">
<path d="M36.2071 72.3904C34.0471 72.3904 31.8571 72.1504 29.6371 71.6704C27.4171 71.1904 25.4671 70.4854 23.7871 69.5554L27.3871 61.7254C28.7371 62.5054 30.1471 63.0904 31.6171 63.4804C33.1171 63.8404 34.5271 64.0204 35.8471 64.0204C37.0471 64.0204 38.0221 63.8254 38.7721 63.4354C39.5521 63.0154 39.9421 62.4004 39.9421 61.5904C39.9421 60.9004 39.6571 60.3754 39.0871 60.0154C38.5171 59.6254 37.5571 59.4304 36.2071 59.4304H32.0221V52.9054L40.1671 44.6254L41.1121 48.1804H25.4071V40.1704H48.8971V46.6954L40.7521 54.9754L35.6671 52.0954H38.4571C42.4171 52.0954 45.4321 52.9804 47.5021 54.7504C49.5721 56.5204 50.6071 58.8004 50.6071 61.5904C50.6071 63.3904 50.0971 65.1154 49.0771 66.7654C48.0871 68.4154 46.5271 69.7654 44.3971 70.8154C42.2971 71.8654 39.5671 72.3904 36.2071 72.3904ZM68.1237 72.3904C65.1237 72.3904 62.4837 71.8204 60.2037 70.6804C57.9537 69.5104 56.1837 67.7854 54.8937 65.5054C53.6337 63.1954 53.0037 60.3304 53.0037 56.9104C53.0037 53.2204 53.7387 50.0854 55.2087 47.5054C56.6787 44.8954 58.7187 42.9004 61.3287 41.5204C63.9687 40.1404 67.0137 39.4504 70.4637 39.4504C72.3237 39.4504 74.1087 39.6754 75.8187 40.1254C77.5587 40.5454 79.0287 41.1454 80.2287 41.9254L76.4037 49.3504C75.4737 48.6904 74.5287 48.2554 73.5687 48.0454C72.6387 47.8054 71.6787 47.6854 70.6887 47.6854C68.5587 47.6854 66.8487 48.3304 65.5587 49.6204C64.2987 50.8804 63.6687 52.7254 63.6687 55.1554C63.6687 55.6054 63.6687 56.0554 63.6687 56.5054C63.6687 56.9254 63.6687 57.3604 63.6687 57.8104L61.2387 56.0554C61.8387 55.0354 62.5437 54.1804 63.3537 53.4904C64.1637 52.7704 65.1237 52.2304 66.2337 51.8704C67.3437 51.4804 68.6337 51.2854 70.1037 51.2854C72.0237 51.2854 73.7937 51.7054 75.4137 52.5454C77.0637 53.3554 78.3837 54.5104 79.3737 56.0104C80.3937 57.5104 80.9037 59.2954 80.9037 61.3654C80.9037 63.6154 80.3337 65.5654 79.1937 67.2154C78.0537 68.8654 76.5087 70.1404 74.5587 71.0404C72.6387 71.9404 70.4937 72.3904 68.1237 72.3904ZM67.4037 65.0554C68.0337 65.0554 68.5887 64.9354 69.0687 64.6954C69.5787 64.4254 69.9687 64.0504 70.2387 63.5704C70.5087 63.0904 70.6437 62.5204 70.6437 61.8604C70.6437 60.8704 70.3437 60.0904 69.7437 59.5204C69.1437 58.9204 68.3637 58.6204 67.4037 58.6204C66.7737 58.6204 66.2187 58.7554 65.7387 59.0254C65.2587 59.2954 64.8687 59.6704 64.5687 60.1504C64.2987 60.6304 64.1637 61.2004 64.1637 61.8604C64.1637 62.5204 64.2987 63.0904 64.5687 63.5704C64.8687 64.0504 65.2587 64.4254 65.7387 64.6954C66.2187 64.9354 66.7737 65.0554 67.4037 65.0554ZM97.0197 72.3904C94.2297 72.3904 91.7547 71.7454 89.5947 70.4554C87.4647 69.1654 85.7847 67.2904 84.5547 64.8304C83.3547 62.3704 82.7547 59.4004 82.7547 55.9204C82.7547 52.4404 83.3547 49.4704 84.5547 47.0104C85.7847 44.5504 87.4647 42.6754 89.5947 41.3854C91.7547 40.0954 94.2297 39.4504 97.0197 39.4504C99.8097 39.4504 102.27 40.0954 104.4 41.3854C106.56 42.6754 108.24 44.5504 109.44 47.0104C110.67 49.4704 111.285 52.4404 111.285 55.9204C111.285 59.4004 110.67 62.3704 109.44 64.8304C108.24 67.2904 106.56 69.1654 104.4 70.4554C102.27 71.7454 99.8097 72.3904 97.0197 72.3904ZM97.0197 63.8854C97.7097 63.8854 98.3247 63.6454 98.8647 63.1654C99.4047 62.6854 99.8247 61.8604 100.125 60.6904C100.455 59.5204 100.62 57.9304 100.62 55.9204C100.62 53.8804 100.455 52.2904 100.125 51.1504C99.8247 49.9804 99.4047 49.1554 98.8647 48.6754C98.3247 48.1954 97.7097 47.9554 97.0197 47.9554C96.3297 47.9554 95.7147 48.1954 95.1747 48.6754C94.6347 49.1554 94.1997 49.9804 93.8697 51.1504C93.5697 52.2904 93.4197 53.8804 93.4197 55.9204C93.4197 57.9304 93.5697 59.5204 93.8697 60.6904C94.1997 61.8604 94.6347 62.6854 95.1747 63.1654C95.7147 63.6454 96.3297 63.8854 97.0197 63.8854ZM122.282 57.4054C119.552 57.4054 117.317 56.5504 115.577 54.8404C113.867 53.1304 113.012 50.7154 113.012 47.5954C113.012 44.4754 113.867 42.0754 115.577 40.3954C117.317 38.6854 119.552 37.8304 122.282 37.8304C125.042 37.8304 127.277 38.6854 128.987 40.3954C130.697 42.0754 131.552 44.4754 131.552 47.5954C131.552 50.7154 130.697 53.1304 128.987 54.8404C127.277 56.5504 125.042 57.4054 122.282 57.4054ZM122.282 52.1404C122.912 52.1404 123.437 51.8104 123.857 51.1504C124.307 50.4904 124.532 49.3054 124.532 47.5954C124.532 45.8854 124.307 44.7154 123.857 44.0854C123.437 43.4254 122.912 43.0954 122.282 43.0954C121.652 43.0954 121.112 43.4254 120.662 44.0854C120.242 44.7154 120.032 45.8854 120.032 47.5954C120.032 49.3054 120.242 50.4904 120.662 51.1504C121.112 51.8104 121.652 52.1404 122.282 52.1404Z" fill="black"/>
<path fill-rule="evenodd" clip-rule="evenodd" d="M89.7717 1.29385C88.9332 1.74999 85.601 3.48589 82.3668 5.15105C79.1326 6.81644 76.4546 8.20481 76.4159 8.23634C76.3377 8.30006 77.3925 8.87534 85.5775 13.2329C88.661 14.8747 91.2337 16.2179 91.2945 16.2179C91.3553 16.2179 91.4051 15.2207 91.4051 14.002V11.7861L93.5286 11.9326C113.041 13.2783 127.125 15.5993 138.001 19.2612C144.135 21.3268 147.714 23.1611 150.01 25.4153C151.811 27.1847 152.018 27.8456 151.204 29.2414C149.917 31.4497 145.875 33.8355 139.646 36.0635C138.208 36.5774 137.148 37.0033 137.288 37.0099C137.879 37.0368 143.546 34.9101 145.965 33.7534C150.748 31.4663 153.362 29.3597 154.455 26.9108C155.519 24.5264 155.043 22.4912 152.869 20.1301C146.449 13.1578 124.406 7.33784 97.7581 5.57983C94.8029 5.38493 92.1681 5.18478 91.9026 5.13529C91.4454 5.04989 91.4165 4.92331 91.3581 2.75448L91.2962 0.464111L89.7717 1.29385ZM64.9435 4.97477C48.9496 5.7248 37.2627 7.09017 26.0662 9.51696C7.30614 13.5833 -2.43501 20.1266 0.794832 26.4921C2.28322 29.4256 6.77952 32.4581 13.3178 34.9385C16.8031 36.2608 17.0569 36.185 13.6876 34.8282C7.34077 32.2722 3.54815 29.4479 3.54815 27.2778C3.54815 24.9375 8.8163 21.5095 16.2706 18.999C27.5858 15.1885 43.6877 12.6745 62.3845 11.7994L68.1015 11.5318V8.18137V4.83068L67.1759 4.87207C66.6669 4.89484 65.6622 4.94105 64.9435 4.97477ZM133.834 73.7416C133.991 73.8049 134.179 73.797 134.251 73.7243C134.323 73.6516 134.195 73.6 133.965 73.6094C133.712 73.6199 133.66 73.6718 133.834 73.7416ZM14.307 75.0943C6.92435 77.7064 2.47509 80.4923 0.618422 83.6654C-0.192633 85.0511 -0.207876 87.444 0.584013 89.0032C1.29946 90.4119 3.7764 92.7045 6.03489 94.0484C15.5968 99.7378 36.0494 104.211 58.7365 105.575C61.0723 105.716 63.1114 105.868 63.268 105.914C63.4821 105.977 63.5425 106.555 63.5113 108.245C63.4884 109.48 63.5381 110.479 63.6217 110.464C63.98 110.4 78.3375 102.867 78.3364 102.744C78.3355 102.63 64.3507 95.0896 63.7332 94.8702C63.6135 94.8275 63.5279 95.7168 63.5279 97.0053C63.5279 98.6267 63.4556 99.2129 63.2556 99.2114C62.2967 99.2048 53.0569 98.4949 50.3515 98.2198C28.2692 95.9763 10.9618 91.2489 5.09621 85.8588C3.70953 84.5845 3.10865 83.4863 3.30531 82.5858C3.51548 81.6238 4.79239 80.2895 6.76841 78.9675C8.96702 77.4966 11.1014 76.4908 14.9604 75.1068C16.5775 74.5269 17.7536 74.0528 17.5739 74.0533C17.3942 74.0537 15.9241 74.5223 14.307 75.0943ZM135.358 74.1796C135.515 74.2429 135.703 74.235 135.776 74.1623C135.848 74.0896 135.719 74.0379 135.49 74.0473C135.236 74.0579 135.184 74.1098 135.358 74.1796ZM140.129 75.7589C146.641 78.3079 150.572 80.9071 151.309 83.1519C152.109 85.5909 147.106 89.1251 138.847 91.9544C127.299 95.91 110.007 98.5529 90.4795 99.3469L86.8315 99.4952V102.856V106.217L89.1728 106.101C96.2423 105.75 100.173 105.507 103.493 105.216C129.901 102.896 149.081 97.207 153.608 90.3526C156.197 86.4314 154.28 82.6633 147.807 78.9517C145.815 77.8095 139.916 75.3041 138.557 75.0234C138.198 74.9489 138.905 75.28 140.129 75.7589Z" fill="black"/>
</svg>
