<svg width="25" height="25" viewBox="0 0 25 25" fill="none" xmlns="http://www.w3.org/2000/svg">
<g clip-path="url(#clip0_25_252)">
<path d="M15.5 12.5C15.5 11.7044 15.1839 10.9413 14.6213 10.3787C14.0587 9.81607 13.2956 9.5 12.5 9.5C11.7044 9.5 10.9413 9.81607 10.3787 10.3787C9.81607 10.9413 9.5 11.7044 9.5 12.5C9.5 13.2956 9.81607 14.0587 10.3787 14.6213C10.9413 15.1839 11.7044 15.5 12.5 15.5C13.2956 15.5 14.0587 15.1839 14.6213 14.6213C15.1839 14.0587 15.5 13.2956 15.5 12.5ZM17.5 12.5C17.5 13.8261 16.9732 15.0979 16.0355 16.0355C15.0979 16.9732 13.8261 17.5 12.5 17.5C11.1739 17.5 9.90215 16.9732 8.96447 16.0355C8.02678 15.0979 7.5 13.8261 7.5 12.5C7.5 11.1739 8.02678 9.90215 8.96447 8.96447C9.90215 8.02678 11.1739 7.5 12.5 7.5C13.8261 7.5 15.0979 8.02678 16.0355 8.96447C16.9732 9.90215 17.5 11.1739 17.5 12.5ZM17.75 19C17.4185 19 17.1005 18.8683 16.8661 18.6339C16.6317 18.3995 16.5 18.0815 16.5 17.75C16.5 17.4185 16.6317 17.1005 16.8661 16.8661C17.1005 16.6317 17.4185 16.5 17.75 16.5C18.0815 16.5 18.3995 16.6317 18.6339 16.8661C18.8683 17.1005 19 17.4185 19 17.75C19 18.0815 18.8683 18.3995 18.6339 18.6339C18.3995 18.8683 18.0815 19 17.75 19ZM20.5 12.5C20.5 10.026 20.493 9.622 20.442 8.471C20.405 7.687 20.3 7.161 20.11 6.673C19.942 6.239 19.741 5.926 19.407 5.593C19.1046 5.28001 18.7354 5.03935 18.327 4.889C17.837 4.699 17.312 4.594 16.529 4.558C15.425 4.506 15.039 4.5 12.5 4.5C10.026 4.5 9.622 4.507 8.471 4.558C7.688 4.595 7.161 4.7 6.674 4.889C6.239 5.059 5.926 5.259 5.594 5.591C5.258 5.928 5.057 6.241 4.891 6.671C4.7 7.165 4.594 7.691 4.558 8.471C4.506 9.575 4.5 9.961 4.5 12.5C4.5 14.974 4.507 15.378 4.558 16.529C4.595 17.311 4.7 17.838 4.889 18.326C5.058 18.759 5.259 19.074 5.591 19.406C5.928 19.743 6.241 19.944 6.671 20.11C7.164 20.3 7.691 20.406 8.471 20.442C9.575 20.494 9.961 20.5 12.5 20.5C14.974 20.5 15.378 20.493 16.529 20.442C17.311 20.405 17.839 20.3 18.327 20.11C18.735 19.9593 19.104 19.7191 19.407 19.407C19.7202 19.1047 19.9608 18.7355 20.111 18.327C20.301 17.837 20.406 17.311 20.442 16.529C20.494 15.425 20.5 15.039 20.5 12.5ZM22.5 12.5C22.5 15.217 22.49 15.556 22.44 16.622C22.39 17.687 22.223 18.412 21.975 19.05C21.721 19.71 21.377 20.266 20.822 20.822C20.3221 21.3305 19.7174 21.724 19.05 21.975C18.413 22.222 17.687 22.39 16.622 22.44C15.556 22.487 15.217 22.5 12.5 22.5C9.783 22.5 9.444 22.49 8.378 22.44C7.313 22.39 6.588 22.222 5.95 21.975C5.28222 21.7247 4.67738 21.3311 4.178 20.822C3.66968 20.322 3.27625 19.7173 3.025 19.05C2.778 18.413 2.61 17.687 2.56 16.622C2.513 15.556 2.5 15.217 2.5 12.5C2.5 9.783 2.51 9.444 2.56 8.378C2.61 7.313 2.778 6.588 3.025 5.95C3.27553 5.28233 3.66906 4.67753 4.178 4.178C4.67781 3.66941 5.28253 3.27593 5.95 3.025C6.587 2.777 7.313 2.61 8.378 2.56C9.444 2.513 9.783 2.5 12.5 2.5C15.217 2.5 15.556 2.51 16.622 2.56C17.688 2.61 18.412 2.777 19.05 3.025C19.7178 3.27524 20.3227 3.6688 20.822 4.178C21.3308 4.67767 21.7243 5.28243 21.975 5.95C22.223 6.588 22.39 7.312 22.44 8.378C22.487 9.444 22.5 9.783 22.5 12.5Z" fill="#FAED19"/>
</g>
<defs>
<clipPath id="clip0_25_252">
<rect width="24" height="24" fill="white" transform="matrix(0 1 -1 0 24.5 0.5)"/>
</clipPath>
</defs>
</svg>
