<svg width="561" height="221" viewBox="0 0 561 221" fill="none" xmlns="http://www.w3.org/2000/svg">
<path d="M1.36343 120.39L4.72343 103.59H13.6274C15.6274 103.59 17.1314 103.942 18.1394 104.646C19.1474 105.334 19.6514 106.318 19.6514 107.598C19.6514 108.638 19.3474 109.518 18.7394 110.238C18.1474 110.958 17.3234 111.51 16.2674 111.894C15.2274 112.262 14.0274 112.446 12.6674 112.446L13.3874 111.15C15.0994 111.15 16.4434 111.494 17.4194 112.182C18.4114 112.854 18.9074 113.806 18.9074 115.038C18.9074 116.27 18.5474 117.286 17.8274 118.086C17.1234 118.87 16.1794 119.454 14.9954 119.838C13.8114 120.206 12.4994 120.39 11.0594 120.39H1.36343ZM7.72343 116.43H11.3714C11.9314 116.43 12.3874 116.302 12.7394 116.046C13.1074 115.79 13.2914 115.406 13.2914 114.894C13.2914 114.526 13.1474 114.254 12.8594 114.078C12.5874 113.886 12.2674 113.79 11.8994 113.79H7.86743L8.61143 110.046H11.8754C12.3074 110.046 12.6594 109.99 12.9314 109.878C13.2194 109.75 13.4274 109.582 13.5554 109.374C13.6834 109.15 13.7474 108.886 13.7474 108.582C13.7474 108.23 13.6114 107.974 13.3394 107.814C13.0834 107.638 12.7234 107.55 12.2594 107.55H9.49943L7.72343 116.43ZM31.4219 108.75C35.1499 108.75 37.0139 110.294 37.0139 113.382C37.0139 114.79 36.6619 116.022 35.9579 117.078C35.2539 118.118 34.2539 118.934 32.9579 119.526C31.6779 120.102 30.1739 120.39 28.4459 120.39H20.0459L23.4059 103.59H28.9739L27.9419 108.75H31.4219ZM28.7819 116.43C29.2459 116.43 29.6619 116.326 30.0299 116.118C30.3979 115.91 30.6859 115.622 30.8939 115.254C31.1019 114.886 31.2059 114.478 31.2059 114.03C31.2059 113.566 31.0779 113.23 30.8219 113.022C30.5819 112.814 30.1899 112.71 29.6459 112.71H27.1499L26.4059 116.43H28.7819ZM37.5419 120.39L40.9019 103.59H46.5659L43.2059 120.39H37.5419ZM46.0616 120.39L49.4216 103.59H54.9896L53.1896 112.326L60.7016 103.59H66.1016L62.7416 120.39H57.1736L58.9976 111.678L51.4856 120.39H46.0616ZM65.7256 120.39L69.0856 103.59H81.8776L81.0136 107.982H72.4936L73.9576 106.758L71.2936 120.39H65.7256ZM80.2775 120.39L83.6375 103.59H91.1015C93.3575 103.59 95.0935 104.078 96.3095 105.054C97.5415 106.03 98.1575 107.398 98.1575 109.158C98.1575 110.566 97.8055 111.806 97.1015 112.878C96.4135 113.95 95.4295 114.782 94.1495 115.374C92.8855 115.966 91.3895 116.262 89.6615 116.262H84.2375L87.2615 113.79L85.9415 120.39H80.2775ZM87.1175 114.462L85.1255 111.894H89.9495C90.7335 111.894 91.3415 111.702 91.7735 111.318C92.2055 110.918 92.4215 110.366 92.4215 109.662C92.4215 109.054 92.2295 108.622 91.8455 108.366C91.4775 108.094 90.9655 107.958 90.3095 107.958H85.9175L88.9415 105.318L87.1175 114.462ZM95.7393 120.39L106.443 103.59H112.011L115.995 120.39H110.355L107.643 106.206H109.851L101.715 120.39H95.7393ZM100.683 117.462L102.939 113.382H110.667L111.291 117.462H100.683ZM117.546 120.39L120.906 103.59H126.474L124.674 112.326L132.186 103.59H137.586L134.226 120.39H128.658L130.482 111.678L122.97 120.39H117.546ZM129.474 102.726C127.682 102.726 126.402 102.382 125.634 101.694C124.866 101.006 124.586 99.9496 124.794 98.5256H128.298C128.218 99.0696 128.298 99.4696 128.538 99.7256C128.794 99.9816 129.194 100.11 129.738 100.11C130.282 100.11 130.698 99.9896 130.986 99.7496C131.29 99.4936 131.482 99.0856 131.562 98.5256H135.162C134.938 99.9976 134.37 101.07 133.458 101.742C132.562 102.398 131.234 102.726 129.474 102.726ZM144.405 120.39L147.765 103.59H164.013L160.653 120.39H155.085L157.749 106.782L158.733 107.982H151.173L152.637 106.782L149.973 120.39H144.405ZM172.888 120.774C171.144 120.774 169.632 120.454 168.352 119.814C167.088 119.174 166.104 118.294 165.4 117.174C164.712 116.038 164.368 114.734 164.368 113.262C164.368 111.774 164.624 110.422 165.136 109.206C165.664 107.974 166.4 106.91 167.344 106.014C168.288 105.118 169.408 104.43 170.704 103.95C172 103.454 173.416 103.206 174.952 103.206C176.696 103.206 178.2 103.526 179.464 104.166C180.744 104.806 181.728 105.694 182.416 106.83C183.12 107.95 183.472 109.246 183.472 110.718C183.472 112.206 183.208 113.566 182.68 114.798C182.168 116.014 181.44 117.07 180.496 117.966C179.552 118.862 178.432 119.558 177.136 120.054C175.84 120.534 174.424 120.774 172.888 120.774ZM173.368 116.19C174.072 116.19 174.688 116.054 175.216 115.782C175.76 115.51 176.224 115.134 176.608 114.654C176.992 114.174 177.28 113.63 177.472 113.022C177.664 112.398 177.76 111.742 177.76 111.054C177.76 110.398 177.624 109.83 177.352 109.35C177.096 108.854 176.72 108.47 176.224 108.198C175.744 107.926 175.16 107.79 174.472 107.79C173.784 107.79 173.168 107.926 172.624 108.198C172.08 108.47 171.616 108.846 171.232 109.326C170.848 109.806 170.56 110.358 170.368 110.982C170.176 111.59 170.08 112.238 170.08 112.926C170.08 113.566 170.208 114.134 170.464 114.63C170.736 115.126 171.112 115.51 171.592 115.782C172.088 116.054 172.68 116.19 173.368 116.19ZM191.1 109.83H198.588L197.772 113.91H190.284L191.1 109.83ZM190.212 116.118H198.636L197.772 120.39H183.804L187.164 103.59H200.82L199.956 107.862H191.868L190.212 116.118ZM211.589 117.99L213.605 107.982H209.741L209.405 109.398C209.197 110.278 208.981 111.102 208.757 111.87C208.549 112.622 208.317 113.318 208.061 113.958C207.821 114.582 207.549 115.142 207.245 115.638C206.957 116.118 206.629 116.518 206.261 116.838L200.141 115.998C200.669 115.998 201.149 115.814 201.581 115.446C202.029 115.062 202.429 114.534 202.781 113.862C203.149 113.174 203.485 112.374 203.789 111.462C204.109 110.55 204.397 109.558 204.653 108.486L205.829 103.59H220.037L217.157 117.99H211.589ZM198.317 123.678L199.853 115.998H219.773L218.237 123.678H213.053L213.701 120.39H204.149L203.501 123.678H198.317ZM220.788 120.39L224.148 103.59H229.716L227.916 112.326L235.428 103.59H240.828L237.468 120.39H231.9L233.724 111.678L226.212 120.39H220.788ZM254.708 103.59H260.372L257.012 120.39H251.348L254.708 103.59ZM246.116 120.39H240.452L243.812 103.59H249.476L246.116 120.39ZM252.956 114.198H246.98L247.916 109.542H253.892L252.956 114.198ZM269.263 120.774C267.519 120.774 266.007 120.454 264.727 119.814C263.463 119.174 262.479 118.294 261.775 117.174C261.087 116.038 260.743 114.734 260.743 113.262C260.743 111.774 260.999 110.422 261.511 109.206C262.039 107.974 262.775 106.91 263.719 106.014C264.663 105.118 265.783 104.43 267.079 103.95C268.375 103.454 269.791 103.206 271.327 103.206C273.071 103.206 274.575 103.526 275.839 104.166C277.119 104.806 278.103 105.694 278.791 106.83C279.495 107.95 279.847 109.246 279.847 110.718C279.847 112.206 279.583 113.566 279.055 114.798C278.543 116.014 277.815 117.07 276.871 117.966C275.927 118.862 274.807 119.558 273.511 120.054C272.215 120.534 270.799 120.774 269.263 120.774ZM269.743 116.19C270.447 116.19 271.063 116.054 271.591 115.782C272.135 115.51 272.599 115.134 272.983 114.654C273.367 114.174 273.655 113.63 273.847 113.022C274.039 112.398 274.135 111.742 274.135 111.054C274.135 110.398 273.999 109.83 273.727 109.35C273.471 108.854 273.095 108.47 272.599 108.198C272.119 107.926 271.535 107.79 270.847 107.79C270.159 107.79 269.543 107.926 268.999 108.198C268.455 108.47 267.991 108.846 267.607 109.326C267.223 109.806 266.935 110.358 266.743 110.982C266.551 111.59 266.455 112.238 266.455 112.926C266.455 113.566 266.583 114.134 266.839 114.63C267.111 115.126 267.487 115.51 267.967 115.782C268.463 116.054 269.055 116.19 269.743 116.19ZM280.179 120.39L283.539 103.59H289.203L285.843 120.39H280.179ZM285.435 114.318L286.323 109.854H292.683L291.795 114.318H285.435ZM290.955 120.39L288.315 112.518L292.971 109.878L296.955 120.39H290.955ZM293.163 112.59L287.691 112.062L294.195 103.59H300.483L293.163 112.59ZM315.297 120.774C313.569 120.774 312.057 120.462 310.761 119.838C309.465 119.198 308.457 118.318 307.737 117.198C307.033 116.062 306.681 114.75 306.681 113.262C306.681 111.79 306.937 110.438 307.449 109.206C307.977 107.974 308.713 106.91 309.657 106.014C310.601 105.118 311.721 104.43 313.017 103.95C314.313 103.454 315.737 103.206 317.289 103.206C318.905 103.206 320.337 103.494 321.585 104.07C322.833 104.646 323.761 105.478 324.369 106.566L320.289 109.758C319.937 109.134 319.481 108.654 318.921 108.318C318.361 107.966 317.697 107.79 316.929 107.79C316.257 107.79 315.641 107.918 315.081 108.174C314.537 108.414 314.065 108.766 313.665 109.23C313.265 109.678 312.953 110.214 312.729 110.838C312.505 111.462 312.393 112.15 312.393 112.902C312.393 113.558 312.537 114.134 312.825 114.63C313.113 115.126 313.513 115.51 314.025 115.782C314.553 116.054 315.161 116.19 315.849 116.19C316.505 116.19 317.145 116.038 317.769 115.734C318.409 115.43 319.017 114.934 319.593 114.246L322.929 117.438C321.905 118.686 320.761 119.558 319.497 120.054C318.249 120.534 316.849 120.774 315.297 120.774ZM340.515 120.774C338.787 120.774 337.275 120.462 335.979 119.838C334.683 119.198 333.675 118.318 332.955 117.198C332.251 116.062 331.899 114.75 331.899 113.262C331.899 111.79 332.155 110.438 332.667 109.206C333.195 107.974 333.931 106.91 334.875 106.014C335.819 105.118 336.939 104.43 338.235 103.95C339.531 103.454 340.955 103.206 342.507 103.206C344.123 103.206 345.555 103.494 346.803 104.07C348.051 104.646 348.979 105.478 349.587 106.566L345.507 109.758C345.155 109.134 344.699 108.654 344.139 108.318C343.579 107.966 342.915 107.79 342.147 107.79C341.475 107.79 340.859 107.918 340.299 108.174C339.755 108.414 339.283 108.766 338.883 109.23C338.483 109.678 338.171 110.214 337.947 110.838C337.723 111.462 337.611 112.15 337.611 112.902C337.611 113.558 337.755 114.134 338.043 114.63C338.331 115.126 338.731 115.51 339.243 115.782C339.771 116.054 340.379 116.19 341.067 116.19C341.723 116.19 342.363 116.038 342.987 115.734C343.627 115.43 344.235 114.934 344.811 114.246L348.147 117.438C347.123 118.686 345.979 119.558 344.715 120.054C343.467 120.534 342.067 120.774 340.515 120.774ZM358.091 120.774C356.347 120.774 354.835 120.454 353.555 119.814C352.291 119.174 351.307 118.294 350.603 117.174C349.915 116.038 349.571 114.734 349.571 113.262C349.571 111.774 349.827 110.422 350.339 109.206C350.867 107.974 351.603 106.91 352.547 106.014C353.491 105.118 354.611 104.43 355.907 103.95C357.203 103.454 358.619 103.206 360.155 103.206C361.899 103.206 363.403 103.526 364.667 104.166C365.947 104.806 366.931 105.694 367.619 106.83C368.323 107.95 368.675 109.246 368.675 110.718C368.675 112.206 368.411 113.566 367.883 114.798C367.371 116.014 366.643 117.07 365.699 117.966C364.755 118.862 363.635 119.558 362.339 120.054C361.043 120.534 359.627 120.774 358.091 120.774ZM358.571 116.19C359.275 116.19 359.891 116.054 360.419 115.782C360.963 115.51 361.427 115.134 361.811 114.654C362.195 114.174 362.483 113.63 362.675 113.022C362.867 112.398 362.963 111.742 362.963 111.054C362.963 110.398 362.827 109.83 362.555 109.35C362.299 108.854 361.923 108.47 361.427 108.198C360.947 107.926 360.363 107.79 359.675 107.79C358.987 107.79 358.371 107.926 357.827 108.198C357.283 108.47 356.819 108.846 356.435 109.326C356.051 109.806 355.763 110.358 355.571 110.982C355.379 111.59 355.283 112.238 355.283 112.926C355.283 113.566 355.411 114.134 355.667 114.63C355.939 115.126 356.315 115.51 356.795 115.782C357.291 116.054 357.883 116.19 358.571 116.19ZM369.007 120.39L372.367 103.59H386.935L386.071 107.862H377.071L376.687 109.806H380.695C382.439 109.806 383.783 110.206 384.727 111.006C385.687 111.79 386.167 112.918 386.167 114.39C386.167 115.622 385.831 116.686 385.159 117.582C384.487 118.478 383.527 119.174 382.279 119.67C381.047 120.15 379.575 120.39 377.863 120.39H369.007ZM375.367 116.43H378.271C378.911 116.43 379.415 116.286 379.783 115.998C380.167 115.71 380.359 115.326 380.359 114.846C380.359 114.478 380.231 114.206 379.975 114.03C379.719 113.838 379.327 113.742 378.799 113.742H375.895L375.367 116.43ZM396.247 120.774C394.503 120.774 392.991 120.454 391.711 119.814C390.447 119.174 389.463 118.294 388.759 117.174C388.071 116.038 387.727 114.734 387.727 113.262C387.727 111.774 387.983 110.422 388.495 109.206C389.023 107.974 389.759 106.91 390.703 106.014C391.647 105.118 392.767 104.43 394.063 103.95C395.359 103.454 396.775 103.206 398.311 103.206C400.055 103.206 401.559 103.526 402.823 104.166C404.103 104.806 405.087 105.694 405.775 106.83C406.479 107.95 406.831 109.246 406.831 110.718C406.831 112.206 406.567 113.566 406.039 114.798C405.527 116.014 404.799 117.07 403.855 117.966C402.911 118.862 401.791 119.558 400.495 120.054C399.199 120.534 397.783 120.774 396.247 120.774ZM396.727 116.19C397.431 116.19 398.047 116.054 398.575 115.782C399.119 115.51 399.583 115.134 399.967 114.654C400.351 114.174 400.639 113.63 400.831 113.022C401.023 112.398 401.119 111.742 401.119 111.054C401.119 110.398 400.983 109.83 400.711 109.35C400.455 108.854 400.079 108.47 399.583 108.198C399.103 107.926 398.519 107.79 397.831 107.79C397.143 107.79 396.527 107.926 395.983 108.198C395.439 108.47 394.975 108.846 394.591 109.326C394.207 109.806 393.919 110.358 393.727 110.982C393.535 111.59 393.439 112.238 393.439 112.926C393.439 113.566 393.567 114.134 393.823 114.63C394.095 115.126 394.471 115.51 394.951 115.782C395.447 116.054 396.039 116.19 396.727 116.19ZM407.163 120.39L410.523 103.59H416.091L414.291 112.326L421.803 103.59H427.203L423.843 120.39H418.275L420.099 111.678L412.587 120.39H407.163ZM419.091 102.726C417.299 102.726 416.019 102.382 415.251 101.694C414.483 101.006 414.203 99.9496 414.411 98.5256H417.915C417.835 99.0696 417.915 99.4696 418.155 99.7256C418.411 99.9816 418.811 100.11 419.355 100.11C419.899 100.11 420.315 99.9896 420.603 99.7496C420.907 99.4936 421.099 99.0856 421.179 98.5256H424.779C424.555 99.9976 423.987 101.07 423.075 101.742C422.179 102.398 420.851 102.726 419.091 102.726Z" fill="white"/>
<g filter="url(#filter0_f_875_108)">
<path d="M453.304 101.762L440.988 101.256L434.498 107.31L447.901 107.86L439.895 113.706L450.98 114.162L444.505 119.853L458.317 112.212L448.971 111.827L458.627 104.669L449.716 104.303L453.304 101.762Z" stroke="white"/>
</g>
<path d="M453.304 101.762L440.988 101.256L434.498 107.31L447.901 107.86L439.895 113.706L450.98 114.162L444.505 119.853L458.317 112.212L448.971 111.827L458.627 104.669L449.716 104.303L453.304 101.762Z" fill="white"/>
<defs>
<filter id="filter0_f_875_108" x="333.282" y="0.748047" width="226.838" height="219.542" filterUnits="userSpaceOnUse" color-interpolation-filters="sRGB">
<feFlood flood-opacity="0" result="BackgroundImageFix"/>
<feBlend mode="normal" in="SourceGraphic" in2="BackgroundImageFix" result="shape"/>
<feGaussianBlur stdDeviation="50" result="effect1_foregroundBlur_875_108"/>
</filter>
</defs>
</svg>
