<svg width="480" height="182" viewBox="0 0 480 182" fill="none" xmlns="http://www.w3.org/2000/svg">
<path d="M6.17251 102.004L9.53251 85.2039L18.4365 85.2039C20.4365 85.2039 21.9405 85.5559 22.9485 86.2599C23.9565 86.9479 24.4605 87.9319 24.4605 89.2119C24.4605 90.2519 24.1565 91.1319 23.5485 91.8519C22.9565 92.5719 22.1325 93.1239 21.0765 93.5079C20.0365 93.8759 18.8365 94.0599 17.4765 94.0599L18.1965 92.7639C19.9085 92.7639 21.2525 93.1079 22.2285 93.7959C23.2205 94.4679 23.7165 95.4199 23.7165 96.6519C23.7165 97.8839 23.3565 98.8999 22.6365 99.6999C21.9325 100.484 20.9885 101.068 19.8045 101.452C18.6205 101.82 17.3085 102.004 15.8685 102.004L6.17251 102.004ZM12.5325 98.0439L16.1805 98.0439C16.7405 98.0439 17.1965 97.9159 17.5485 97.6599C17.9165 97.4039 18.1005 97.0199 18.1005 96.5079C18.1005 96.1399 17.9565 95.8679 17.6685 95.6919C17.3965 95.4999 17.0765 95.4039 16.7085 95.4039L12.6765 95.4039L13.4205 91.6599L16.6845 91.6599C17.1165 91.6599 17.4685 91.6039 17.7405 91.4919C18.0285 91.3639 18.2365 91.1959 18.3645 90.9879C18.4925 90.7639 18.5565 90.4999 18.5565 90.1959C18.5565 89.8439 18.4205 89.5879 18.1485 89.4279C17.8925 89.2519 17.5325 89.1639 17.0685 89.1639L14.3085 89.1639L12.5325 98.0439ZM36.231 90.3639C39.959 90.3639 41.823 91.9079 41.823 94.9959C41.823 96.4039 41.471 97.6359 40.767 98.6919C40.063 99.7319 39.063 100.548 37.767 101.14C36.487 101.716 34.983 102.004 33.255 102.004L24.855 102.004L28.215 85.2039L33.783 85.2039L32.751 90.3639L36.231 90.3639ZM33.591 98.0439C34.055 98.0439 34.471 97.9399 34.839 97.7319C35.207 97.5239 35.495 97.2359 35.703 96.8679C35.911 96.4999 36.015 96.0919 36.015 95.6439C36.015 95.1799 35.887 94.8439 35.631 94.6359C35.391 94.4279 34.999 94.3239 34.455 94.3239L31.959 94.3239L31.215 98.0439L33.591 98.0439ZM42.351 102.004L45.711 85.2039L51.375 85.2039L48.015 102.004L42.351 102.004ZM50.8706 102.004L54.2306 85.2039L59.7986 85.2039L57.9986 93.9399L65.5106 85.2039L70.9106 85.2039L67.5506 102.004L61.9826 102.004L63.8066 93.2919L56.2946 102.004L50.8706 102.004ZM70.5347 102.004L73.8947 85.2039L86.6867 85.2039L85.8227 89.5959L77.3027 89.5959L78.7667 88.3719L76.1027 102.004L70.5347 102.004ZM85.0866 102.004L88.4466 85.2039L95.9106 85.2039C98.1666 85.2039 99.9026 85.6919 101.119 86.6679C102.351 87.6439 102.967 89.0119 102.967 90.7719C102.967 92.1799 102.615 93.4199 101.911 94.4919C101.223 95.5639 100.239 96.3959 98.9586 96.9879C97.6946 97.5799 96.1986 97.8759 94.4706 97.8759L89.0466 97.8759L92.0706 95.4039L90.7506 102.004L85.0866 102.004ZM91.9266 96.0759L89.9346 93.5079L94.7586 93.5079C95.5426 93.5079 96.1506 93.3159 96.5826 92.9319C97.0146 92.5319 97.2306 91.9799 97.2306 91.2759C97.2306 90.6679 97.0386 90.2359 96.6546 89.9799C96.2866 89.7079 95.7746 89.5719 95.1186 89.5719L90.7266 89.5719L93.7506 86.9319L91.9266 96.0759ZM100.548 102.004L111.252 85.2039L116.82 85.2039L120.804 102.004L115.164 102.004L112.452 87.8199L114.66 87.8199L106.524 102.004L100.548 102.004ZM105.492 99.0759L107.748 94.9959L115.476 94.9959L116.1 99.0759L105.492 99.0759ZM122.355 102.004L125.715 85.2039L131.283 85.2039L129.483 93.9399L136.995 85.2039L142.395 85.2039L139.035 102.004L133.467 102.004L135.291 93.2919L127.779 102.004L122.355 102.004ZM134.283 84.3399C132.491 84.3399 131.211 83.9959 130.443 83.3079C129.675 82.6199 129.395 81.5639 129.603 80.1399L133.107 80.1399C133.027 80.6839 133.107 81.0839 133.347 81.3399C133.603 81.5959 134.003 81.7239 134.547 81.7239C135.091 81.7239 135.507 81.6039 135.795 81.3639C136.099 81.1079 136.291 80.6999 136.371 80.1399L139.971 80.1399C139.747 81.6119 139.179 82.6839 138.267 83.3559C137.371 84.0119 136.043 84.3399 134.283 84.3399ZM149.214 102.004L152.574 85.2039L168.822 85.2039L165.462 102.004L159.894 102.004L162.558 88.3959L163.542 89.5959L155.982 89.5959L157.446 88.3959L154.782 102.004L149.214 102.004ZM177.697 102.388C175.953 102.388 174.441 102.068 173.161 101.428C171.897 100.788 170.913 99.9079 170.209 98.7879C169.521 97.6519 169.177 96.3479 169.177 94.8759C169.177 93.3879 169.433 92.0359 169.945 90.8199C170.473 89.5879 171.209 88.5239 172.153 87.6279C173.097 86.7319 174.217 86.0439 175.513 85.5639C176.809 85.0679 178.225 84.8199 179.761 84.8199C181.505 84.8199 183.009 85.1399 184.273 85.7799C185.553 86.4199 186.537 87.3079 187.225 88.4439C187.929 89.5639 188.281 90.8599 188.281 92.3319C188.281 93.8199 188.017 95.1799 187.489 96.4119C186.977 97.6279 186.249 98.6839 185.305 99.5799C184.361 100.476 183.241 101.172 181.945 101.668C180.649 102.148 179.233 102.388 177.697 102.388ZM178.177 97.8039C178.881 97.8039 179.497 97.6679 180.025 97.3959C180.569 97.1239 181.033 96.7479 181.417 96.2679C181.801 95.7879 182.089 95.2439 182.281 94.6359C182.473 94.0119 182.569 93.3559 182.569 92.6679C182.569 92.0119 182.433 91.4439 182.161 90.9639C181.905 90.4679 181.529 90.0839 181.033 89.8119C180.553 89.5399 179.969 89.4039 179.281 89.4039C178.593 89.4039 177.977 89.5399 177.433 89.8119C176.889 90.0839 176.425 90.4599 176.041 90.9399C175.657 91.4199 175.369 91.9719 175.177 92.5959C174.985 93.2039 174.889 93.8519 174.889 94.5399C174.889 95.1799 175.017 95.7479 175.273 96.2439C175.545 96.7399 175.921 97.1239 176.401 97.3959C176.897 97.6679 177.489 97.8039 178.177 97.8039ZM195.909 91.4439L203.397 91.4439L202.581 95.5239L195.093 95.5239L195.909 91.4439ZM195.021 97.7319L203.445 97.7319L202.581 102.004L188.613 102.004L191.973 85.2039L205.629 85.2039L204.765 89.4759L196.677 89.4759L195.021 97.7319ZM216.398 99.6039L218.414 89.5959L214.55 89.5959L214.214 91.0119C214.006 91.8919 213.79 92.7159 213.566 93.4839C213.358 94.2359 213.126 94.9319 212.87 95.5719C212.63 96.1959 212.358 96.7559 212.054 97.2519C211.766 97.7319 211.438 98.1319 211.07 98.4519L204.95 97.6119C205.478 97.6119 205.958 97.4279 206.39 97.0599C206.838 96.6759 207.238 96.1479 207.59 95.4759C207.958 94.7879 208.294 93.9879 208.598 93.0759C208.918 92.1639 209.206 91.1719 209.462 90.0999L210.638 85.2039L224.846 85.2039L221.966 99.6039L216.398 99.6039ZM203.126 105.292L204.662 97.6119L224.582 97.6119L223.046 105.292L217.862 105.292L218.51 102.004L208.958 102.004L208.31 105.292L203.126 105.292ZM225.597 102.004L228.957 85.2039L234.525 85.2039L232.725 93.9399L240.237 85.2039L245.637 85.2039L242.277 102.004L236.709 102.004L238.533 93.2919L231.021 102.004L225.597 102.004ZM259.517 85.2039L265.181 85.2039L261.821 102.004L256.157 102.004L259.517 85.2039ZM250.925 102.004L245.261 102.004L248.621 85.2039L254.285 85.2039L250.925 102.004ZM257.765 95.8119L251.789 95.8119L252.725 91.1559L258.701 91.1559L257.765 95.8119ZM274.072 102.388C272.328 102.388 270.816 102.068 269.536 101.428C268.272 100.788 267.288 99.9079 266.584 98.7879C265.896 97.6519 265.552 96.3479 265.552 94.8759C265.552 93.3879 265.808 92.0359 266.32 90.8199C266.848 89.5879 267.584 88.5239 268.528 87.6279C269.472 86.7319 270.592 86.0439 271.888 85.5639C273.184 85.0679 274.6 84.8199 276.136 84.8199C277.88 84.8199 279.384 85.1399 280.648 85.7799C281.928 86.4199 282.912 87.3079 283.6 88.4439C284.304 89.5639 284.656 90.8599 284.656 92.3319C284.656 93.8199 284.392 95.1799 283.864 96.4119C283.352 97.6279 282.624 98.6839 281.68 99.5799C280.736 100.476 279.616 101.172 278.32 101.668C277.024 102.148 275.608 102.388 274.072 102.388ZM274.552 97.8039C275.256 97.8039 275.872 97.6679 276.4 97.3959C276.944 97.1239 277.408 96.7479 277.792 96.2679C278.176 95.7879 278.464 95.2439 278.656 94.6359C278.848 94.0119 278.944 93.3559 278.944 92.6679C278.944 92.0119 278.808 91.4439 278.536 90.9639C278.28 90.4679 277.904 90.0839 277.408 89.8119C276.928 89.5399 276.344 89.4039 275.656 89.4039C274.968 89.4039 274.352 89.5399 273.808 89.8119C273.264 90.0839 272.8 90.4599 272.416 90.9399C272.032 91.4199 271.744 91.9719 271.552 92.5959C271.36 93.2039 271.264 93.8519 271.264 94.5399C271.264 95.1799 271.392 95.7479 271.648 96.2439C271.92 96.7399 272.296 97.1239 272.776 97.3959C273.272 97.6679 273.864 97.8039 274.552 97.8039ZM284.988 102.004L288.348 85.2039L294.012 85.2039L290.652 102.004L284.988 102.004ZM290.244 95.9319L291.132 91.4679L297.492 91.4679L296.604 95.9319L290.244 95.9319ZM295.764 102.004L293.124 94.1319L297.78 91.4919L301.764 102.004L295.764 102.004ZM297.972 94.2039L292.5 93.6759L299.004 85.2039L305.292 85.2039L297.972 94.2039ZM320.106 102.388C318.378 102.388 316.866 102.076 315.57 101.452C314.274 100.812 313.266 99.9319 312.546 98.8119C311.842 97.6759 311.49 96.3639 311.49 94.8759C311.49 93.4039 311.746 92.0519 312.258 90.8199C312.786 89.5879 313.522 88.5239 314.466 87.6279C315.41 86.7319 316.53 86.0439 317.826 85.5639C319.122 85.0679 320.546 84.8199 322.098 84.8199C323.714 84.8199 325.146 85.1079 326.394 85.6839C327.642 86.2599 328.57 87.0919 329.178 88.1799L325.098 91.3719C324.746 90.7479 324.29 90.2679 323.73 89.9319C323.17 89.5799 322.506 89.4039 321.738 89.4039C321.066 89.4039 320.45 89.5319 319.89 89.7879C319.346 90.0279 318.874 90.3799 318.474 90.8439C318.074 91.2919 317.762 91.8279 317.538 92.4519C317.314 93.0759 317.202 93.7639 317.202 94.5159C317.202 95.1719 317.346 95.7479 317.634 96.2439C317.922 96.7399 318.322 97.1239 318.834 97.3959C319.362 97.6679 319.97 97.8039 320.658 97.8039C321.314 97.8039 321.954 97.6519 322.578 97.3479C323.218 97.0439 323.826 96.5479 324.402 95.8599L327.738 99.0519C326.714 100.3 325.57 101.172 324.306 101.668C323.058 102.148 321.658 102.388 320.106 102.388ZM345.324 102.388C343.596 102.388 342.084 102.076 340.788 101.452C339.492 100.812 338.484 99.9319 337.764 98.8119C337.06 97.6759 336.708 96.3639 336.708 94.8759C336.708 93.4039 336.964 92.0519 337.476 90.8199C338.004 89.5879 338.74 88.5239 339.684 87.6279C340.628 86.7319 341.748 86.0439 343.044 85.5639C344.34 85.0679 345.764 84.8199 347.316 84.8199C348.932 84.8199 350.364 85.1079 351.612 85.6839C352.86 86.2599 353.788 87.0919 354.396 88.1799L350.316 91.3719C349.964 90.7479 349.508 90.2679 348.948 89.9319C348.388 89.5799 347.724 89.4039 346.956 89.4039C346.284 89.4039 345.668 89.5319 345.108 89.7879C344.564 90.0279 344.092 90.3799 343.692 90.8439C343.292 91.2919 342.98 91.8279 342.756 92.4519C342.532 93.0759 342.42 93.7639 342.42 94.5159C342.42 95.1719 342.564 95.7479 342.852 96.2439C343.14 96.7399 343.54 97.1239 344.052 97.3959C344.58 97.6679 345.188 97.8039 345.876 97.8039C346.532 97.8039 347.172 97.6519 347.796 97.3479C348.436 97.0439 349.044 96.5479 349.62 95.8599L352.956 99.0519C351.932 100.3 350.788 101.172 349.524 101.668C348.276 102.148 346.876 102.388 345.324 102.388ZM362.9 102.388C361.156 102.388 359.644 102.068 358.364 101.428C357.1 100.788 356.116 99.9079 355.412 98.7879C354.724 97.6519 354.38 96.3479 354.38 94.8759C354.38 93.3879 354.636 92.0359 355.148 90.8199C355.676 89.5879 356.412 88.5239 357.356 87.6279C358.3 86.7319 359.42 86.0439 360.716 85.5639C362.012 85.0679 363.428 84.8199 364.964 84.8199C366.708 84.8199 368.212 85.1399 369.476 85.7799C370.756 86.4199 371.74 87.3079 372.428 88.4439C373.132 89.5639 373.484 90.8599 373.484 92.3319C373.484 93.8199 373.22 95.1799 372.692 96.4119C372.18 97.6279 371.452 98.6839 370.508 99.5799C369.564 100.476 368.444 101.172 367.148 101.668C365.852 102.148 364.436 102.388 362.9 102.388ZM363.38 97.8039C364.084 97.8039 364.7 97.6679 365.228 97.3959C365.772 97.1239 366.236 96.7479 366.62 96.2679C367.004 95.7879 367.292 95.2439 367.484 94.6359C367.676 94.0119 367.772 93.3559 367.772 92.6679C367.772 92.0119 367.636 91.4439 367.364 90.9639C367.108 90.4679 366.732 90.0839 366.236 89.8119C365.756 89.5399 365.172 89.4039 364.484 89.4039C363.796 89.4039 363.18 89.5399 362.636 89.8119C362.092 90.0839 361.628 90.4599 361.244 90.9399C360.86 91.4199 360.572 91.9719 360.38 92.5959C360.188 93.2039 360.092 93.8519 360.092 94.5399C360.092 95.1799 360.22 95.7479 360.476 96.2439C360.748 96.7399 361.124 97.1239 361.604 97.3959C362.1 97.6679 362.692 97.8039 363.38 97.8039ZM373.816 102.004L377.176 85.2039L391.744 85.2039L390.88 89.4759L381.88 89.4759L381.496 91.4199L385.504 91.4199C387.248 91.4199 388.592 91.8199 389.536 92.6199C390.496 93.4039 390.976 94.5319 390.976 96.0039C390.976 97.2359 390.64 98.2999 389.968 99.1959C389.296 100.092 388.336 100.788 387.088 101.284C385.856 101.764 384.384 102.004 382.672 102.004L373.816 102.004ZM380.176 98.0439L383.08 98.0439C383.72 98.0439 384.224 97.8999 384.592 97.6119C384.976 97.3239 385.168 96.9399 385.168 96.4599C385.168 96.0919 385.04 95.8199 384.784 95.6439C384.528 95.4519 384.136 95.3559 383.608 95.3559L380.704 95.3559L380.176 98.0439ZM401.056 102.388C399.312 102.388 397.8 102.068 396.52 101.428C395.256 100.788 394.272 99.9079 393.568 98.7879C392.88 97.6519 392.536 96.3479 392.536 94.8759C392.536 93.3879 392.792 92.0359 393.304 90.8199C393.832 89.5879 394.568 88.5239 395.512 87.6279C396.456 86.7319 397.576 86.0439 398.872 85.5639C400.168 85.0679 401.584 84.8199 403.12 84.8199C404.864 84.8199 406.368 85.1399 407.632 85.7799C408.912 86.4199 409.896 87.3079 410.584 88.4439C411.288 89.5639 411.64 90.8599 411.64 92.3319C411.64 93.8199 411.376 95.1799 410.848 96.4119C410.336 97.6279 409.608 98.6839 408.664 99.5799C407.72 100.476 406.6 101.172 405.304 101.668C404.008 102.148 402.592 102.388 401.056 102.388ZM401.536 97.8039C402.24 97.8039 402.856 97.6679 403.384 97.3959C403.928 97.1239 404.392 96.7479 404.776 96.2679C405.16 95.7879 405.448 95.2439 405.64 94.6359C405.832 94.0119 405.928 93.3559 405.928 92.6679C405.928 92.0119 405.792 91.4439 405.52 90.9639C405.264 90.4679 404.888 90.0839 404.392 89.8119C403.912 89.5399 403.328 89.4039 402.64 89.4039C401.952 89.4039 401.336 89.5399 400.792 89.8119C400.248 90.0839 399.784 90.4599 399.4 90.9399C399.016 91.4199 398.728 91.9719 398.536 92.5959C398.344 93.2039 398.248 93.8519 398.248 94.5399C398.248 95.1799 398.376 95.7479 398.632 96.2439C398.904 96.7399 399.28 97.1239 399.76 97.3959C400.256 97.6679 400.848 97.8039 401.536 97.8039ZM411.972 102.004L415.332 85.2039L420.9 85.2039L419.1 93.9399L426.612 85.2039L432.012 85.2039L428.652 102.004L423.084 102.004L424.908 93.2919L417.396 102.004L411.972 102.004ZM423.9 84.3399C422.108 84.3399 420.828 83.9959 420.06 83.3079C419.292 82.6199 419.012 81.5639 419.22 80.1399L422.724 80.1399C422.644 80.6839 422.724 81.0839 422.964 81.3399C423.22 81.5959 423.62 81.7239 424.164 81.7239C424.708 81.7239 425.124 81.6039 425.412 81.3639C425.716 81.1079 425.908 80.6999 425.988 80.1399L429.588 80.1399C429.364 81.6119 428.796 82.6839 427.884 83.3559C426.988 84.0119 425.66 84.3399 423.9 84.3399Z" fill="black"/>
<path d="M470.562 84L458.236 84L452 90.3149L465.414 90.3149L457.656 96.4846L468.749 96.4846L462.514 102.436L476 94.2344L466.647 94.2344L476 86.6856L467.082 86.6856L470.562 84Z" fill="black"/>
</svg>
