<svg width="15" height="25" viewBox="0 0 15 25" fill="none" xmlns="http://www.w3.org/2000/svg">
<path d="M6.472 20.4157C6.962 20.0277 7.18 20.1387 7.618 20.4157C7.623 20.4207 12.049 23.6238 13.55 23.9538L13.551 23.9558C14.098 24.1198 14.5 23.9558 14.5 23.1628V20.5387C14.5 19.8707 14.155 19.5627 13.769 19.3977C13.769 19.3977 10.571 18.0616 8.498 16.1715C7.899 15.5615 7.707 15.2795 7.707 14.9465C7.707 14.7825 7.899 14.5275 8.446 14.5275H13.551C14.207 14.5275 14.5 14.3405 14.5 13.7875V9.66132C14.5 9.2423 14.194 8.99329 13.909 8.99329C13.287 8.99329 13.144 9.93833 11.394 10.0363H7.597C6.765 10.0363 6.612 9.88533 6.612 9.55031C6.612 8.65828 9.823 6.49321 13.498 5.21016C14.211 4.95115 14.499 4.69815 14.499 4.02512V1.40003C14.499 0.651005 14.154 0.5 13.768 0.5C13.086 0.5 9.695 1.39203 5.215 4.64814C2.157 6.81822 0.5 9.87433 0.5 12.6544C0.5 14.3255 0.867999 14.5295 1.501 14.5295C4.423 14.5295 4.699 14.3785 4.699 15.2155C4.699 15.6035 4.507 16.2715 3.032 17.8316C1.283 19.6147 0.5 19.9077 0.5 20.9057V23.5298C0.5 24.2778 0.868 24.6568 1.594 24.4388C3.121 23.9398 6.262 20.5677 6.472 20.4157Z" fill="#FAED19"/>
</svg>
