<svg width="25" height="25" viewBox="0 0 25 25" fill="none" xmlns="http://www.w3.org/2000/svg">
<g clip-path="url(#clip0_25_229)">
<path d="M6.006 7.75301L5.583 8.47701C4.87093 9.69795 4.4971 11.0866 4.5 12.5C4.5 14.0823 4.96919 15.629 5.84824 16.9446C6.72729 18.2602 7.97672 19.2855 9.43853 19.8911C10.9003 20.4966 12.5089 20.655 14.0607 20.3463C15.6126 20.0376 17.038 19.2757 18.1569 18.1569C19.2757 17.038 20.0376 15.6126 20.3463 14.0607C20.655 12.5089 20.4965 10.9004 19.891 9.43855C19.2855 7.97674 18.2602 6.72731 16.9446 5.84826C15.629 4.96921 14.0823 4.50001 12.5 4.50001C11.064 4.50001 9.687 4.87701 8.476 5.58401L7.752 6.00601L5.351 5.35301L6.006 7.75301ZM2.5 2.50401L7.468 3.85601C8.99514 2.96515 10.732 2.49711 12.5 2.50001C18.023 2.50001 22.5 6.97701 22.5 12.5C22.5 18.023 18.023 22.5 12.5 22.5C6.977 22.5 2.5 18.023 2.5 12.5C2.49715 10.7328 2.96483 8.99667 3.855 7.47001L2.5 2.50401ZM17.192 8.89101C17.202 9.02501 17.202 9.16001 17.196 9.29401C17.192 9.34801 17.186 9.40201 17.18 9.45601C17.162 9.61501 17.065 9.79001 16.931 9.84901C16.255 10.147 15.574 10.437 14.891 10.717C14.739 10.779 14.544 10.742 14.354 10.624C14.2255 10.5429 14.1014 10.4551 13.982 10.361C13.837 10.248 13.571 10.005 13.571 10.005C13.571 10.005 13.453 9.90601 13.306 9.94401C13.25 9.95801 13.169 10.004 13.101 10.046L13.006 10.105C12.579 10.361 12.146 10.705 11.738 11.125C11.622 11.245 11.503 11.362 11.392 11.488C10.979 11.956 10.642 12.486 10.392 13.058L10.39 13.063C10.353 13.148 10.333 13.191 10.28 13.315C10.254 13.377 10.231 13.441 10.214 13.506C10.1969 13.5732 10.2001 13.6439 10.2233 13.7093C10.2464 13.7746 10.2884 13.8316 10.344 13.873C11.221 14.597 11.278 14.663 11.278 14.669H11.276C11.3229 14.7193 11.3585 14.7791 11.3804 14.8443C11.4023 14.9095 11.41 14.9786 11.403 15.047C11.399 15.107 11.388 15.168 11.363 15.224C11.12 15.755 10.741 16.624 10.741 16.624L10.48 17.206C10.433 17.304 10.322 17.393 10.215 17.396C10.148 17.4 10.04 17.406 9.842 17.383C9.583 17.351 9.272 17.273 9.109 17.195C8.99776 17.1416 8.8958 17.0707 8.807 16.985C8.70105 16.8841 8.60464 16.7736 8.519 16.655C8.48814 16.614 8.45813 16.5723 8.429 16.53C8.35009 16.4056 8.27668 16.2778 8.209 16.147C8.07224 15.8895 7.99372 15.6052 7.979 15.314C7.969 15.129 7.955 14.944 7.965 14.758C7.965 14.75 8.052 14.19 8.052 14.19C8.42596 12.7683 9.12654 11.4534 10.098 10.35C10.297 10.124 10.511 9.91501 10.724 9.70101C11.609 8.81101 12.564 8.13901 13.466 7.73101C13.9087 7.52218 14.3906 7.40938 14.88 7.40001C15.4871 7.39589 16.0783 7.59436 16.56 7.96401C16.654 8.03701 16.752 8.10601 16.865 8.22501C16.985 8.35201 17.049 8.43201 17.093 8.51901C17.151 8.63469 17.185 8.76088 17.193 8.89001L17.192 8.89101Z" fill="#FAED19"/>
</g>
<defs>
<clipPath id="clip0_25_229">
<rect width="24" height="24" fill="white" transform="matrix(0 1 -1 0 24.5 0.5)"/>
</clipPath>
</defs>
</svg>
