<svg width="155" height="111" viewBox="0 0 155 111" fill="none" xmlns="http://www.w3.org/2000/svg">
<path id="Vector" fill-rule="evenodd" clip-rule="evenodd" d="M89.7717 1.29385C88.9332 1.74999 85.601 3.48589 82.3668 5.15105C79.1326 6.81644 76.4546 8.20481 76.4159 8.23634C76.3377 8.30006 77.3925 8.87534 85.5775 13.2329C88.661 14.8747 91.2337 16.2179 91.2945 16.2179C91.3553 16.2179 91.4051 15.2207 91.4051 14.002V11.7861L93.5286 11.9326C113.041 13.2783 127.125 15.5993 138.001 19.2612C144.135 21.3268 147.714 23.1611 150.01 25.4153C151.811 27.1847 152.018 27.8456 151.204 29.2414C149.917 31.4497 145.875 33.8355 139.646 36.0635C138.208 36.5774 137.148 37.0033 137.288 37.0099C137.879 37.0368 143.546 34.9101 145.965 33.7534C150.748 31.4663 153.362 29.3597 154.455 26.9108C155.519 24.5264 155.043 22.4912 152.869 20.1301C146.449 13.1578 124.406 7.33784 97.7581 5.57983C94.8029 5.38493 92.1681 5.18478 91.9026 5.13529C91.4454 5.04989 91.4165 4.92331 91.3581 2.75448L91.2962 0.464111L89.7717 1.29385ZM64.9435 4.97477C48.9496 5.7248 37.2627 7.09017 26.0662 9.51696C7.30614 13.5833 -2.43501 20.1266 0.794832 26.4921C2.28322 29.4256 6.77952 32.4581 13.3178 34.9385C16.8031 36.2608 17.0569 36.185 13.6876 34.8282C7.34077 32.2722 3.54815 29.4479 3.54815 27.2778C3.54815 24.9375 8.8163 21.5095 16.2706 18.999C27.5858 15.1885 43.6877 12.6745 62.3845 11.7994L68.1015 11.5318V8.18137V4.83068L67.1759 4.87207C66.6669 4.89484 65.6622 4.94105 64.9435 4.97477ZM133.834 73.7416C133.991 73.8049 134.179 73.797 134.251 73.7243C134.323 73.6516 134.195 73.6 133.965 73.6094C133.712 73.6199 133.66 73.6718 133.834 73.7416ZM14.307 75.0943C6.92435 77.7064 2.47509 80.4923 0.618422 83.6654C-0.192633 85.0511 -0.207876 87.444 0.584013 89.0032C1.29946 90.4119 3.7764 92.7045 6.03489 94.0484C15.5968 99.7378 36.0494 104.211 58.7365 105.575C61.0723 105.716 63.1114 105.868 63.268 105.914C63.4821 105.977 63.5425 106.555 63.5113 108.245C63.4884 109.48 63.5381 110.479 63.6217 110.464C63.98 110.4 78.3375 102.867 78.3364 102.744C78.3355 102.63 64.3507 95.0896 63.7332 94.8702C63.6135 94.8275 63.5279 95.7168 63.5279 97.0053C63.5279 98.6267 63.4556 99.2129 63.2556 99.2114C62.2967 99.2048 53.0569 98.4949 50.3515 98.2198C28.2692 95.9763 10.9618 91.2489 5.09621 85.8588C3.70953 84.5845 3.10865 83.4863 3.30531 82.5858C3.51548 81.6238 4.79239 80.2895 6.76841 78.9675C8.96702 77.4966 11.1014 76.4908 14.9604 75.1068C16.5775 74.5269 17.7536 74.0528 17.5739 74.0533C17.3942 74.0537 15.9241 74.5223 14.307 75.0943ZM135.358 74.1796C135.515 74.2429 135.703 74.235 135.776 74.1623C135.848 74.0896 135.719 74.0379 135.49 74.0473C135.236 74.0579 135.184 74.1098 135.358 74.1796ZM140.129 75.7589C146.641 78.3079 150.572 80.9071 151.309 83.1519C152.109 85.5909 147.106 89.1251 138.847 91.9544C127.299 95.91 110.007 98.5529 90.4795 99.3469L86.8315 99.4952V102.856V106.217L89.1728 106.101C96.2423 105.75 100.173 105.507 103.493 105.216C129.901 102.896 149.081 97.207 153.608 90.3526C156.197 86.4314 154.28 82.6633 147.807 78.9517C145.815 77.8095 139.916 75.3041 138.557 75.0234C138.198 74.9489 138.905 75.28 140.129 75.7589Z" fill="black"/>
</svg>
