<svg width="15" height="15" viewBox="0 0 15 15" fill="none" xmlns="http://www.w3.org/2000/svg">
<path fill-rule="evenodd" clip-rule="evenodd" d="M12.8535 3.85355C13.0488 3.65829 13.0488 3.34171 12.8535 3.14645C12.6582 2.95118 12.3416 2.95118 12.1464 3.14645L8.14639 7.14645C7.95112 7.34171 7.95112 7.65829 8.14639 7.85355L12.1464 11.8536C12.3416 12.0488 12.6582 12.0488 12.8535 11.8536C13.0488 11.6583 13.0488 11.3417 12.8535 11.1464L9.20705 7.5L12.8535 3.85355ZM6.85349 3.85355C7.04875 3.65829 7.04875 3.34171 6.85349 3.14645C6.65823 2.95118 6.34165 2.95118 6.14639 3.14645L2.14639 7.14645C1.95112 7.34171 1.95112 7.65829 2.14639 7.85355L6.14639 11.8536C6.34165 12.0488 6.65823 12.0488 6.85349 11.8536C7.04875 11.6583 7.04875 11.3417 6.85349 11.1464L3.20705 7.5L6.85349 3.85355Z" fill="black"/>
</svg>
