<svg width="244" height="70" viewBox="0 0 244 70" fill="none" xmlns="http://www.w3.org/2000/svg">
<g id="&#209;&#135;&#208;&#176;&#209;&#130;">
<mask id="path-1-inside-1_88_132" fill="white">
<path fill-rule="evenodd" clip-rule="evenodd" d="M228.581 70H1C0.447715 70 0 69.5523 0 69V1C0 0.447716 0.447712 0 0.999997 0H228.579C229.131 0 229.579 0.447716 229.579 1V59.0508C229.579 59.3989 229.76 59.7219 230.057 59.9037L243.521 68.1471C244.382 68.6743 244.009 70 242.999 70H229.579H228.581Z"/>
</mask>
<path fill-rule="evenodd" clip-rule="evenodd" d="M228.581 70H1C0.447715 70 0 69.5523 0 69V1C0 0.447716 0.447712 0 0.999997 0H228.579C229.131 0 229.579 0.447716 229.579 1V59.0508C229.579 59.3989 229.76 59.7219 230.057 59.9037L243.521 68.1471C244.382 68.6743 244.009 70 242.999 70H229.579H228.581Z" fill="white"/>
<path d="M230.057 59.9037L229.535 60.7565L230.057 59.9037ZM243.521 68.1471L242.999 69L243.521 68.1471ZM1 69H228.581V71H1V69ZM1 1V69H-1V1H1ZM228.579 1H0.999997V-1H228.579V1ZM228.579 59.0508V1H230.579V59.0508H228.579ZM242.999 69L229.535 60.7565L230.579 59.0508L244.043 67.2943L242.999 69ZM229.579 69H242.999V71H229.579V69ZM228.581 69H229.579V71H228.581V69ZM230.579 59.0508L229.535 60.7565C228.941 60.393 228.579 59.747 228.579 59.0508H230.579ZM228.579 -1C229.683 -1 230.579 -0.104568 230.579 1H228.579V-1ZM-1 1C-1 -0.104568 -0.104577 -1 0.999997 -1V1H1H-1ZM244.043 67.2943C245.765 68.3485 245.018 71 242.999 71V69V69L244.043 67.2943ZM1 71C-0.104567 71 -1 70.1046 -1 69H1V69V71Z" fill="#FFED00" mask="url(#path-1-inside-1_88_132)"/>
</g>
</svg>
