<svg width="70" height="64" viewBox="0 0 70 64" fill="none" xmlns="http://www.w3.org/2000/svg">
<path id="Vector" d="M64.6154 0H8.07692C7.36288 0 6.67808 0.293167 6.17317 0.815008C5.66827 1.33685 5.38462 2.04462 5.38462 2.78261V36.1739C5.38951 40.6003 7.09301 44.844 10.1214 47.9739C13.1498 51.1039 17.2557 52.8645 21.5385 52.8696H40.3846C44.6674 52.8645 48.7733 51.1039 51.8017 47.9739C54.8301 44.844 56.5336 40.6003 56.5385 36.1739V22.2609H59.5673C62.3333 22.2576 64.9851 21.1206 66.9409 19.0992C68.8967 17.0777 69.9969 14.337 70 11.4783V5.56522C70 4.08923 69.4327 2.67369 68.4229 1.63001C67.4131 0.586334 66.0435 0 64.6154 0ZM64.6154 11.4783C64.6154 12.862 64.0835 14.1891 63.1368 15.1675C62.1901 16.146 60.9061 16.6957 59.5673 16.6957H56.5385V5.56522H64.6154V11.4783ZM59.2308 58.4348H2.69231C1.97826 58.4348 1.29346 58.7279 0.788559 59.2498C0.283653 59.7716 0 60.4794 0 61.2174C0 61.9554 0.283653 62.6632 0.788559 63.185C1.29346 63.7068 1.97826 64 2.69231 64H59.2308C59.9448 64 60.6296 63.7068 61.1345 63.185C61.6394 62.6632 61.9231 61.9554 61.9231 61.2174C61.9231 60.4794 61.6394 59.7716 61.1345 59.2498C60.6296 58.7279 59.9448 58.4348 59.2308 58.4348Z" fill="#FAED19"/>
</svg>
