<svg width="24" height="25" viewBox="0 0 24 25" fill="none" xmlns="http://www.w3.org/2000/svg">
<g clip-path="url(#clip0_99_201)">
<path d="M12 9.05078C11.2044 9.05078 10.4413 9.36685 9.87868 9.92946C9.31607 10.4921 9 11.2551 9 12.0508C9 12.8464 9.31607 13.6095 9.87868 14.1721C10.4413 14.7347 11.2044 15.0508 12 15.0508C12.7956 15.0508 13.5587 14.7347 14.1213 14.1721C14.6839 13.6095 15 12.8464 15 12.0508C15 11.2551 14.6839 10.4921 14.1213 9.92946C13.5587 9.36685 12.7956 9.05078 12 9.05078ZM12 7.05078C13.3261 7.05078 14.5979 7.57757 15.5355 8.51525C16.4732 9.45293 17 10.7247 17 12.0508C17 13.3769 16.4732 14.6486 15.5355 15.5863C14.5979 16.524 13.3261 17.0508 12 17.0508C10.6739 17.0508 9.40215 16.524 8.46447 15.5863C7.52678 14.6486 7 13.3769 7 12.0508C7 10.7247 7.52678 9.45293 8.46447 8.51525C9.40215 7.57757 10.6739 7.05078 12 7.05078ZM18.5 6.80078C18.5 7.1323 18.3683 7.45024 18.1339 7.68466C17.8995 7.91909 17.5815 8.05078 17.25 8.05078C16.9185 8.05078 16.6005 7.91909 16.3661 7.68466C16.1317 7.45024 16 7.1323 16 6.80078C16 6.46926 16.1317 6.15132 16.3661 5.9169C16.6005 5.68248 16.9185 5.55078 17.25 5.55078C17.5815 5.55078 17.8995 5.68248 18.1339 5.9169C18.3683 6.15132 18.5 6.46926 18.5 6.80078ZM12 4.05078C9.526 4.05078 9.122 4.05778 7.971 4.10878C7.187 4.14578 6.661 4.25078 6.173 4.44078C5.739 4.60878 5.426 4.80978 5.093 5.14378C4.78001 5.44618 4.53935 5.81536 4.389 6.22378C4.199 6.71378 4.094 7.23878 4.058 8.02178C4.006 9.12578 4 9.51178 4 12.0508C4 14.5248 4.007 14.9288 4.058 16.0798C4.095 16.8628 4.2 17.3898 4.389 17.8768C4.559 18.3118 4.759 18.6248 5.091 18.9568C5.428 19.2928 5.741 19.4938 6.171 19.6598C6.665 19.8508 7.191 19.9568 7.971 19.9928C9.075 20.0448 9.461 20.0508 12 20.0508C14.474 20.0508 14.878 20.0438 16.029 19.9928C16.811 19.9558 17.338 19.8508 17.826 19.6618C18.259 19.4928 18.574 19.2918 18.906 18.9598C19.243 18.6228 19.444 18.3098 19.61 17.8798C19.8 17.3868 19.906 16.8598 19.942 16.0798C19.994 14.9758 20 14.5898 20 12.0508C20 9.57678 19.993 9.17278 19.942 8.02178C19.905 7.23978 19.8 6.71178 19.61 6.22378C19.4593 5.81578 19.2191 5.44674 18.907 5.14378C18.6047 4.83063 18.2355 4.58995 17.827 4.43978C17.337 4.24978 16.811 4.14478 16.029 4.10878C14.925 4.05678 14.539 4.05078 12 4.05078ZM12 2.05078C14.717 2.05078 15.056 2.06078 16.122 2.11078C17.187 2.16078 17.912 2.32778 18.55 2.57578C19.21 2.82978 19.766 3.17378 20.322 3.72878C20.8305 4.22868 21.224 4.83337 21.475 5.50078C21.722 6.13778 21.89 6.86378 21.94 7.92878C21.987 8.99478 22 9.33378 22 12.0508C22 14.7678 21.99 15.1068 21.94 16.1728C21.89 17.2378 21.722 17.9628 21.475 18.6008C21.2247 19.2686 20.8311 19.8734 20.322 20.3728C19.822 20.8811 19.2173 21.2745 18.55 21.5258C17.913 21.7728 17.187 21.9408 16.122 21.9908C15.056 22.0378 14.717 22.0508 12 22.0508C9.283 22.0508 8.944 22.0408 7.878 21.9908C6.813 21.9408 6.088 21.7728 5.45 21.5258C4.78233 21.2753 4.17753 20.8817 3.678 20.3728C3.16941 19.873 2.77593 19.2682 2.525 18.6008C2.277 17.9638 2.11 17.2378 2.06 16.1728C2.013 15.1068 2 14.7678 2 12.0508C2 9.33378 2.01 8.99478 2.06 7.92878C2.11 6.86278 2.277 6.13878 2.525 5.50078C2.77524 4.83296 3.1688 4.2281 3.678 3.72878C4.17767 3.22001 4.78243 2.82651 5.45 2.57578C6.088 2.32778 6.812 2.16078 7.878 2.11078C8.944 2.06378 9.283 2.05078 12 2.05078Z" fill="#FAED19"/>
</g>
<defs>
<clipPath id="clip0_99_201">
<rect width="24" height="24" fill="white" transform="translate(0 0.0507812)"/>
</clipPath>
</defs>
</svg>
