<svg width="262" height="87" viewBox="0 0 262 87" fill="none" xmlns="http://www.w3.org/2000/svg">
<path d="M26.9518 32L28.2568 25.475L49.5418 5.045L50.4418 8.735H32.0368L33.7018 0.499998H61.4668L60.1618 7.025L38.8768 27.455L37.9768 23.765H57.5518L55.8868 32H26.9518ZM55.5504 32L75.6204 0.499998H86.0604L93.5304 32H82.9554L77.8704 5.405H82.0104L66.7554 32H55.5504ZM64.8204 26.51L69.0504 18.86H83.5404L84.7104 26.51H64.8204ZM95.2253 32L101.525 0.499998H115.655C119.825 0.499998 123.05 1.415 125.33 3.245C127.61 5.045 128.75 7.58 128.75 10.85C128.75 13.49 128.09 15.8 126.77 17.78C125.48 19.76 123.635 21.305 121.235 22.415C118.865 23.525 116.06 24.08 112.82 24.08H102.65L108.32 19.625L105.845 32H95.2253ZM114.485 32L108.005 20.525H118.94L125.51 32H114.485ZM108.05 20.885L104.315 16.07H113.36C114.83 16.07 115.97 15.71 116.78 14.99C117.59 14.24 117.995 13.205 117.995 11.885C117.995 10.745 117.635 9.935 116.915 9.455C116.225 8.945 115.265 8.69 114.035 8.69H105.8L111.47 3.74L108.05 20.885ZM144.641 32.72C141.371 32.72 138.641 32.105 136.451 30.875C134.261 29.615 132.701 27.875 131.771 25.655C130.871 23.405 130.721 20.795 131.321 17.825L134.786 0.499998H145.406L141.986 17.645C141.776 18.755 141.701 19.715 141.761 20.525C141.821 21.335 142.016 22.01 142.346 22.55C142.706 23.09 143.186 23.495 143.786 23.765C144.386 24.005 145.106 24.125 145.946 24.125C146.966 24.125 147.836 23.915 148.556 23.495C149.306 23.075 149.921 22.385 150.401 21.425C150.911 20.465 151.316 19.205 151.616 17.645L155.036 0.499998H165.476L161.921 18.275C160.991 22.985 159.086 26.57 156.206 29.03C153.326 31.49 149.471 32.72 144.641 32.72ZM164.044 32L170.344 0.499998H187.039C190.789 0.499998 193.609 1.16 195.499 2.48C197.389 3.77 198.334 5.615 198.334 8.015C198.334 9.965 197.764 11.615 196.624 12.965C195.514 14.315 193.969 15.35 191.989 16.07C190.039 16.76 187.789 17.105 185.239 17.105L186.589 14.675C189.799 14.675 192.319 15.32 194.149 16.61C196.009 17.87 196.939 19.655 196.939 21.965C196.939 24.275 196.264 26.18 194.914 27.68C193.594 29.15 191.824 30.245 189.604 30.965C187.384 31.655 184.924 32 182.224 32H164.044ZM175.969 24.575H182.809C183.859 24.575 184.714 24.335 185.374 23.855C186.064 23.375 186.409 22.655 186.409 21.695C186.409 21.005 186.139 20.495 185.599 20.165C185.089 19.805 184.489 19.625 183.799 19.625H176.239L177.634 12.605H183.754C184.564 12.605 185.224 12.5 185.734 12.29C186.274 12.05 186.664 11.735 186.904 11.345C187.144 10.925 187.264 10.43 187.264 9.86C187.264 9.2 187.009 8.72 186.499 8.42C186.019 8.09 185.344 7.925 184.474 7.925H179.299L175.969 24.575ZM195.428 32L215.498 0.499998H225.938L233.408 32H222.833L217.748 5.405H221.888L206.633 32H195.428ZM204.698 26.51L208.928 18.86H223.418L224.588 26.51H204.698ZM11.6757 79.52L13.2507 67.595L27.2907 54.5H39.4857L23.3307 69.17L16.1307 75.38L11.6757 79.52ZM0.830723 86L7.13072 54.5H17.5707L11.2707 86H0.830723ZM22.1157 86L14.5107 73.76L22.3857 66.65L33.9507 86H22.1157ZM35.2399 86L41.5399 54.5H52.1599L45.8599 86H35.2399ZM50.9723 86L57.2723 54.5H71.4923C74.8223 54.5 77.6873 55.04 80.0873 56.12C82.4873 57.2 84.3323 58.745 85.6223 60.755C86.9123 62.735 87.5573 65.105 87.5573 67.865C87.5573 70.655 87.0623 73.16 86.0723 75.38C85.1123 77.6 83.7473 79.505 81.9773 81.095C80.2373 82.685 78.1673 83.9 75.7673 84.74C73.3673 85.58 70.7273 86 67.8473 86H50.9723ZM63.2573 77.72H68.2073C70.0973 77.72 71.6723 77.315 72.9323 76.505C74.2223 75.665 75.1973 74.555 75.8573 73.175C76.5173 71.765 76.8473 70.205 76.8473 68.495C76.8473 67.265 76.5923 66.23 76.0823 65.39C75.6023 64.55 74.8673 63.905 73.8773 63.455C72.9173 63.005 71.7173 62.78 70.2773 62.78H66.2273L63.2573 77.72ZM100.66 86.72C98.8001 86.72 97.0151 86.585 95.3051 86.315C93.5951 86.045 92.0351 85.67 90.6251 85.19C89.2451 84.68 88.0451 84.125 87.0251 83.525L91.1201 75.695C92.2901 76.355 93.4601 76.91 94.6301 77.36C95.8301 77.78 97.0151 78.095 98.1851 78.305C99.3851 78.515 100.57 78.62 101.74 78.62C102.67 78.62 103.435 78.545 104.035 78.395C104.665 78.245 105.13 78.035 105.43 77.765C105.76 77.465 105.925 77.135 105.925 76.775C105.925 76.295 105.655 75.905 105.115 75.605C104.575 75.305 103.855 75.035 102.955 74.795C102.085 74.555 101.11 74.315 100.03 74.075C98.9801 73.805 97.9151 73.475 96.8351 73.085C95.7551 72.665 94.7651 72.14 93.8651 71.51C92.9951 70.88 92.2901 70.085 91.7501 69.125C91.2101 68.165 90.9401 66.995 90.9401 65.615C90.9401 63.215 91.5701 61.13 92.8301 59.36C94.1201 57.59 95.9501 56.225 98.3201 55.265C100.72 54.275 103.57 53.78 106.87 53.78C109.21 53.78 111.385 54.02 113.395 54.5C115.435 54.95 117.19 55.61 118.66 56.48L114.835 64.22C113.575 63.44 112.195 62.855 110.695 62.465C109.225 62.075 107.725 61.88 106.195 61.88C105.175 61.88 104.32 61.985 103.63 62.195C102.94 62.375 102.415 62.63 102.055 62.96C101.725 63.29 101.56 63.635 101.56 63.995C101.56 64.475 101.83 64.88 102.37 65.21C102.91 65.51 103.63 65.78 104.53 66.02C105.43 66.23 106.405 66.47 107.455 66.74C108.535 66.98 109.6 67.295 110.65 67.685C111.73 68.045 112.72 68.54 113.62 69.17C114.52 69.77 115.24 70.55 115.78 71.51C116.32 72.44 116.59 73.595 116.59 74.975C116.59 77.315 115.945 79.37 114.655 81.14C113.365 82.88 111.52 84.245 109.12 85.235C106.75 86.225 103.93 86.72 100.66 86.72ZM149.126 86.72C145.886 86.72 143.051 86.135 140.621 84.965C138.191 83.765 136.301 82.115 134.951 80.015C133.631 77.885 132.971 75.425 132.971 72.635C132.971 69.875 133.451 67.34 134.411 65.03C135.401 62.72 136.781 60.725 138.551 59.045C140.321 57.365 142.421 56.075 144.851 55.175C147.281 54.245 149.951 53.78 152.861 53.78C155.891 53.78 158.576 54.32 160.916 55.4C163.256 56.48 164.996 58.04 166.136 60.08L158.486 66.065C157.826 64.895 156.971 63.995 155.921 63.365C154.871 62.705 153.626 62.375 152.186 62.375C150.926 62.375 149.771 62.615 148.721 63.095C147.701 63.545 146.816 64.205 146.066 65.075C145.316 65.915 144.731 66.92 144.311 68.09C143.891 69.26 143.681 70.55 143.681 71.96C143.681 73.19 143.951 74.27 144.491 75.2C145.031 76.13 145.781 76.85 146.741 77.36C147.731 77.87 148.871 78.125 150.161 78.125C151.391 78.125 152.591 77.84 153.761 77.27C154.961 76.7 156.101 75.77 157.181 74.48L163.436 80.465C161.516 82.805 159.371 84.44 157.001 85.37C154.661 86.27 152.036 86.72 149.126 86.72ZM164.703 86L171.003 54.5H181.623L176.988 77.765H191.208L189.543 86H164.703ZM208.142 86.72C204.872 86.72 202.142 86.105 199.952 84.875C197.762 83.615 196.202 81.875 195.272 79.655C194.372 77.405 194.222 74.795 194.822 71.825L198.287 54.5H208.907L205.487 71.645C205.277 72.755 205.202 73.715 205.262 74.525C205.322 75.335 205.517 76.01 205.847 76.55C206.207 77.09 206.687 77.495 207.287 77.765C207.887 78.005 208.607 78.125 209.447 78.125C210.467 78.125 211.337 77.915 212.057 77.495C212.807 77.075 213.422 76.385 213.902 75.425C214.412 74.465 214.817 73.205 215.117 71.645L218.537 54.5H228.977L225.422 72.275C224.492 76.985 222.587 80.57 219.707 83.03C216.827 85.49 212.972 86.72 208.142 86.72ZM227.545 86L233.845 54.5H250.54C254.29 54.5 257.11 55.16 259 56.48C260.89 57.77 261.835 59.615 261.835 62.015C261.835 63.965 261.265 65.615 260.125 66.965C259.015 68.315 257.47 69.35 255.49 70.07C253.54 70.76 251.29 71.105 248.74 71.105L250.09 68.675C253.3 68.675 255.82 69.32 257.65 70.61C259.51 71.87 260.44 73.655 260.44 75.965C260.44 78.275 259.765 80.18 258.415 81.68C257.095 83.15 255.325 84.245 253.105 84.965C250.885 85.655 248.425 86 245.725 86H227.545ZM239.47 78.575H246.31C247.36 78.575 248.215 78.335 248.875 77.855C249.565 77.375 249.91 76.655 249.91 75.695C249.91 75.005 249.64 74.495 249.1 74.165C248.59 73.805 247.99 73.625 247.3 73.625H239.74L241.135 66.605H247.255C248.065 66.605 248.725 66.5 249.235 66.29C249.775 66.05 250.165 65.735 250.405 65.345C250.645 64.925 250.765 64.43 250.765 63.86C250.765 63.2 250.51 62.72 250 62.42C249.52 62.09 248.845 61.925 247.975 61.925H242.8L239.47 78.575Z" fill="white"/>
</svg>
