<svg width="70" height="70" viewBox="0 0 70 70" fill="none" xmlns="http://www.w3.org/2000/svg">
<g id="kind">
<path id="Vector" d="M19.946 17.7754C23.8764 17.1603 26.559 13.5184 25.9353 9.63681C25.5391 7.17168 23.9008 5.20555 21.7499 4.25726C22.0949 3.94275 22.4969 3.63829 22.9751 3.35365C23.2025 3.21839 23.3296 2.96507 23.3006 2.70433C23.2713 2.44384 23.0911 2.22373 22.8393 2.14081C21.6213 1.74003 20.2479 1.94149 18.9932 2.38887C19.1476 1.94914 19.3573 1.49148 19.6443 1.01614C19.7803 0.791019 19.7714 0.5083 19.6213 0.292258C19.4711 0.0759766 19.2072 -0.0344345 18.9452 0.00953872C16.3488 0.445925 14.3809 3.42153 13.6804 5.1274C13.5557 5.43115 13.4661 5.74183 13.4111 6.0518C12.0426 7.5868 11.3508 9.68915 11.7004 11.8644C12.3239 15.7465 16.0163 18.3906 19.946 17.7754Z" fill="#FAED19"/>
<path id="Vector_2" d="M69.1999 16.4821C68.1866 15.5529 66.6013 15.6098 65.6594 16.6106L57.2378 25.5573C56.5346 25.0631 55.7218 24.7251 54.8527 24.5889L51.1855 24.0151C50.3068 23.8777 49.4172 23.9503 48.5857 24.2128L43.3763 13.1234C42.7942 11.8845 41.3048 11.3458 40.0498 11.9201C38.7946 12.4944 38.2488 13.9646 38.8306 15.2033L44.8667 28.0528C44.7359 28.5264 44.9028 27.559 42.7683 41.3501L39.4733 45.3495L39.5701 45.4671C40.483 46.5751 40.9811 47.9595 40.9811 49.3872V61.2991C41.022 61.3006 41.0622 61.3051 41.1036 61.3051C42.8332 61.3051 44.2352 59.9214 44.2352 58.2143V49.3674L47.7273 45.1287L50.8303 45.7135L50.0148 50.7895C49.9872 50.9626 49.9741 51.1375 49.9765 51.3127L50.1187 62.3906C50.1405 64.084 51.5378 65.4424 53.2493 65.442C53.2626 65.442 53.2762 65.442 53.2897 65.4417C55.0191 65.4202 56.4031 64.019 56.3814 62.312L56.2428 51.4974C56.4293 50.3372 59.5812 30.7753 59.6008 30.3124L69.3307 19.976C70.2716 18.9759 70.2135 17.4117 69.1999 16.4821Z" fill="#FAED19"/>
<path id="Vector_3" d="M53.3825 21.934C56.6565 22.4466 59.7328 20.2437 60.2525 17.0097C60.5435 15.1972 59.9672 13.4457 58.827 12.1669C58.7812 11.9088 58.7064 11.6498 58.6025 11.3969C58.019 9.97614 56.3792 7.49691 54.2164 7.13318C53.9983 7.09661 53.7782 7.18838 53.6532 7.36858C53.528 7.54877 53.5208 7.78393 53.6341 7.97154C53.8733 8.36801 54.0484 8.74967 54.177 9.11651C53.1316 8.74346 51.9873 8.5745 50.9725 8.9086C50.7626 8.9779 50.6124 9.1612 50.588 9.3782C50.5638 9.59544 50.6698 9.80646 50.8592 9.91926C51.2575 10.1563 51.5921 10.4101 51.8798 10.6721C50.088 11.4617 48.7228 13.0997 48.393 15.1535C47.8734 18.3877 50.1083 21.4216 53.3825 21.934Z" fill="#FAED19"/>
<path id="Vector_4" d="M32.6871 41.0807C30.1699 25.1165 30.1699 25.1165 30.1699 25.1165L37.4135 9.69649C38.1123 8.20929 37.457 6.4451 35.9502 5.75563C34.4441 5.06616 32.6559 5.71214 31.9573 7.19982L25.7046 20.511C24.7063 20.1958 23.6382 20.1088 22.5832 20.274L18.1816 20.9627C17.1385 21.1262 16.1602 21.5277 15.3159 22.1216L5.21021 11.3856C4.07942 10.1847 2.17718 10.1159 0.960186 11.2313C-0.25632 12.3471 -0.326298 14.225 0.804006 15.4259L12.4831 27.8331C12.4831 27.8331 14.2287 39.0403 16.5137 53.2623L16.3471 66.2432C16.321 68.2918 17.9823 69.9738 20.0582 69.9998C20.0741 70 20.0906 70 20.1066 70C22.1602 70 23.8382 68.3699 23.8643 66.3371L24.0348 53.04C24.0377 52.8297 24.022 52.6196 23.9888 52.4119L23.0098 46.319L26.7349 45.6169L30.9263 50.7046V61.3239C30.9263 63.3727 32.6092 65.0337 34.685 65.0337C36.7609 65.0337 38.4438 63.3727 38.4438 61.3239V49.3869C38.4438 48.5344 38.1464 47.7078 37.6016 47.0463L32.6871 41.0807Z" fill="#FAED19"/>
</g>
</svg>
