<svg width="160" height="131" viewBox="0 0 160 131" fill="none" xmlns="http://www.w3.org/2000/svg">
<path fill-rule="evenodd" clip-rule="evenodd" d="M19.9971 98.506V93.9559H7.02989L19.9971 76.3987V72.3489H0.641356V76.899H13.0148L0.0950928 94.3847V98.506H19.9971ZM48.5914 98.506L37.5479 72.3489H32.9168L21.8971 98.506H28.0719L29.9006 93.8844H40.6591L42.4403 98.506H48.5914ZM39.0916 89.5964H31.5631L35.3867 80.0912L39.0916 89.5964ZM75.2621 98.506L68.4935 87.2379C71.4384 86.3089 74.0271 84.0458 74.0271 80.3771C74.0271 76.0176 70.3697 72.3727 64.1948 72.3727H52.3439V98.5298H58.2575V88.0956H62.5086L68.4222 98.5298H75.2621V98.506ZM68.1135 80.3771C68.1135 82.402 66.4035 83.8313 63.8148 83.8313H58.2575V76.9228H63.8148C66.4273 76.9228 68.1135 78.3522 68.1135 80.3771ZM101.956 89.5487V72.3727H96.0903V89.382C96.0903 92.3836 94.0004 94.1941 90.818 94.1941C87.6356 94.1941 85.5931 92.3836 85.5931 89.382V72.3727H79.6795V89.5487C79.6795 95.0994 84.6194 98.7204 90.818 98.7204C97.0166 98.7442 101.956 95.0994 101.956 89.5487ZM130.48 90.9781C130.48 87.5 128.152 85.8324 126.323 85.0939C127.843 84.4745 130.076 82.5926 130.076 79.6862C130.076 75.2076 126.632 72.3489 120.719 72.3489H108.559V98.506H121.217C126.608 98.506 130.48 95.8617 130.48 90.9781ZM124.566 90.7398C124.566 92.5027 123.283 93.9797 120.6 93.9797H114.425V87.5476H120.6C123.307 87.5476 124.566 88.977 124.566 90.7398ZM124.162 79.9245C124.162 81.735 122.761 82.9261 120.244 82.9261H114.449V76.899H120.244C122.737 76.9228 124.162 78.1378 124.162 79.9245ZM159.905 98.506L148.862 72.3489H144.23L133.211 98.506H139.386L141.214 93.8844H151.973L153.754 98.506H159.905ZM150.382 89.5964H142.853L146.677 80.0912L150.382 89.5964Z" fill="white"/>
<path fill-rule="evenodd" clip-rule="evenodd" d="M19.9971 93.956H20.092V93.8608H19.9971V93.956ZM7.02982 93.956L6.95857 93.9084L6.83985 94.0513H7.02982V93.956ZM19.9971 76.3989L20.0683 76.4465L20.092 76.4227V76.3989H19.9971ZM19.9971 72.3729H20.092V72.2776H19.9971V72.3729ZM0.641281 72.3729V72.2776H0.546263V72.3729H0.641281ZM0.641281 76.923H0.546263V77.0183H0.641281V76.923ZM13.0147 76.923L13.086 76.9706L13.2047 76.8277H13.0147V76.923ZM0.0950181 94.4087L0.0237726 94.3611L0 94.3848V94.4087H0.0950181ZM0.0950181 98.5061H0V98.6015H0.0950181V98.5061ZM37.5479 72.3729L37.6429 72.3252L37.6191 72.2776H37.5479V72.3729ZM32.9168 72.3729V72.2776H32.8455L32.8218 72.3252L32.9168 72.3729ZM21.897 98.5061L21.802 98.4585L21.7545 98.6015H21.897V98.5061ZM28.0719 98.5061V98.6015H28.1431L28.1669 98.53L28.0719 98.5061ZM29.9005 93.8846V93.7893H29.8293L29.8056 93.8608L29.9005 93.8846ZM40.659 93.8846L40.7541 93.8608L40.7303 93.7893H40.659V93.8846ZM42.4402 98.5061L42.3453 98.53L42.369 98.6015H42.4402V98.5061ZM39.0916 89.5966V89.6919H39.2341L39.1866 89.5727L39.0916 89.5966ZM31.563 89.5966L31.468 89.5727L31.4205 89.7156H31.563V89.5966ZM35.3867 80.0913L35.4817 80.0676L35.3867 79.8532L35.2917 80.0676L35.3867 80.0913ZM68.4934 87.2381L68.4697 87.1428L68.3509 87.1905L68.4221 87.2858L68.4934 87.2381ZM52.3438 72.3729V72.2776H52.2488V72.3729H52.3438ZM52.3438 98.5061H52.2488V98.6015H52.3438V98.5061ZM58.2574 98.5061V98.6015H58.3524V98.5061H58.2574ZM58.2574 88.0957V88.0004H58.1624V88.0957H58.2574ZM62.5086 88.0957L62.5798 88.0481L62.556 88.0004H62.5086V88.0957ZM68.4221 98.5061L68.3272 98.5538L68.3509 98.6015H68.3984V98.5061H68.4221ZM58.2574 83.8315H58.1624V83.9268H58.2574V83.8315ZM58.2574 76.923V76.8277H58.1624V76.923H58.2574ZM101.956 72.3729H102.051V72.2776H101.956V72.3729ZM96.0902 72.3729V72.2776H95.9953V72.3729H96.0902ZM85.593 72.3729H85.688V72.2776H85.593V72.3729ZM79.6794 72.3729V72.2776H79.5844V72.3729H79.6794ZM126.323 85.1179L126.276 85.0226L126.062 85.1179L126.276 85.2132L126.323 85.1179ZM108.559 72.3729V72.2776H108.464V72.3729H108.559ZM108.559 98.5061H108.464V98.6015H108.559V98.5061ZM114.449 93.956H114.354V94.0513H114.449V93.956ZM114.449 87.5478V87.4525H114.354V87.5478H114.449ZM114.449 82.9501H114.354V83.0454H114.449V82.9501ZM114.449 76.923V76.8277H114.354V76.923H114.449ZM148.861 72.3729L148.957 72.3252L148.933 72.2776H148.861V72.3729ZM144.207 72.3729V72.2776H144.135L144.112 72.3252L144.207 72.3729ZM133.211 98.5061L133.116 98.4585L133.068 98.6015H133.211V98.5061ZM139.362 98.5061V98.6015H139.433L139.457 98.53L139.362 98.5061ZM141.19 93.8846V93.7893H141.119L141.095 93.8608L141.19 93.8846ZM151.949 93.8846L152.044 93.8608L152.02 93.7893H151.949V93.8846ZM153.73 98.5061L153.635 98.53L153.659 98.6015H153.73V98.5061ZM150.382 89.5966V89.6919H150.524L150.477 89.5727L150.382 89.5966ZM142.853 89.5966L142.758 89.5727L142.71 89.7156H142.853V89.5966ZM146.677 80.0913L146.772 80.0676L146.677 79.8532L146.582 80.0676L146.677 80.0913ZM20.092 98.5061H19.902V93.956H20.092V98.5061ZM19.9971 93.8608V94.0513H7.02982V93.8608H19.9971ZM7.10113 94.0275L6.95857 93.9084L19.9258 76.3513L20.0683 76.4703L7.10113 94.0275ZM20.092 76.3989H19.902V72.349H20.092V76.3989ZM19.9971 72.2776V72.4682H0.641281V72.2776H19.9971ZM0.546263 72.3729H0.736227V76.923H0.546263V72.3729ZM0.641281 77.0183V76.8277H13.0147V77.0183H0.641281ZM12.9435 76.8754L13.086 76.9944L0.166264 94.4801L0.0237726 94.3611L12.9435 76.8754ZM0 94.4087H0.190036V98.53H0V94.4087ZM0.0950181 98.6015V98.4108H19.9971V98.6015H0.0950181ZM48.6864 98.4823L48.5201 98.5538L37.4766 72.3967L37.6429 72.3252L48.6864 98.4823ZM37.5479 72.2776V72.4682H32.9168V72.2776H37.5479ZM32.8218 72.3252L32.988 72.3967L21.9682 98.5538L21.802 98.4823L32.8218 72.3252ZM21.897 98.6015V98.4108H28.0719V98.6015H21.897ZM28.1669 98.5538L28.0006 98.4823L29.8293 93.8608L29.9956 93.9323L28.1669 98.5538ZM29.9005 93.9799V93.7893H40.659V93.9799H29.9005ZM40.5641 93.9323L40.7303 93.8608L42.5115 98.4823L42.3453 98.5538L40.5641 93.9323ZM42.4402 98.6015V98.4108H48.6151V98.6015H42.4402ZM39.0916 89.5012V89.6919H31.563V89.5012H39.0916ZM31.6343 89.6203L31.468 89.5489L35.2917 80.0437L35.4579 80.1152L31.6343 89.6203ZM35.2917 80.1152L35.4579 80.0437L39.1629 89.5489L38.9966 89.6203L35.2917 80.1152ZM75.3332 98.4585L75.167 98.5538L68.3984 87.2858L68.5646 87.1905L75.3332 98.4585ZM68.5409 87.3334L68.4934 87.1428C71.3908 86.2376 73.9558 83.9745 73.9558 80.3773H74.1458C74.122 84.0936 71.4859 86.4043 68.5409 87.3334ZM74.122 80.3773C74.122 75.9463 70.4171 72.2776 64.1947 72.2776V72.4682C70.3221 72.4682 73.9083 76.0654 73.9083 80.3773H74.122ZM64.1947 72.2776V72.4682H52.3438V72.2776H64.1947ZM52.2488 72.3729H52.4388V98.53H52.2488V72.3729ZM52.3438 98.6015V98.4108H58.2574V98.6015H52.3438ZM58.3524 98.5061H58.1624V88.0719H58.3524V98.5061ZM58.2574 88.191V88.0004H62.5086V88.191H58.2574ZM62.4135 88.1433L62.5798 88.0481L68.4934 98.4823L68.3272 98.5776L62.4135 88.1433ZM68.4221 98.6015V98.4108H75.262V98.6015H68.4221ZM68.0184 80.3773H68.2084C68.2084 81.4255 67.7809 82.3068 66.9972 82.9262C66.2372 83.5456 65.121 83.9268 63.8147 83.9268V83.7362C65.0972 83.7362 66.1422 83.3788 66.8784 82.7833C67.6147 82.1877 68.0184 81.354 68.0184 80.3773ZM63.8147 83.7362V83.9268H58.2574V83.7362H63.8147ZM58.3524 83.8315H58.1624V76.923H58.3524V83.8315ZM58.2574 77.0183V76.8277H63.8147V77.0183H58.2574ZM63.8147 77.0183V76.8277C65.121 76.8277 66.2134 77.185 66.9972 77.8282C67.7571 78.4476 68.2084 79.3529 68.2084 80.3773H68.0184C68.0184 79.4005 67.6147 78.5667 66.8784 77.9712C66.1422 77.3756 65.0972 77.0183 63.8147 77.0183ZM102.051 89.5489H101.861V72.3729H102.051V89.5489ZM101.956 72.2776V72.4682H96.0902V72.2776H101.956ZM95.9953 72.3729H96.1852V89.3822H95.9953V72.3729ZM95.9953 89.3822C95.9953 90.8592 95.4728 92.0502 94.5941 92.8364C93.6916 93.6463 92.4091 94.099 90.8179 94.099V94.2896C92.4329 94.2896 93.7628 93.8369 94.7128 92.9793C95.6628 92.1217 96.1852 90.9068 96.1852 89.3822H95.9953ZM90.8179 94.099V94.2896C89.203 94.2896 87.873 93.8369 86.9468 92.9793C86.0205 92.1217 85.498 90.9068 85.498 89.3822H85.688C85.688 90.8592 86.1867 92.0502 87.0655 92.8364C87.9679 93.6463 89.2505 94.099 90.8179 94.099ZM85.688 89.3822H85.498V72.3729H85.688V89.3822ZM85.593 72.2776V72.4682H79.6794V72.2776H85.593ZM79.5844 72.3729H79.7744V89.5489H79.5844V72.3729ZM79.5844 89.5489H79.7744C79.7744 95.028 84.6431 98.6253 90.8179 98.6253V98.8158C84.5718 98.8397 79.5844 95.171 79.5844 89.5489ZM90.8179 98.8397C97.064 98.8397 102.051 95.171 102.051 89.5727H101.861C101.861 95.0519 96.9928 98.6491 90.8179 98.6491V98.8397ZM130.574 90.9782H130.384C130.384 87.5478 128.081 85.9279 126.276 85.1894L126.347 85.0226C128.2 85.7611 130.574 87.4525 130.574 90.9782ZM126.347 85.2132L126.276 85.0465C127.796 84.4271 129.957 82.5927 129.957 79.734H130.147C130.147 82.6642 127.915 84.57 126.347 85.2132ZM130.147 79.7102C130.147 77.4471 129.268 75.5889 127.653 74.2787C126.038 72.9923 123.663 72.2538 120.695 72.2538V72.4443C123.64 72.4443 125.943 73.159 127.535 74.4216C129.102 75.6842 129.957 77.4947 129.957 79.7102H130.147ZM120.695 72.2776V72.4682H108.535V72.2776H120.695ZM108.464 72.3729H108.654V98.53H108.464V72.3729ZM108.559 98.6015V98.4108H121.217V98.6015H108.559ZM121.217 98.6015C123.925 98.6015 126.276 97.9344 127.938 96.648C129.601 95.3616 130.574 93.4558 130.574 90.9782H130.384C130.384 93.3843 129.434 95.2425 127.82 96.5051C126.205 97.7677 123.901 98.4108 121.217 98.4108V98.6015ZM124.471 90.74H124.661C124.661 91.6452 124.328 92.4791 123.663 93.0985C122.998 93.694 121.977 94.0752 120.623 94.0752V93.8846C121.953 93.8846 122.903 93.5273 123.545 92.9555C124.186 92.3838 124.471 91.5976 124.471 90.74ZM120.623 93.8608V94.0513H114.449V93.8608H120.623ZM114.544 93.956H114.354V87.524H114.544V93.956ZM114.449 87.6431V87.4525H120.623V87.6431H114.449ZM120.623 87.6431C121.953 87.6431 122.903 88.0004 123.545 88.5484C124.186 89.0963 124.495 89.8824 124.495 90.74H124.685C124.685 89.8347 124.352 89.001 123.687 88.4054C123.022 87.8099 122.001 87.4525 120.647 87.4525V87.6431H120.623ZM124.067 79.9246C124.067 80.8061 123.735 81.5207 123.093 82.021C122.452 82.5213 121.502 82.831 120.267 82.831V83.0215C121.526 83.0215 122.547 82.7119 123.212 82.1639C123.901 81.616 124.257 80.8299 124.257 79.9008H124.067V79.9246ZM120.243 82.8547V83.0454H114.449V82.8547H120.243ZM114.544 82.9501H114.354V76.923H114.544V82.9501ZM114.449 77.0183V76.8277H120.243V77.0183H114.449ZM120.243 77.0183V76.8277C121.502 76.8277 122.523 77.1374 123.188 77.6853C123.877 78.2332 124.233 79.0193 124.233 79.9484H124.043C124.043 79.067 123.711 78.3524 123.07 77.8521C122.428 77.328 121.478 77.0183 120.243 77.0183ZM160 98.4823L159.834 98.5538L148.79 72.3967L148.957 72.3252L160 98.4823ZM148.861 72.2776V72.4682H144.23V72.2776H148.861ZM144.135 72.3252L144.302 72.3967L133.282 98.5538L133.116 98.4823L144.135 72.3252ZM133.211 98.6015V98.4108H139.385V98.6015H133.211ZM139.457 98.5538L139.29 98.4823L141.119 93.8608L141.285 93.9323L139.457 98.5538ZM141.19 93.9799V93.7893H151.949V93.9799H141.19ZM151.878 93.9323L152.044 93.8608L153.825 98.4823L153.659 98.5538L151.878 93.9323ZM153.73 98.6015V98.4108H159.905V98.6015H153.73ZM150.382 89.5012V89.6919H142.853V89.5012H150.382ZM142.948 89.6203L142.782 89.5489L146.605 80.0437L146.772 80.1152L142.948 89.6203ZM146.605 80.1152L146.772 80.0437L150.477 89.5489L150.31 89.6203L146.605 80.1152Z" fill="white"/>
<path fill-rule="evenodd" clip-rule="evenodd" d="M122.975 0C123.616 0.0238225 123.996 0.452616 124.423 0.881421C126.608 3.26367 127.677 6.52735 127.582 9.74339C127.249 13.5788 124.589 19.7965 121.645 22.3217C120.671 22.941 119.127 22.5123 118.058 22.2979C117.108 22.0835 116.372 21.6546 115.731 20.9161C115.018 19.725 114.947 18.129 115.256 16.7949C115.921 14.4365 117.607 12.4116 119.127 10.5534C120.813 8.50468 121.953 6.62271 122.405 4.00223C122.428 3.83548 122.428 3.83542 122.476 3.64484C122.571 2.90634 122.547 2.16786 122.571 1.42936C122.571 1.31025 122.571 1.19115 122.571 1.07204C122.571 0.952929 122.571 0.857604 122.571 0.738491C122.642 0.404977 122.737 0.238225 122.975 0ZM124.542 6.55119C124.209 6.97999 123.972 7.43266 123.758 7.93293C122.951 9.6005 121.787 11.0298 120.623 12.4353C118.225 15.3179 118.225 15.3179 117.37 18.8913C117.441 19.3916 117.678 19.6535 118.058 19.9394C118.628 20.3206 119.175 20.5588 119.863 20.5827C120.766 20.2492 121.217 19.2009 121.645 18.391C121.74 18.2242 121.74 18.2242 121.835 18.0575C122.001 17.724 122.167 17.4143 122.333 17.1046C122.381 17.0093 122.428 16.9378 122.476 16.8425C123.853 14.1744 125.041 11.5539 125.041 8.52849V8.19494C125.041 7.64703 125.017 7.17059 124.78 6.6465C124.637 6.62267 124.637 6.62265 124.542 6.55119Z" fill="white"/>
<path fill-rule="evenodd" clip-rule="evenodd" d="M51.0375 4.19274C51.1088 4.21656 51.2037 4.26423 51.275 4.28805C52.2487 4.74068 53.1987 5.28856 54.1487 5.81265C57.2836 7.52787 60.4423 9.05254 63.7197 10.4581C64.5985 10.8154 65.4534 11.1966 66.3084 11.5777C66.4034 11.6254 66.4984 11.673 66.6172 11.7207C67.8521 12.2447 69.0633 12.7688 70.2745 13.3167C75.1907 15.5322 80.1544 17.6286 85.1655 19.6059C87.9442 20.6779 90.7228 21.7976 93.454 22.9887C93.5253 23.0125 93.5965 23.0363 93.6678 23.084C93.739 23.1078 93.8102 23.1316 93.8815 23.1793C94.5465 23.489 95.2353 23.7748 95.924 24.0607C96.0427 24.1083 96.1615 24.156 96.2802 24.2275C96.4702 24.2989 96.6365 24.3704 96.8265 24.4419C98.6314 25.2042 100.436 25.9665 102.194 26.7765C102.883 27.0862 103.548 27.3958 104.236 27.6817C110.34 30.326 115.351 33.8756 117.916 40.2362C118.652 42.1182 119.175 44.0954 119.388 46.0965C119.388 46.168 119.412 46.2633 119.412 46.3586C119.792 50.1225 118.628 54.077 116.254 57.031C114.306 59.3656 111.337 60.7473 108.345 61.0809C104.046 61.462 100.246 59.985 96.969 57.2692C96.0427 56.5069 95.1877 55.697 94.3565 54.8394C94.1665 54.625 93.9527 54.4344 93.739 54.22C93.5965 54.077 93.4778 53.9579 93.359 53.815C93.2878 53.7435 93.2403 53.6959 93.169 53.6483C92.8603 53.3386 92.5753 53.0288 92.2903 52.6953C91.7203 52.0521 91.1503 51.4804 90.5566 50.8848L90.1766 50.5037C89.9153 50.2416 89.6304 49.9795 89.3691 49.7175C89.0366 49.384 88.7041 49.0505 88.3716 48.6931C88.1104 48.4311 87.8492 48.1691 87.5879 47.907C87.4692 47.7641 87.3504 47.645 87.2079 47.5259C86.6142 46.9303 85.9967 46.3347 85.3555 45.7868C85.1892 45.62 85.023 45.4771 84.8567 45.3342C84.2393 44.7624 83.6217 44.2145 82.9567 43.7142C82.8855 43.6666 82.8142 43.6189 82.743 43.5475C82.363 43.2378 82.363 43.2378 81.8881 43.1663C81.5318 43.3331 81.2468 43.5236 80.9618 43.7619C80.9143 43.8095 80.8431 43.8572 80.7718 43.9049C80.5818 44.0716 80.3681 44.2384 80.1543 44.4051C80.1068 44.4528 80.0593 44.5004 79.9881 44.548C78.5868 45.6915 77.3282 46.9779 76.0457 48.2643C75.8082 48.5026 75.5707 48.7646 75.3094 49.0028C75.0719 49.2411 74.8345 49.4793 74.597 49.7175C74.4782 49.8366 74.3595 49.9319 74.2407 50.051C73.6707 50.6228 73.1245 51.1945 72.5782 51.8139C72.3882 52.0521 72.1745 52.2665 71.9608 52.4809C71.1058 53.4338 70.3695 54.4582 69.6096 55.4826C68.9683 56.3402 68.3508 57.1263 67.6146 57.8887C67.5434 57.9601 67.4721 58.0316 67.4009 58.1269C65.9759 59.6277 63.8859 60.5806 61.8197 60.6758C59.4685 60.7473 57.2361 60.0088 55.5024 58.3651C52.51 55.4349 52.2012 51.5757 52.1775 47.6212C52.2487 45.2389 52.2487 45.2389 51.5837 42.9758C51.5362 42.8805 51.5362 42.8805 51.4887 42.7852C51.085 42.0467 50.515 41.4511 49.8976 40.8794C49.8263 40.8079 49.7551 40.7126 49.6838 40.6411C48.5913 39.6168 47.0951 39.1165 45.6226 39.0451C43.8889 39.1165 42.559 39.9503 41.3715 41.1414C39.994 42.6423 39.0678 44.6433 38.5215 46.573C38.4978 46.6683 38.474 46.7397 38.4503 46.835C38.4028 47.0017 38.3553 47.1685 38.3078 47.3352C38.1653 47.8117 38.0466 48.1928 37.6428 48.5264C37.0016 48.7884 36.3128 48.7884 35.6241 48.7884H33.6292C33.4154 48.7884 33.2017 48.7884 32.988 48.7884H32.1567C31.8717 48.7408 31.8004 48.6217 31.6104 48.4073C31.5629 48.1929 31.563 48.1928 31.563 47.9308C31.563 47.8355 31.563 47.7402 31.563 47.6449V47.3352C31.563 47.2399 31.563 47.1209 31.563 47.0256C31.5392 45.9774 31.5155 44.9531 31.5155 43.9049V27.0623C31.5155 24.6801 31.8955 23.6557 33.5817 21.9167C33.9854 21.4879 34.3654 21.0352 34.7454 20.5588C34.9591 20.2729 35.1966 20.0109 35.4104 19.7488C35.9566 19.1294 36.4553 18.4863 36.9541 17.8431C37.4053 17.2237 37.8803 16.6519 38.4265 16.0801C38.7353 15.7466 38.9966 15.3893 39.2815 15.0319C39.709 14.484 40.1365 13.9838 40.6115 13.4835C40.9677 13.1023 41.3003 12.6974 41.609 12.3162C41.9653 11.8636 42.3453 11.4347 42.7252 11.0059C42.7965 10.9345 42.8677 10.863 42.9152 10.7915C43.034 10.6486 43.1765 10.5057 43.2952 10.3628C43.5802 10.0292 43.8889 9.69574 44.1739 9.33841C44.2214 9.29076 44.2927 9.21925 44.3402 9.14778C44.6727 8.76662 44.9814 8.38549 45.2902 7.98051C45.7651 7.38494 46.2876 6.83705 46.8101 6.28913C47.1663 5.93179 47.4751 5.57447 47.8076 5.19332C48.8288 3.97837 49.5651 3.52571 51.0375 4.19274ZM49.5888 6.64645L49.4225 6.81323C49.3038 6.95616 49.1613 7.09906 49.0188 7.21817C48.5201 7.71844 48.0451 8.21877 47.5939 8.76669C47.3326 9.1002 47.0476 9.40983 46.7864 9.74335C46.4064 10.1722 46.0501 10.601 45.6702 11.0536C44.9339 12.0065 44.1502 12.9118 43.3665 13.817C43.224 14.0076 43.0577 14.1743 42.9152 14.3649C42.4402 14.9367 41.9652 15.4846 41.4902 16.0325C40.944 16.6519 40.4215 17.2713 39.9228 17.8907C39.614 18.2718 39.3053 18.6291 38.9966 18.9865C38.5453 19.5106 38.0941 20.0586 37.6666 20.6065C37.4529 20.8685 37.2391 21.1067 37.0016 21.3687C36.4554 22.0119 35.9329 22.6551 35.4341 23.2983C35.3629 23.3698 35.3154 23.4413 35.2441 23.5366C35.0779 23.751 34.9116 23.9892 34.7454 24.2036C34.6979 24.2751 34.6504 24.3465 34.5791 24.418C33.7479 25.6091 33.7955 26.9908 33.8192 28.3726V32.1365C33.8192 33.0418 33.8192 33.9709 33.8192 34.8761V42.404C33.8192 42.9043 33.8192 43.4045 33.8192 43.9286V45.4771C33.7955 45.8344 33.7954 45.8345 33.9379 46.1203C34.6979 46.168 35.2679 45.8106 35.8378 45.3342C36.1703 44.9768 36.3841 44.6195 36.5978 44.1669C36.6453 44.0478 36.7166 43.9525 36.7641 43.8334C36.7879 43.7858 36.8116 43.7143 36.8591 43.6666C37.7141 41.9514 38.7115 40.3791 40.0652 38.9974C40.1602 38.9021 40.2315 38.8306 40.3028 38.7353C41.5852 37.3775 43.1289 36.6389 44.9814 36.5436C47.4513 36.496 49.9213 37.2107 51.7738 38.9021C51.8688 38.9736 51.94 39.0689 52.035 39.1404C53.5549 40.665 54.3862 42.9043 54.5762 45.0245C54.5762 45.1198 54.6 45.2151 54.6 45.3104C54.7187 46.6444 54.7424 47.9785 54.7899 49.3125C54.8612 52.1474 55.2886 54.5058 57.3548 56.6022L57.5449 56.7928C58.6373 57.8171 60.0861 58.103 61.5585 58.0792C63.5772 57.9601 65.1209 56.5307 66.4034 55.1014C66.9496 54.482 67.4484 53.815 67.9471 53.1479C68.7309 52.1236 69.5858 51.1469 70.4883 50.194C70.6308 50.0272 70.797 49.8605 70.9395 49.6937C71.6045 48.9552 72.2933 48.2406 73.0058 47.5497C73.362 47.2162 73.6707 46.8827 74.0032 46.5015C74.5495 45.8583 75.1669 45.2627 75.7844 44.6434C75.9982 44.429 76.1882 44.2145 76.4019 44.0239C77.0669 43.3569 77.7319 42.7137 78.4444 42.1182C78.4919 42.0705 78.5631 42.0228 78.6106 41.9752C79.2044 41.4749 79.7981 40.9985 80.4393 40.5459C80.4868 40.5221 80.5581 40.4744 80.6056 40.4267C81.5318 39.8073 81.5318 39.8074 82.173 39.9265C83.1468 40.2362 84.0017 41.0223 84.7617 41.6655C84.833 41.7132 84.8805 41.7608 84.9518 41.8085C85.7117 42.4517 86.4717 43.1187 87.2079 43.7857C87.4929 44.0478 87.7779 44.3098 88.0866 44.5719C88.5854 45.0007 89.0366 45.4533 89.5116 45.9297C89.6066 46.0012 89.7016 46.0965 89.7729 46.1918C89.9629 46.3586 90.1291 46.5491 90.3191 46.7397C90.6041 47.0017 90.8653 47.2877 91.1503 47.5497L91.934 48.3358C92.3853 48.7884 92.8128 49.241 93.2165 49.7175C93.454 49.9795 93.6915 50.2178 93.9527 50.4561C94.3565 50.8372 94.7127 51.2421 95.0927 51.6709C95.3777 52.0045 95.6864 52.2904 96.0189 52.6001C96.2802 52.8621 96.5414 53.148 96.7789 53.4339C99.0114 56.0067 102.123 58.0077 105.566 58.4604C106.017 58.4842 106.469 58.4842 106.92 58.4842H107.514C108.654 58.4842 109.77 58.3174 110.791 57.7695C110.862 57.7457 110.934 57.6981 110.981 57.6504C113.499 56.3164 115.565 53.9103 116.443 51.1945C117.108 48.9314 117.156 46.4776 116.586 44.2145C116.562 44.1192 116.538 44.0239 116.515 43.9286C116.182 42.5946 115.755 41.332 115.137 40.0933C115.114 40.0218 115.066 39.9265 115.018 39.855C114.449 38.6877 113.807 37.6633 113 36.639C112.929 36.5437 112.834 36.4245 112.762 36.3293C110.435 33.3753 107.514 31.6601 104.094 30.2545C103.5 30.0163 102.93 29.7543 102.336 29.5161C102.241 29.4922 102.17 29.4445 102.051 29.3969C101.861 29.3254 101.671 29.2302 101.481 29.1587C96.4227 26.9909 96.4227 26.9909 91.3166 24.966C89.2504 24.2036 87.2079 23.3222 85.1892 22.4408C84.0492 21.9405 82.8855 21.464 81.7218 20.9876C80.6293 20.5349 79.5368 20.0824 78.4444 19.6297C77.8031 19.3677 77.1619 19.1056 76.4969 18.8436C74.7157 18.1289 72.982 17.3427 71.2246 16.5328C70.6546 16.2707 70.0608 16.0087 69.4671 15.7228C69.3958 15.6752 69.3008 15.6514 69.2296 15.6037C69.0633 15.5323 68.8971 15.4608 68.7308 15.3893C67.3534 14.7461 65.9522 14.1267 64.5747 13.4835C64.4322 13.4359 64.3134 13.3644 64.1947 13.3167C64.1234 13.2929 64.076 13.2691 64.0047 13.2215C63.5772 13.0309 63.126 12.8165 62.6985 12.6259C58.4948 10.6963 58.4949 10.6963 56.8086 9.79104C56.0487 9.38606 55.2887 9.02869 54.5049 8.64753C53.745 8.29019 53.0087 7.90903 52.2725 7.52787C50.9425 6.64644 50.9425 6.64645 49.5888 6.64645Z" fill="white"/>
<path fill-rule="evenodd" clip-rule="evenodd" d="M45.0528 119.16V116.707H34.888V130.857H37.9042V125.116H43.9841V122.662H37.9042V119.184H45.0528V119.16ZM50.6814 130.857V116.707H47.6652V130.857H50.6814ZM64.1948 119.16V116.707H53.1276V119.16H57.165V130.833H60.1811V119.16H64.1948ZM78.4445 130.857V116.707H75.4283V125.378L69.3247 116.707H66.641V130.857H69.6572V122.186L75.7608 130.857H78.4445ZM92.1716 130.857V128.403H85.0231V124.973H91.103V122.519H85.0231V119.208H92.1716V116.754H82.0307V130.905H92.1716V130.857ZM105.091 126.664C105.091 125.402 104.711 124.377 103.904 123.663C103.263 123.115 102.36 122.757 100.959 122.567L99.1303 122.329C98.5128 122.257 98.0141 122.019 97.7053 121.781C97.3728 121.495 97.2541 121.114 97.2541 120.756C97.2541 119.78 98.0378 118.97 99.629 118.97C100.65 118.97 101.814 119.089 102.788 119.946L104.688 118.207C103.358 117.04 101.838 116.564 99.7003 116.564C96.3753 116.564 94.3329 118.326 94.3329 120.852C94.3329 122.043 94.6891 122.948 95.4253 123.639C96.114 124.258 97.0878 124.639 98.4178 124.806L100.27 125.044C100.983 125.14 101.339 125.283 101.624 125.545C101.956 125.831 102.099 126.236 102.099 126.736C102.099 127.879 101.149 128.475 99.3677 128.475C97.9428 128.475 96.6128 128.189 95.6391 127.284L93.6916 129.07C95.2116 130.476 96.9928 130.929 99.3203 130.929C102.598 130.976 105.091 129.404 105.091 126.664Z" fill="white"/>
<path fill-rule="evenodd" clip-rule="evenodd" d="M45.0527 116.707H45.1003V116.659H45.0527V116.707ZM34.9117 116.707V116.659H34.8642V116.707H34.9117ZM34.9117 130.857H34.8642V130.905H34.9117V130.857ZM37.9041 130.857V130.905H37.9517V130.857H37.9041ZM37.9041 125.116V125.068H37.8566V125.116H37.9041ZM43.984 125.116V125.163H44.0315V125.116H43.984ZM43.984 122.638H44.0315V122.591H43.984V122.638ZM37.9041 122.638H37.8566V122.686H37.9041V122.638ZM37.9041 119.16V119.136H37.8566V119.184H37.9041V119.16ZM50.6813 130.857V130.905H50.7289V130.857H50.6813ZM50.6813 116.707H50.7289V116.659H50.6813V116.707ZM47.6652 116.707V116.659H47.6177V116.707H47.6652ZM47.6652 130.857H47.6177V130.905H47.6652V130.857ZM64.1948 119.16V119.184H64.2423V119.16H64.1948ZM64.1948 116.707H64.2423V116.659H64.1948V116.707ZM53.1275 116.707V116.659H53.0801V116.707H53.1275ZM53.1275 119.16H53.0801V119.184H53.1275V119.16ZM57.165 119.16H57.2124V119.136H57.165V119.16ZM57.165 130.857H57.1175V130.905H57.165V130.857ZM60.1574 130.857V130.905H60.2049V130.857H60.1574ZM60.1574 119.16V119.136H60.1099V119.184H60.1574V119.16ZM78.4444 130.857V130.905H78.492V130.857H78.4444ZM78.4444 116.707H78.492V116.659H78.4444V116.707ZM75.4283 116.707V116.659H75.3808V116.707H75.4283ZM75.4283 125.354L75.4045 125.378L75.4758 125.473V125.354H75.4283ZM69.3247 116.707L69.3484 116.683V116.659H69.3247V116.707ZM66.641 116.707V116.659H66.5935V116.707H66.641ZM66.641 130.857H66.5935V130.905H66.641V130.857ZM69.6334 130.857V130.905H69.6809V130.857H69.6334ZM69.6334 122.162L69.6572 122.138L69.5859 122.043V122.162H69.6334ZM75.7607 130.857L75.737 130.881V130.905H75.7607V130.857ZM92.1716 128.38H92.2192V128.332H92.1716V128.38ZM85.0468 128.38H84.9993V128.427H85.0468V128.38ZM85.0468 124.949V124.901H84.9993V124.949H85.0468ZM91.1266 124.949V124.997H91.1742V124.949H91.1266ZM91.1266 122.495H91.1742V122.448H91.1266V122.495ZM85.0468 122.495H84.9993V122.543H85.0468V122.495ZM85.0468 119.16V119.136H84.9993V119.184H85.0468V119.16ZM92.1716 119.16V119.184H92.2192V119.16H92.1716ZM92.1716 116.707H92.2192V116.659H92.1716V116.707ZM82.0306 116.707V116.659H81.9832V116.707H82.0306ZM82.0306 130.857H81.9832V130.905H82.0306V130.857ZM102.788 119.97L102.764 119.994L102.788 120.018L102.811 119.994L102.788 119.97ZM104.688 118.231L104.711 118.255L104.735 118.231L104.711 118.207L104.688 118.231ZM95.6866 127.307L95.7103 127.284L95.6866 127.26L95.6628 127.284L95.6866 127.307ZM93.7391 129.094L93.7153 129.07L93.6916 129.094L93.7153 129.118L93.7391 129.094ZM45.1003 119.16H45.029V116.707H45.1003V119.16ZM45.0527 116.659V116.73H34.888V116.659H45.0527ZM34.8642 116.707H34.9354V130.857H34.8642V116.707ZM34.9117 130.881V130.809H37.9279V130.881H34.9117ZM37.9517 130.857H37.8804V125.116H37.9517V130.857ZM37.9041 125.14V125.068H43.984V125.14H37.9041ZM44.0315 125.116H43.9603V122.662H44.0315V125.116ZM43.984 122.614V122.686H37.9041V122.614H43.984ZM37.9517 122.638H37.8804V119.16H37.9517V122.638ZM37.9041 119.208V119.136H45.0527V119.208H37.9041ZM50.7289 130.857H50.6576V116.707H50.7289V130.857ZM50.6813 116.659V116.73H47.6652V116.659H50.6813ZM47.6414 116.707H47.7127V130.857H47.6414V116.707ZM47.6652 130.881V130.809H50.6813V130.881H47.6652ZM64.2185 119.16H64.1473V116.707H64.2185V119.16ZM64.1948 116.659V116.73H53.1275V116.659H64.1948ZM53.1038 116.707H53.1751V119.16H53.1038V116.707ZM53.1275 119.208V119.136H57.165V119.208H53.1275ZM57.1175 119.16H57.1887V130.833H57.1175V119.16ZM57.165 130.881V130.809H60.1811V130.881H57.165ZM60.2049 130.857H60.1336V119.184H60.2049V130.857ZM60.1574 119.208V119.136H64.1948V119.208H60.1574ZM78.4682 130.857H78.397V116.707H78.4682V130.857ZM78.4444 116.659V116.73H75.4283V116.659H78.4444ZM75.3808 116.707H75.4521V125.378H75.3808V116.707ZM75.4521 125.354L75.3808 125.402L69.2772 116.73L69.3247 116.683L75.4521 125.354ZM69.3247 116.659V116.73H66.641V116.659H69.3247ZM66.5935 116.707H66.6647V130.857H66.5935V116.707ZM66.641 130.881V130.809H69.6572V130.881H66.641ZM69.6809 130.857H69.6096V122.186H69.6809V130.857ZM69.6096 122.186L69.6572 122.138L75.7607 130.809L75.7133 130.857L69.6096 122.186ZM75.7607 130.881V130.809H78.4444V130.881H75.7607ZM92.2192 130.857H92.1479V128.403H92.2192V130.857ZM92.1716 128.356V128.427H85.0231V128.356H92.1716ZM85.0706 128.38H84.9993V124.949H85.0706V128.38ZM85.0468 124.973V124.901H91.1266V124.973H85.0468ZM91.1504 124.949H91.0792V122.495H91.1504V124.949ZM91.1266 122.448V122.519H85.0468V122.448H91.1266ZM85.0706 122.495H84.9993V119.184H85.0706V122.495ZM85.0468 119.208V119.136H92.1954V119.208H85.0468ZM92.2192 119.16H92.1479V116.707H92.2192V119.16ZM92.1716 116.659V116.73H82.0306V116.659H92.1716ZM81.9832 116.707H82.0544V130.857H81.9832V116.707ZM82.0306 130.881V130.809H92.1716V130.881H82.0306ZM105.115 126.664C105.115 125.402 104.735 124.354 103.904 123.639L103.856 123.686C104.664 124.401 105.044 125.426 105.044 126.664H105.115ZM103.904 123.639C103.239 123.067 102.36 122.71 100.935 122.543V122.614C102.336 122.781 103.215 123.139 103.856 123.686L103.904 123.639ZM100.959 122.543L99.1303 122.305V122.376L100.959 122.614V122.543ZM99.1303 122.305C98.5128 122.233 98.014 122.019 97.729 121.757L97.6815 121.804C97.9902 122.067 98.489 122.281 99.1303 122.376V122.305ZM97.729 121.757C97.4202 121.495 97.2777 121.114 97.2777 120.78H97.2065C97.2065 121.137 97.349 121.542 97.6815 121.828L97.729 121.757ZM97.2777 120.78H97.2065C97.2065 120.28 97.3965 119.827 97.8002 119.494C98.204 119.16 98.7977 118.946 99.6052 118.946V119.017C98.7977 119.017 98.2278 119.208 97.8478 119.541C97.4678 119.875 97.2777 120.304 97.2777 120.78ZM99.629 119.017V118.946C100.65 118.946 101.838 119.065 102.811 119.922L102.764 119.97C101.79 119.136 100.65 119.017 99.629 119.017ZM102.811 119.994L102.764 119.946L104.664 118.207L104.711 118.255L102.811 119.994ZM104.711 118.207L104.664 118.255C103.358 117.088 101.814 116.611 99.7002 116.611V116.54C101.838 116.54 103.381 117.016 104.711 118.207ZM99.724 116.54V116.611C98.0615 116.611 96.7315 117.04 95.8053 117.802C94.8791 118.541 94.3804 119.613 94.3804 120.875H94.3091C94.3091 119.613 94.8316 118.517 95.7578 117.755C96.684 116.992 98.0378 116.54 99.724 116.54ZM94.3091 120.875H94.3804C94.3804 122.067 94.7366 122.972 95.4728 123.639L95.4253 123.686C94.689 122.996 94.3091 122.067 94.3091 120.875ZM95.4253 123.686L95.4728 123.639C96.1616 124.258 97.1353 124.616 98.4415 124.806V124.878C97.1115 124.687 96.114 124.306 95.4253 123.686ZM98.4415 124.854V124.782L100.294 125.021V125.092L98.4415 124.854ZM100.294 125.092V125.021C101.006 125.116 101.363 125.259 101.671 125.521L101.624 125.568C101.339 125.33 101.006 125.211 100.294 125.092ZM101.648 125.592L101.695 125.545C102.028 125.831 102.194 126.259 102.194 126.76H102.123C102.099 126.259 101.956 125.854 101.648 125.592ZM102.099 126.76C102.099 127.308 101.861 127.736 101.41 128.022C100.959 128.308 100.294 128.475 99.3915 128.475V128.546C100.294 128.546 100.983 128.403 101.434 128.094C101.909 127.784 102.146 127.331 102.146 126.76H102.099ZM99.4152 128.475V128.546C97.9903 128.546 96.6603 128.237 95.6628 127.355L95.7103 127.307C96.6841 128.165 97.9903 128.475 99.4152 128.475ZM95.6628 127.284L95.7103 127.331L93.7629 129.118L93.7153 129.07L95.6628 127.284ZM93.7153 129.118L93.7629 129.07C95.2591 130.476 97.0403 130.929 99.3677 130.929V131C97.0165 131 95.2353 130.547 93.7153 129.118ZM99.3677 131V130.929C100.983 130.929 102.408 130.547 103.405 129.809C104.426 129.094 105.044 128.022 105.044 126.664H105.115C105.115 128.046 104.498 129.142 103.453 129.856C102.431 130.619 100.983 131 99.3677 131Z" fill="white"/>
<path fill-rule="evenodd" clip-rule="evenodd" d="M117.75 126.664C117.75 125.402 117.394 124.377 116.562 123.663C115.921 123.115 115.019 122.757 113.617 122.567L111.789 122.329C111.171 122.257 110.672 122.019 110.364 121.781C110.031 121.495 109.912 121.114 109.912 120.756C109.912 119.78 110.696 118.97 112.287 118.97C113.309 118.97 114.472 119.089 115.446 119.946L117.346 118.207C116.016 117.04 114.496 116.564 112.359 116.564C109.034 116.564 106.991 118.326 106.991 120.852C106.991 122.043 107.371 122.948 108.084 123.639C108.773 124.258 109.746 124.639 111.076 124.806L112.929 125.044C113.641 125.14 113.997 125.283 114.282 125.545C114.615 125.831 114.757 126.236 114.757 126.736C114.757 127.879 113.807 128.475 112.026 128.475C110.601 128.475 109.271 128.189 108.298 127.284L106.35 129.07C107.87 130.476 109.651 130.929 111.979 130.929C115.256 130.976 117.75 129.404 117.75 126.664Z" fill="white"/>
<path fill-rule="evenodd" clip-rule="evenodd" d="M115.446 119.97L115.422 119.994L115.446 120.018L115.47 119.994L115.446 119.97ZM117.37 118.231L117.394 118.255L117.417 118.231L117.394 118.207L117.37 118.231ZM108.345 127.307L108.369 127.284L108.345 127.26L108.321 127.284L108.345 127.307ZM106.398 129.094L106.374 129.07L106.35 129.094L106.374 129.118L106.398 129.094ZM117.774 126.664C117.774 125.402 117.394 124.354 116.562 123.639L116.515 123.686C117.322 124.401 117.702 125.426 117.702 126.664H117.774ZM116.586 123.639C115.921 123.067 115.042 122.71 113.617 122.543V122.614C115.019 122.781 115.897 123.139 116.539 123.686L116.586 123.639ZM113.617 122.543V122.614L111.789 122.376V122.305L113.617 122.543ZM111.789 122.305C111.171 122.233 110.673 122.019 110.388 121.757L110.34 121.804C110.649 122.067 111.147 122.281 111.789 122.376V122.305ZM110.388 121.757C110.079 121.495 109.936 121.114 109.936 120.78H109.865C109.865 121.137 110.007 121.542 110.34 121.828L110.388 121.757ZM109.96 120.78H109.889C109.889 120.28 110.079 119.827 110.483 119.494C110.886 119.16 111.48 118.946 112.287 118.946V119.017C111.504 119.017 110.91 119.208 110.53 119.541C110.15 119.875 109.96 120.304 109.96 120.78ZM112.287 119.017V118.946C113.309 118.946 114.496 119.065 115.47 119.922L115.422 119.97C114.472 119.136 113.309 119.017 112.287 119.017ZM115.47 119.994L115.422 119.946L117.322 118.207L117.37 118.255L115.47 119.994ZM117.394 118.207L117.346 118.255C116.04 117.088 114.496 116.611 112.382 116.611V116.54C114.52 116.54 116.064 117.016 117.394 118.207ZM112.382 116.54V116.611C110.72 116.611 109.39 117.04 108.464 117.802C107.538 118.541 107.039 119.613 107.039 120.875H106.968C106.968 119.613 107.49 118.517 108.416 117.755C109.366 116.992 110.696 116.54 112.382 116.54ZM106.968 120.875H107.039C107.039 122.067 107.395 122.972 108.131 123.639L108.084 123.686C107.348 122.996 106.968 122.067 106.968 120.875ZM108.084 123.686L108.131 123.639C108.82 124.258 109.794 124.616 111.1 124.806V124.878C109.77 124.687 108.796 124.306 108.084 123.686ZM111.1 124.854L112.952 125.092V125.021L111.1 124.782V124.854ZM112.952 125.092C113.665 125.187 113.997 125.33 114.306 125.568L114.354 125.521C114.045 125.259 113.689 125.116 112.976 125.021L112.952 125.092ZM114.306 125.592C114.615 125.854 114.757 126.259 114.757 126.76H114.829C114.829 126.259 114.686 125.831 114.33 125.545L114.306 125.592ZM114.757 126.76H114.829C114.829 127.331 114.591 127.784 114.116 128.094C113.641 128.403 112.952 128.546 112.074 128.546V128.475C112.952 128.475 113.641 128.332 114.092 128.022C114.544 127.736 114.757 127.308 114.757 126.76ZM112.074 128.475V128.546C110.649 128.546 109.319 128.237 108.321 127.355L108.369 127.307C109.343 128.165 110.649 128.475 112.074 128.475ZM108.321 127.284L108.369 127.331L106.421 129.118L106.374 129.07L108.321 127.284ZM106.374 129.118L106.421 129.07C107.918 130.476 109.699 130.929 112.026 130.929V131C109.699 131 107.894 130.547 106.374 129.118ZM112.026 131V130.929C113.641 130.929 115.042 130.547 116.064 129.809C117.085 129.094 117.702 128.022 117.702 126.664H117.774C117.774 128.046 117.156 129.142 116.111 129.856C115.09 130.619 113.641 131 112.026 131Z" fill="white"/>
</svg>
