<svg width="116" height="31" viewBox="0 0 116 31" fill="none" xmlns="http://www.w3.org/2000/svg">
<path fill-rule="evenodd" clip-rule="evenodd" d="M60.339 15.1473V13.2017H55.2192L60.339 5.69414V3.9624H52.6967V5.90805H57.5822L52.4811 13.385V15.1473H60.339ZM71.6384 15.1473L67.278 3.9624H65.4495L61.0986 15.1473H63.5366L64.2586 13.1711H68.5064L69.2097 15.1473H71.6384ZM67.8782 11.3375H64.9056L66.4153 7.27305L67.8782 11.3375ZM82.1688 15.1473L79.4963 10.329C80.6591 9.93175 81.6812 8.96402 81.6812 7.39528C81.6812 5.53113 80.2371 3.9726 77.7991 3.9726H73.1199V15.1575H75.4548V10.6958H77.1333L79.4682 15.1575H82.1688V15.1473ZM79.3463 7.39528C79.3463 8.26114 78.6711 8.87235 77.649 8.87235H75.4548V5.91824H77.649C78.6711 5.91824 79.3463 6.52942 79.3463 7.39528ZM92.7086 11.3171V3.9726H90.3924V11.2458C90.3924 12.5293 89.5673 13.3035 88.3107 13.3035C87.0542 13.3035 86.2478 12.5293 86.2478 11.2458V3.9726H83.9129V11.3171C83.9129 13.6906 85.8633 15.239 88.3107 15.239C90.7581 15.2492 92.7086 13.6906 92.7086 11.3171ZM103.97 11.9283C103.97 10.4411 103.051 9.72802 102.329 9.41224C102.93 9.14739 103.811 8.34266 103.811 7.09989C103.811 5.18481 102.451 3.9624 100.116 3.9624H95.3154V15.1473H100.313C102.442 15.1473 103.97 14.0166 103.97 11.9283ZM101.636 11.8265C101.636 12.5803 101.129 13.2119 100.07 13.2119H97.6315V10.4615H100.07C101.129 10.4615 101.636 11.0727 101.636 11.8265ZM101.467 7.20177C101.467 7.97595 100.913 8.48526 99.9195 8.48526H97.6409V5.90805H99.9195C100.913 5.91823 101.467 6.43777 101.467 7.20177ZM115.589 15.1473L111.228 3.9624H109.4L105.049 15.1473H107.487L108.209 13.1711H112.457L113.16 15.1473H115.589ZM111.828 11.3375H108.856L110.366 7.27305L111.828 11.3375Z" fill="black"/>
<path fill-rule="evenodd" clip-rule="evenodd" d="M60.339 13.2009H60.3765V13.1601H60.339V13.2009ZM55.2192 13.2009L55.191 13.1805L55.1441 13.2416H55.2192V13.2009ZM60.339 5.69336L60.3671 5.71372L60.3765 5.70355V5.69336H60.339ZM60.339 3.97182H60.3765V3.93106H60.339V3.97182ZM52.7061 3.97182V3.93106H52.6686V3.97182H52.7061ZM52.7061 5.91746H52.6686V5.95822H52.7061V5.91746ZM57.5915 5.91746L57.6197 5.93783L57.6666 5.87671H57.5915V5.91746ZM52.4904 13.3944L52.4623 13.3741H52.4529V13.3842H52.4904V13.3944ZM52.4904 15.1465H52.4529V15.1873H52.4904V15.1465ZM67.278 3.97182L67.3155 3.95146L67.3062 3.93106H67.278V3.97182ZM65.4495 3.97182V3.93106H65.4214L65.412 3.95146L65.4495 3.97182ZM61.0986 15.1465L61.061 15.1262L61.0423 15.1873H61.0986V15.1465ZM63.5366 15.1465V15.1873H63.5647L63.5741 15.1567L63.5366 15.1465ZM64.2586 13.1703V13.1296H64.2305L64.2211 13.1601L64.2586 13.1703ZM68.497 13.1703L68.5345 13.1601L68.5252 13.1296H68.497V13.1703ZM69.2097 15.1465L69.1722 15.1567L69.1816 15.1873H69.2097V15.1465ZM67.8782 11.3367V11.3775H67.9344L67.9157 11.3265L67.8782 11.3367ZM64.9056 11.3367L64.8681 11.3265L64.8494 11.3877H64.9056V11.3367ZM66.4153 7.27227L66.4528 7.2621L66.4153 7.1704L66.3778 7.2621L66.4153 7.27227ZM79.4963 10.3282L79.4869 10.2875L79.44 10.3079L79.4682 10.3486L79.4963 10.3282ZM73.1199 3.97182V3.93106H73.0824V3.97182H73.1199ZM73.1199 15.1465H73.0824V15.1873H73.1199V15.1465ZM75.4548 15.1465V15.1873H75.4923V15.1465H75.4548ZM75.4548 10.695V10.6542H75.4173V10.695H75.4548ZM77.1333 10.695L77.1614 10.6746L77.152 10.6542H77.1333V10.695ZM79.4588 15.1465L79.4213 15.1669L79.4307 15.1873H79.4494V15.1465H79.4588ZM75.4548 8.87157H75.4173V8.91233H75.4548V8.87157ZM75.4548 5.91746V5.87671H75.4173V5.91746H75.4548ZM92.7085 3.97182H92.7461V3.93106H92.7085V3.97182ZM90.3924 3.97182V3.93106H90.3549V3.97182H90.3924ZM86.2478 3.97182H86.2853V3.93106H86.2478V3.97182ZM83.9129 3.97182V3.93106H83.8754V3.97182H83.9129ZM102.32 9.42166L102.311 9.3809L102.226 9.42166L102.311 9.46238L102.32 9.42166ZM95.306 3.97182V3.93106H95.2685V3.97182H95.306ZM95.306 15.1465H95.2685V15.1873H95.306V15.1465ZM97.6409 13.2009H97.6034V13.2416H97.6409V13.2009ZM97.6409 10.4607V10.4199H97.6034V10.4607H97.6409ZM97.6409 8.49467H97.6034V8.53543H97.6409V8.49467ZM97.6409 5.91746V5.87671H97.6034V5.91746H97.6409ZM111.219 3.97182L111.256 3.95146L111.247 3.93106H111.219V3.97182ZM109.39 3.97182V3.93106H109.362L109.353 3.95146L109.39 3.97182ZM105.039 15.1465L105.002 15.1262L104.983 15.1873H105.039V15.1465ZM107.477 15.1465V15.1873H107.506L107.515 15.1567L107.477 15.1465ZM108.199 13.1703V13.1296H108.171L108.162 13.1601L108.199 13.1703ZM112.447 13.1703L112.485 13.1601L112.475 13.1296H112.447V13.1703ZM113.151 15.1465L113.113 15.1567L113.122 15.1873H113.151V15.1465ZM111.828 11.3367V11.3775H111.885L111.866 11.3265L111.828 11.3367ZM108.856 11.3367L108.818 11.3265L108.8 11.3877H108.856V11.3367ZM110.366 7.27227L110.403 7.2621L110.366 7.1704L110.328 7.2621L110.366 7.27227ZM60.3765 15.1465H60.3015V13.2009H60.3765V15.1465ZM60.339 13.1601V13.2416H55.2192V13.1601H60.339ZM55.2567 13.2314L55.2004 13.1805L60.3203 5.67299L60.3765 5.72392L55.2567 13.2314ZM60.3765 5.69336H60.3015V3.96162H60.3765V5.69336ZM60.339 3.93106V4.01257H52.6967V3.93106H60.339ZM52.6686 3.97182H52.7436V5.91746H52.6686V3.97182ZM52.7061 5.95822V5.87671H57.5915V5.95822H52.7061ZM57.5634 5.89707L57.6197 5.94802L52.5186 13.425L52.4623 13.3741L57.5634 5.89707ZM52.4529 13.3944H52.5279V15.1567H52.4529V13.3944ZM52.4904 15.1873V15.1058H60.3484V15.1873H52.4904ZM71.6759 15.1363L71.6102 15.1669L67.2499 3.98202L67.3155 3.95146L71.6759 15.1363ZM67.278 3.93106V4.01257H65.4495V3.93106H67.278ZM65.412 3.95146L65.4776 3.98202L61.1267 15.1669L61.061 15.1363L65.412 3.95146ZM61.0986 15.1873V15.1058H63.5366V15.1873H61.0986ZM63.5647 15.1669L63.4991 15.1363L64.2211 13.1601L64.2867 13.1907L63.5647 15.1669ZM64.2586 13.2111V13.1296H68.5064V13.2111H64.2586ZM68.4689 13.1907L68.5345 13.1601L69.2378 15.1363L69.1722 15.1669L68.4689 13.1907ZM69.2097 15.1873V15.1058H71.6477V15.1873H69.2097ZM67.8782 11.296V11.3775H64.9056V11.296H67.8782ZM64.9431 11.3469L64.8775 11.3163L66.3872 7.25191L66.4528 7.28246L64.9431 11.3469ZM66.3872 7.28246L66.4528 7.25191L67.9157 11.3163L67.85 11.3469L66.3872 7.28246ZM82.1969 15.1262L82.1313 15.1669L79.4588 10.3486L79.5244 10.3079L82.1969 15.1262ZM79.5057 10.369L79.4869 10.2875C80.6309 9.90043 81.6437 8.93268 81.6437 7.3945H81.7187C81.7187 8.98361 80.6778 9.97173 79.5057 10.369ZM81.7187 7.3945C81.7187 5.49979 80.2558 3.93106 77.7991 3.93106V4.01257C80.2183 4.01257 81.6343 5.55073 81.6343 7.3945H81.7187ZM77.7991 3.93106V4.01257H73.1199V3.93106H77.7991ZM73.0824 3.97182H73.1574V15.1567H73.0824V3.97182ZM73.1199 15.1873V15.1058H75.4548V15.1873H73.1199ZM75.4923 15.1465H75.4173V10.6848H75.4923V15.1465ZM75.4548 10.7357V10.6542H77.1333V10.7357H75.4548ZM77.0958 10.7153L77.1614 10.6746L79.4963 15.1363L79.4307 15.1771L77.0958 10.7153ZM79.4588 15.1873V15.1058H82.1594V15.1873H79.4588ZM79.3088 7.3945H79.3838C79.3838 7.84271 79.215 8.21962 78.9056 8.48448C78.6055 8.74933 78.1648 8.91233 77.649 8.91233V8.83082C78.1554 8.83082 78.568 8.67802 78.8587 8.42336C79.14 8.16869 79.3088 7.81215 79.3088 7.3945ZM77.649 8.83082V8.91233H75.4548V8.83082H77.649ZM75.4923 8.87157H75.4173V5.91746H75.4923V8.87157ZM75.4548 5.95822V5.87671H77.649V5.95822H75.4548ZM77.649 5.95822V5.87671C78.1648 5.87671 78.5961 6.02952 78.9056 6.30456C79.2056 6.56941 79.3838 6.95648 79.3838 7.3945H79.3088C79.3088 6.97685 79.1494 6.62034 78.8587 6.36568C78.568 6.11101 78.1554 5.95822 77.649 5.95822ZM92.7461 11.3163H92.671V3.97182H92.7461V11.3163ZM92.7085 3.93106V4.01257H90.3924V3.93106H92.7085ZM90.3549 3.97182H90.4299V11.245H90.3549V3.97182ZM90.3549 11.245C90.3549 11.8766 90.1486 12.3859 89.8017 12.7221C89.4453 13.0684 88.939 13.262 88.3107 13.262V13.3435C88.9484 13.3435 89.4735 13.1499 89.8486 12.7832C90.2236 12.4165 90.4299 11.897 90.4299 11.245H90.3549ZM88.3107 13.262V13.3435C87.6731 13.3435 87.148 13.1499 86.7823 12.7832C86.4166 12.4165 86.2103 11.897 86.2103 11.245H86.2853C86.2853 11.8766 86.4822 12.3859 86.8292 12.7221C87.1761 13.0684 87.6825 13.262 88.3107 13.262ZM86.2853 11.245H86.2103V3.97182H86.2853V11.245ZM86.2478 3.93106V4.01257H83.9129V3.93106H86.2478ZM83.8754 3.97182H83.9504V11.3163H83.8754V3.97182ZM83.8754 11.3163H83.9504C83.9504 13.6593 85.8727 15.1974 88.3107 15.1974V15.279C85.8446 15.2891 83.8754 13.7204 83.8754 11.3163ZM88.3107 15.2891C90.7769 15.2891 92.7461 13.7204 92.7461 11.3265H92.671C92.671 13.6695 90.7488 15.2076 88.3107 15.2076V15.2891ZM104.008 11.9276H103.933C103.933 10.4607 103.023 9.768 102.311 9.45222L102.339 9.3809C103.07 9.69669 104.008 10.4199 104.008 11.9276ZM102.339 9.46238L102.311 9.3911C102.911 9.12625 103.764 8.34187 103.764 7.11947H103.839C103.839 8.37243 102.948 9.18734 102.339 9.46238ZM103.839 7.10928C103.839 6.14155 103.492 5.347 102.855 4.78673C102.217 4.23666 101.279 3.9209 100.107 3.9209V4.00238C101.27 4.00238 102.179 4.30796 102.808 4.84785C103.427 5.38774 103.764 6.16192 103.764 7.10928H103.839ZM100.107 3.93106V4.01257H95.306V3.93106H100.107ZM95.2685 3.97182H95.3435V15.1567H95.2685V3.97182ZM95.306 15.1873V15.1058H100.304V15.1873H95.306ZM100.313 15.1873C101.382 15.1873 102.311 14.902 102.967 14.352C103.623 13.8019 104.008 12.987 104.008 11.9276H103.933C103.933 12.9564 103.558 13.751 102.92 14.2909C102.283 14.8307 101.373 15.1058 100.313 15.1058V15.1873ZM101.598 11.8257H101.673C101.673 12.2128 101.542 12.5693 101.279 12.8342C101.017 13.0888 100.613 13.2518 100.079 13.2518V13.1703C100.604 13.1703 100.979 13.0175 101.232 12.773C101.485 12.5285 101.598 12.1924 101.598 11.8257ZM100.079 13.1601V13.2416H97.6409V13.1601H100.079ZM97.6784 13.2009H97.6034V10.4505H97.6784V13.2009ZM97.6409 10.5014V10.4199H100.079V10.5014H97.6409ZM100.079 10.5014C100.604 10.5014 100.979 10.6542 101.232 10.8885C101.485 11.1228 101.607 11.459 101.607 11.8257H101.682C101.682 11.4386 101.551 11.0821 101.289 10.8274C101.026 10.5727 100.623 10.4199 100.088 10.4199V10.5014H100.079ZM101.429 7.20099C101.429 7.57789 101.298 7.88346 101.045 8.09738C100.792 8.3113 100.416 8.44372 99.9289 8.44372V8.52523C100.426 8.52523 100.829 8.39279 101.092 8.1585C101.364 7.92421 101.504 7.58807 101.504 7.19079H101.429V7.20099ZM99.9289 8.45392V8.53543H97.6503V8.45392H99.9289ZM97.6784 8.49467H97.6034V5.91746H97.6784V8.49467ZM97.6409 5.95822V5.87671H99.9195V5.95822H97.6409ZM99.9289 5.95822V5.87671C100.426 5.87671 100.829 6.00915 101.092 6.24344C101.364 6.47773 101.504 6.81387 101.504 7.21115H101.429C101.429 6.83425 101.298 6.52864 101.045 6.31472C100.792 6.09062 100.416 5.95822 99.9289 5.95822ZM115.617 15.1363L115.551 15.1669L111.191 3.98202L111.256 3.95146L115.617 15.1363ZM111.219 3.93106V4.01257H109.39V3.93106H111.219ZM109.353 3.95146L109.418 3.98202L105.067 15.1669L105.002 15.1363L109.353 3.95146ZM105.039 15.1873V15.1058H107.477V15.1873H105.039ZM107.515 15.1669L107.449 15.1363L108.171 13.1601L108.237 13.1907L107.515 15.1669ZM108.199 13.2111V13.1296H112.447V13.2111H108.199ZM112.41 13.1907L112.475 13.1601L113.179 15.1363L113.113 15.1669L112.41 13.1907ZM113.151 15.1873V15.1058H115.589V15.1873H113.151ZM111.828 11.296V11.3775H108.856V11.296H111.828ZM108.893 11.3469L108.828 11.3163L110.337 7.25191L110.403 7.28246L108.893 11.3469ZM110.328 7.28246L110.394 7.25191L111.856 11.3163L111.791 11.3469L110.328 7.28246Z" fill="black"/>
<path fill-rule="evenodd" clip-rule="evenodd" d="M42.11 0.335449C42.4007 0.345636 42.5789 0.54936 42.7664 0.773466C43.751 1.94492 44.2386 3.54424 44.2011 5.12316C44.0511 7.00769 42.8415 10.0535 41.5005 11.3064C41.0598 11.612 40.3659 11.4083 39.8783 11.286C39.447 11.1842 39.1188 10.9703 38.8187 10.6137C38.4905 10.0331 38.4624 9.24874 38.603 8.5968C38.9031 7.43553 39.672 6.44742 40.3659 5.53062C41.1255 4.52215 41.6412 3.60535 41.8569 2.31165C41.8756 2.21997 41.8756 2.21999 41.885 2.1385C41.9319 1.78197 41.9225 1.41524 41.9225 1.04852C41.9319 0.987404 41.9319 0.926292 41.9319 0.865172C41.9319 0.814239 41.9319 0.753116 41.9319 0.702183C41.96 0.539197 42.0069 0.457688 42.11 0.335449ZM42.8133 3.56462C42.6633 3.77853 42.5601 4.00264 42.457 4.23693C42.0913 5.05186 41.5662 5.75472 41.0317 6.44741C39.944 7.86335 39.9439 7.86336 39.5595 9.61546C39.5876 9.85994 39.7001 9.98215 39.8689 10.135C40.1315 10.3285 40.3659 10.4304 40.6847 10.4507C41.0879 10.2878 41.3036 9.76825 41.4912 9.38116C41.5287 9.29966 41.5287 9.29966 41.5755 9.21817C41.6506 9.05518 41.7256 8.90239 41.8006 8.74959C41.8194 8.70885 41.8381 8.6681 41.8662 8.62736C42.4945 7.32347 43.029 6.02976 43.0384 4.54252V4.37953C43.0384 4.10449 43.029 3.8702 42.9258 3.61554C42.8696 3.59516 42.8696 3.59518 42.8133 3.56462Z" fill="black"/>
<path fill-rule="evenodd" clip-rule="evenodd" d="M9.48732 2.40342C9.52483 2.42379 9.56233 2.434 9.59047 2.45437C10.0312 2.67848 10.4625 2.94331 10.8939 3.19797C12.3098 4.04346 13.7539 4.79729 15.2354 5.47979C15.6293 5.66315 16.0231 5.84649 16.417 6.02985C16.4638 6.05022 16.5107 6.07059 16.5576 6.09096C17.1109 6.34563 17.6641 6.60031 18.2174 6.87535C20.4491 7.96532 22.6996 8.99416 24.9782 9.96189C26.2441 10.4916 27.5006 11.0417 28.7384 11.6325C28.7759 11.6427 28.804 11.663 28.8322 11.6732C28.8697 11.6936 28.8978 11.7038 28.9353 11.714C29.2354 11.8566 29.5542 11.9992 29.8636 12.1418C29.9105 12.1724 29.9668 12.1927 30.023 12.2131C30.1074 12.2437 30.1824 12.2844 30.2668 12.3252C31.0826 12.7021 31.8985 13.079 32.7049 13.4762C33.0143 13.629 33.3238 13.7717 33.6332 13.9143C36.4088 15.208 38.6687 16.9601 39.8314 20.0772C40.169 21.0042 40.4034 21.9719 40.4972 22.96C40.4972 23.0007 40.5066 23.0415 40.516 23.0822C40.6847 24.9362 40.1596 26.8716 39.0813 28.3181C38.1998 29.4692 36.8495 30.1415 35.4899 30.3045C33.5394 30.4981 31.8141 29.7646 30.3231 28.4404C29.9105 28.0635 29.5167 27.6662 29.1322 27.2486C29.0385 27.1467 28.9541 27.0448 28.8509 26.9531C28.7947 26.892 28.729 26.8207 28.6727 26.7596C28.6446 26.729 28.6165 26.6985 28.5884 26.6679C28.4477 26.5151 28.3164 26.3623 28.1945 26.1993C27.9413 25.8836 27.6694 25.6085 27.4068 25.3131L27.2381 25.1297C27.1162 24.9973 26.9943 24.8649 26.8724 24.7426C26.7223 24.5695 26.5723 24.4065 26.4129 24.2435C26.291 24.1111 26.1785 23.9888 26.0566 23.8564C26.0003 23.7953 25.944 23.7342 25.8878 23.673C25.6158 23.3776 25.3439 23.0822 25.0438 22.8174C24.9688 22.7359 24.8938 22.6748 24.8188 22.5933C24.5375 22.308 24.2562 22.0432 23.9561 21.7987C23.928 21.7682 23.8905 21.7478 23.8623 21.7274C23.6842 21.5848 23.6842 21.5848 23.4685 21.5441C23.3091 21.6255 23.1778 21.7274 23.0465 21.8395C23.0184 21.8598 22.9903 21.8904 22.9621 21.9108C22.8684 21.9922 22.7746 22.0738 22.6808 22.1553C22.6527 22.1756 22.6339 22.196 22.6058 22.2164C21.9682 22.7766 21.4055 23.4082 20.8242 24.0398C20.7116 24.162 20.6085 24.2842 20.496 24.3963C20.3834 24.5083 20.2803 24.6306 20.1678 24.7426C20.1209 24.7936 20.0646 24.8547 20.0084 24.9056C19.7552 25.1807 19.4926 25.4659 19.2582 25.7715C19.1644 25.8835 19.08 25.9854 18.9769 26.0975C18.5924 26.566 18.2549 27.0652 17.9173 27.5643C17.6266 27.982 17.3453 28.3691 17.0077 28.746C16.9796 28.7867 16.9515 28.8173 16.9139 28.858C16.2669 29.6016 15.3198 30.0702 14.3821 30.111C13.3132 30.1415 12.3098 29.7748 11.5221 28.9701C10.1625 27.5236 10.0312 25.6391 10.0124 23.6832C10.0406 22.5118 10.0406 22.5118 9.7405 21.4014C9.72175 21.3505 9.72174 21.3505 9.69361 21.2996C9.50607 20.9431 9.2529 20.6476 8.97159 20.3624C8.94346 20.3217 8.90595 20.2809 8.86844 20.2504C8.37146 19.741 7.69631 19.4965 7.02117 19.466C6.23349 19.4965 5.63336 19.904 5.09887 20.4948C4.47061 21.2283 4.04864 22.2062 3.80483 23.1637C3.78608 23.2045 3.77671 23.2452 3.76733 23.286C3.74858 23.3674 3.72983 23.449 3.71107 23.5305C3.65481 23.7647 3.58916 23.9481 3.411 24.1213C3.12031 24.2435 2.81087 24.2435 2.50143 24.2435H1.60124C1.50747 24.2537 1.4137 24.2537 1.31055 24.2537H0.935462C0.804183 24.2231 0.766671 24.1722 0.682278 24.0703C0.663524 23.9583 0.663525 23.9583 0.654148 23.836C0.654148 23.7851 0.654153 23.7443 0.644776 23.6934V23.5508C0.635399 23.4999 0.635404 23.449 0.635404 23.398C0.61665 22.8887 0.616646 22.3794 0.616646 21.87V13.5985C0.616646 12.4271 0.79481 11.9177 1.55435 11.0722C1.74189 10.8583 1.91067 10.6342 2.08883 10.4101C2.1826 10.2777 2.29514 10.1452 2.38891 10.0128C2.63271 9.70721 2.85776 9.39145 3.08281 9.07566C3.28911 8.77006 3.50477 8.49502 3.74857 8.20979C3.88923 8.04681 4.01113 7.87363 4.14241 7.69027C4.33933 7.42542 4.53624 7.17075 4.74254 6.92627C4.90195 6.73273 5.05198 6.53917 5.20202 6.34563C5.3708 6.13171 5.53959 5.91782 5.699 5.7039C5.72713 5.66315 5.75526 5.63259 5.78339 5.60203C5.83965 5.53072 5.89592 5.45939 5.95218 5.38809C6.08346 5.2251 6.22411 5.05194 6.35539 4.88895C6.38352 4.85839 6.40228 4.82784 6.43041 4.79728C6.58044 4.60373 6.7211 4.42038 6.86176 4.22683C7.07743 3.94161 7.31185 3.66656 7.54628 3.39152C7.70569 3.21835 7.84634 3.04518 7.99637 2.85163C8.48398 2.29137 8.82155 2.07745 9.48732 2.40342ZM8.83093 3.61563L8.75591 3.69714C8.69965 3.75826 8.6434 3.82957 8.57776 3.89069C8.35271 4.13516 8.13703 4.37964 7.93074 4.65468C7.81822 4.81767 7.68694 4.97044 7.56504 5.13342C7.38687 5.33715 7.22746 5.56126 7.06805 5.77518C6.73048 6.24377 6.37414 6.69197 6.01782 7.14018C5.95218 7.23186 5.87716 7.32355 5.81152 7.40504C5.59585 7.68008 5.38019 7.95512 5.16452 8.23016C4.92071 8.53575 4.68628 8.84135 4.45185 9.14694C4.3112 9.3303 4.17054 9.51366 4.02989 9.68683C3.82359 9.95168 3.6173 10.2165 3.42976 10.4814C3.33599 10.6036 3.23283 10.7361 3.12969 10.8583C2.88588 11.1741 2.65146 11.4899 2.41704 11.8057C2.3889 11.8464 2.36078 11.877 2.33265 11.9177C2.25763 12.0298 2.18261 12.1316 2.10759 12.2539C2.08884 12.2844 2.0607 12.315 2.03257 12.3557C1.65749 12.9364 1.67625 13.6189 1.68563 14.3014V16.1553C1.68563 16.6035 1.68562 17.0518 1.695 17.5V21.1977C1.695 21.4422 1.70439 21.6968 1.70439 21.9413V22.7053C1.69501 22.8785 1.69501 22.8785 1.76065 23.0211C2.1076 23.0415 2.37015 22.8683 2.62333 22.634C2.77336 22.4507 2.87651 22.2775 2.97028 22.0636C2.99841 22.0126 3.01716 21.9515 3.0453 21.8904C3.06405 21.8598 3.07343 21.8293 3.08281 21.7987C3.47665 20.9532 3.92673 20.1892 4.53624 19.5067C4.57375 19.466 4.61127 19.415 4.64878 19.3743C5.23953 18.7122 5.92404 18.3455 6.77735 18.2945C7.89322 18.2741 9.01848 18.6307 9.85304 19.4558C9.89054 19.4966 9.92805 19.5271 9.96556 19.5678C10.6595 20.3217 11.0252 21.4116 11.1189 22.4608C11.1283 22.5118 11.1283 22.5525 11.1377 22.6035C11.1846 23.2554 11.2033 23.9073 11.2221 24.5695C11.2596 25.965 11.4471 27.1161 12.3848 28.145L12.4786 28.2468C12.9756 28.7562 13.632 28.8886 14.2977 28.8784C15.2073 28.8275 15.9106 28.1144 16.492 27.4217C16.7358 27.1161 16.9608 26.7901 17.1859 26.4642C17.5422 25.9548 17.9267 25.4761 18.3299 25.0177C18.3955 24.9362 18.4705 24.8547 18.5362 24.7732C18.8362 24.4065 19.1551 24.0601 19.4739 23.724C19.6333 23.5508 19.7739 23.3878 19.924 23.2146C20.1771 22.8989 20.4585 22.6035 20.7304 22.308C20.8242 22.2062 20.9179 22.1043 21.0117 22.0025C21.3118 21.6765 21.6118 21.3607 21.94 21.0653C21.9682 21.0449 21.9869 21.0245 22.015 21.0042C22.287 20.7495 22.5589 20.5254 22.8496 20.3013C22.8777 20.2809 22.9059 20.2605 22.934 20.2402C23.3466 19.9346 23.3466 19.9346 23.6467 19.9855C24.0874 20.1281 24.4718 20.5254 24.8282 20.8412C24.8563 20.8615 24.8844 20.8921 24.9126 20.9125C25.2595 21.2283 25.5971 21.5542 25.9347 21.8802C26.0659 22.0126 26.1972 22.1349 26.3379 22.2673C26.5629 22.4812 26.7692 22.7053 26.9755 22.9294C27.013 22.9702 27.0599 23.0109 27.0974 23.0517C27.1818 23.1434 27.2568 23.2248 27.3412 23.3165C27.4631 23.4489 27.5944 23.5814 27.7163 23.7138L28.0726 24.1009C28.2789 24.3148 28.4664 24.5389 28.654 24.7834C28.7571 24.9056 28.8697 25.0279 28.9822 25.1501C29.1604 25.3437 29.3291 25.5372 29.4979 25.7409C29.6292 25.9039 29.7699 26.0465 29.9105 26.1993C30.0324 26.3318 30.1449 26.4642 30.2575 26.617C31.2702 27.8801 32.6861 28.858 34.2333 29.0821C34.4396 29.0923 34.6459 29.1025 34.8522 29.1025H35.1242C35.6493 29.1127 36.1462 29.0108 36.6151 28.7562C36.6432 28.7358 36.6714 28.7256 36.7089 28.7052C37.8529 28.0533 38.7812 26.8615 39.1844 25.527C39.4845 24.4167 39.5032 23.2147 39.25 22.0941C39.2407 22.0534 39.2313 22.0025 39.2219 21.9617C39.0719 21.3098 38.875 20.6884 38.5937 20.0772C38.5749 20.0364 38.5655 19.9957 38.5468 19.9651C38.2936 19.3947 37.9935 18.8853 37.6372 18.3862C37.5997 18.3353 37.5622 18.2843 37.534 18.2334C36.4838 16.7869 35.1523 15.9414 33.6051 15.2487C33.3331 15.1367 33.0706 15.0043 32.808 14.8922C32.7705 14.8718 32.7236 14.8515 32.6861 14.8311C32.6017 14.7903 32.5173 14.7496 32.4236 14.719C30.1356 13.6494 30.1356 13.6494 27.8194 12.6613C26.8817 12.2844 25.9628 11.8566 25.0438 11.4186C24.5187 11.1639 23.9936 10.9398 23.4685 10.7055C22.9715 10.4916 22.4839 10.2675 21.9869 10.0332C21.6962 9.90078 21.4055 9.76835 21.1055 9.64611C20.2991 9.29976 19.5114 8.91266 18.7143 8.51538C18.4518 8.38295 18.1798 8.25055 17.9173 8.11812C17.8798 8.09775 17.8423 8.07737 17.8048 8.057C17.7297 8.02644 17.6547 7.98568 17.5797 7.94493C16.9514 7.62915 16.3232 7.32357 15.6949 7.00778C15.6387 6.97722 15.5824 6.95683 15.5261 6.92627C15.498 6.9059 15.4699 6.8957 15.4417 6.88552C15.2448 6.78365 15.0479 6.692 14.851 6.59013C12.9474 5.64278 12.9475 5.64278 12.1785 5.19457C11.8316 5.00102 11.4846 4.81765 11.1377 4.63429C10.7907 4.46112 10.4532 4.27775 10.125 4.0842C9.44982 3.61562 9.44981 3.61563 8.83093 3.61563Z" fill="black"/>
<path fill-rule="evenodd" clip-rule="evenodd" d="M70.2412 23.9785V22.9293H66.2278V28.9801H67.4187V26.5252H69.8192V25.4759H67.4187V23.9887H70.2412V23.9785ZM72.4635 28.9801V22.9293H71.2726V28.9801H72.4635ZM77.799 23.9785V22.9293H73.4293V23.9785H75.0234V28.97H76.2143V23.9785H77.799ZM83.4159 28.9801V22.9293H82.225V26.6372L79.8151 22.9293H78.7555V28.9801H79.9464V25.2722L82.3563 28.9801H83.4159ZM88.8452 28.9801V27.9309H86.0227V26.464H88.4232V25.4148H86.0227V23.9989H88.8452V22.9497H84.8412V29.0005H88.8452V28.9801ZM93.9369 27.1873C93.9369 26.6474 93.7869 26.2094 93.4681 25.9038C93.2149 25.6695 92.8586 25.5167 92.3053 25.4352L91.5833 25.3333C91.3395 25.3028 91.1426 25.2009 91.0207 25.099C90.8894 24.9768 90.8425 24.8138 90.8425 24.661C90.8425 24.2434 91.152 23.897 91.7802 23.897C92.1834 23.897 92.6429 23.948 93.0274 24.3147L93.7775 23.571C93.2524 23.0719 92.6523 22.8682 91.8083 22.8682C90.4956 22.8682 89.6891 23.622 89.6891 24.7018C89.6891 25.2111 89.8298 25.5982 90.1205 25.8936C90.3924 26.1584 90.7769 26.3214 91.302 26.3928L92.0334 26.4946C92.3147 26.5353 92.4554 26.5965 92.5679 26.7085C92.6992 26.8308 92.7554 27.0039 92.7554 27.2179C92.7554 27.7068 92.3803 27.9615 91.6771 27.9615C91.1144 27.9615 90.5893 27.8392 90.2049 27.4521L89.436 28.2161C90.0361 28.8171 90.7394 29.0107 91.6583 29.0107C92.9523 29.0311 93.9369 28.3588 93.9369 27.1873Z" fill="black"/>
<path fill-rule="evenodd" clip-rule="evenodd" d="M70.2412 22.9297H70.2599V22.9093H70.2412V22.9297ZM66.2278 22.9297V22.9093H66.209V22.9297H66.2278ZM66.2278 28.9805H66.209V29.0009H66.2278V28.9805ZM67.4187 28.9805V29.0009H67.428V28.9805H67.4187ZM67.4187 26.5255V26.5052H67.3999V26.5255H67.4187ZM69.8192 26.5255V26.5459H69.8379V26.5255H69.8192ZM69.8192 25.4662H69.8379V25.4458H69.8192V25.4662ZM67.4187 25.4662H67.3999V25.4865H67.4187V25.4662ZM67.4187 23.9789V23.9585H67.3999V23.9789H67.4187ZM72.4635 28.9805V29.0009H72.4823V28.9805H72.4635ZM72.4635 22.9297H72.4823V22.9093H72.4635V22.9297ZM71.2726 22.9297V22.9093H71.2539V22.9297H71.2726ZM71.2726 28.9805H71.2539V29.0009H71.2726V28.9805ZM77.7991 23.9789V23.9891H77.8178V23.9789H77.7991ZM77.7991 22.9297H77.8178V22.9093H77.7991V22.9297ZM73.4293 22.9297V22.9093H73.4106V22.9297H73.4293ZM73.4293 23.9789H73.4106V23.9891H73.4293V23.9789ZM75.0141 23.9789H75.0328V23.9585H75.0141V23.9789ZM75.0141 28.9805H74.9953V29.0009H75.0141V28.9805ZM76.205 28.9805V29.0009H76.2237V28.9805H76.205ZM76.205 23.9789V23.9585H76.1862V23.9789H76.205ZM83.4159 28.9805V29.0009H83.4346V28.9805H83.4159ZM83.4159 22.9297H83.4346V22.9093H83.4159V22.9297ZM82.2344 22.9297V22.9093H82.2156V22.9297H82.2344ZM82.2344 26.6274L82.225 26.6376L82.2531 26.6784V26.6274H82.2344ZM79.8151 22.9297L79.8245 22.9195V22.9093H79.8151V22.9297ZM78.7555 22.9297V22.9093H78.7368V22.9297H78.7555ZM78.7555 28.9805H78.7368V29.0009H78.7555V28.9805ZM79.9464 28.9805V29.0009H79.9651V28.9805H79.9464ZM79.9464 25.2624L79.9558 25.2522L79.9276 25.2115V25.2624H79.9464ZM82.3563 28.9805L82.3469 28.9907V29.0009H82.3563V28.9805ZM88.8452 27.9211H88.864V27.9007H88.8452V27.9211ZM86.0227 27.9211H86.004V27.9415H86.0227V27.9211ZM86.0227 26.4543V26.4339H86.004V26.4543H86.0227ZM88.4232 26.4543V26.4746H88.442V26.4543H88.4232ZM88.4232 25.405H88.442V25.3847H88.4232V25.405ZM86.0227 25.405H86.004V25.4254H86.0227V25.405ZM86.0227 23.9789V23.9585H86.004V23.9789H86.0227ZM88.8452 23.9789V23.9891H88.864V23.9789H88.8452ZM88.8452 22.9297H88.864V22.9093H88.8452V22.9297ZM84.8412 22.9297V22.9093H84.8225V22.9297H84.8412ZM84.8412 28.9805H84.8225V29.0009H84.8412V28.9805ZM93.0367 24.3253L93.0274 24.3354L93.0367 24.3456L93.0461 24.3354L93.0367 24.3253ZM93.7869 23.5816L93.7963 23.5918L93.8057 23.5816L93.7963 23.5714L93.7869 23.5816ZM90.233 27.4627L90.2424 27.4525L90.233 27.4424L90.2236 27.4525L90.233 27.4627ZM89.4641 28.2267L89.4547 28.2165L89.4453 28.2267L89.4547 28.2369L89.4641 28.2267ZM70.2505 23.9789H70.2224V22.9297H70.2505V23.9789ZM70.2412 22.9093V22.9399H66.2278V22.9093H70.2412ZM66.2184 22.9297H66.2465V28.9805H66.2184V22.9297ZM66.2278 28.9907V28.9602H67.4187V28.9907H66.2278ZM67.428 28.9805H67.3999V26.5255H67.428V28.9805ZM67.4187 26.5357V26.5052H69.8192V26.5357H67.4187ZM69.8379 26.5255H69.8098V25.4763H69.8379V26.5255ZM69.8192 25.456V25.4865H67.4187V25.456H69.8192ZM67.428 25.4662H67.3999V23.9789H67.428V25.4662ZM67.4187 23.9993V23.9687H70.2412V23.9993H67.4187ZM72.4729 28.9805H72.4448V22.9297H72.4729V28.9805ZM72.4635 22.9093V22.9399H71.2726V22.9093H72.4635ZM71.2539 22.9297H71.282V28.9805H71.2539V22.9297ZM71.2726 28.9907V28.9602H72.4635V28.9907H71.2726ZM77.8084 23.9789H77.7803V22.9297H77.8084V23.9789ZM77.7991 22.9093V22.9399H73.4293V22.9093H77.7991ZM73.4106 22.9297H73.4387V23.9789H73.4106V22.9297ZM73.4293 23.9993V23.9687H75.0235V23.9993H73.4293ZM75.0047 23.9789H75.0328V28.9704H75.0047V23.9789ZM75.0141 28.9907V28.9602H76.205V28.9907H75.0141ZM76.2143 28.9805H76.1862V23.9891H76.2143V28.9805ZM76.205 23.9993V23.9687H77.7991V23.9993H76.205ZM83.4346 28.9805H83.4065V22.9297H83.4346V28.9805ZM83.4159 22.9093V22.9399H82.225V22.9093H83.4159ZM82.2156 22.9297H82.2438V26.6376H82.2156V22.9297ZM82.2438 26.6274L82.2156 26.6478L79.8057 22.9399L79.8245 22.9195L82.2438 26.6274ZM79.8151 22.9093V22.9399H78.7555V22.9093H79.8151ZM78.7461 22.9297H78.7743V28.9805H78.7461V22.9297ZM78.7555 28.9907V28.9602H79.9464V28.9907H78.7555ZM79.9651 28.9805H79.937V25.2726H79.9651V28.9805ZM79.937 25.2726L79.9558 25.2522L82.3657 28.9602L82.3469 28.9805L79.937 25.2726ZM82.3563 28.9907V28.9602H83.4159V28.9907H82.3563ZM88.864 28.9805H88.8358V27.9313H88.864V28.9805ZM88.8452 27.9109V27.9415H86.0227V27.9109H88.8452ZM86.0415 27.9211H86.0133V26.4543H86.0415V27.9211ZM86.0227 26.4644V26.4339H88.4232V26.4644H86.0227ZM88.442 26.4543H88.4139V25.405H88.442V26.4543ZM88.4232 25.3847V25.4152H86.0227V25.3847H88.4232ZM86.0415 25.405H86.0133V23.9891H86.0415V25.405ZM86.0227 23.9993V23.9687H88.8452V23.9993H86.0227ZM88.864 23.9789H88.8358V22.9297H88.864V23.9789ZM88.8452 22.9093V22.9399H84.8412V22.9093H88.8452ZM84.8225 22.9297H84.8506V28.9805H84.8225V22.9297ZM84.8412 28.9907V28.9602H88.8452V28.9907H84.8412ZM93.9557 27.1877C93.9557 26.6478 93.8057 26.1996 93.4775 25.894L93.4587 25.9144C93.7775 26.22 93.9276 26.658 93.9276 27.1877H93.9557ZM93.4775 25.894C93.2149 25.6495 92.868 25.4967 92.3053 25.4254V25.456C92.8586 25.5273 93.2055 25.6801 93.4587 25.9144L93.4775 25.894ZM92.3053 25.4254L91.5833 25.3235V25.3541L92.3053 25.456V25.4254ZM91.5927 25.3235C91.3489 25.293 91.152 25.2013 91.0394 25.0893L91.0207 25.1096C91.1426 25.2217 91.3395 25.3134 91.5927 25.3541V25.3235ZM91.0301 25.0893C90.9082 24.9772 90.8519 24.8142 90.8519 24.6716H90.8238C90.8238 24.8244 90.88 24.9976 91.0113 25.1198L91.0301 25.0893ZM90.8613 24.6716H90.8331C90.8331 24.4577 90.9081 24.2641 91.0676 24.1215C91.227 23.9789 91.4614 23.8872 91.7802 23.8872V23.9178C91.4614 23.9178 91.2363 23.9993 91.0863 24.1419C90.9363 24.2743 90.8613 24.4679 90.8613 24.6716ZM91.7896 23.9178V23.8872C92.1928 23.8872 92.6617 23.9382 93.0461 24.3049L93.0274 24.3253C92.6429 23.9687 92.1834 23.9178 91.7896 23.9178ZM93.0461 24.3354L93.0274 24.3151L93.7775 23.5714L93.7963 23.5918L93.0461 24.3354ZM93.7963 23.5714L93.7775 23.5918C93.2618 23.0927 92.6523 22.889 91.8177 22.889V22.8584C92.6617 22.8584 93.2712 23.0621 93.7963 23.5714ZM91.8177 22.8584V22.889C91.1613 22.889 90.6362 23.0723 90.2705 23.3983C89.9048 23.7141 89.7079 24.1724 89.7079 24.7123H89.6798C89.6798 24.1724 89.8861 23.7039 90.2518 23.3779C90.6268 23.0519 91.1613 22.8584 91.8177 22.8584ZM89.6891 24.7123H89.7173C89.7173 25.2217 89.8579 25.6088 90.1486 25.894L90.1299 25.9144C89.8298 25.619 89.6891 25.2217 89.6891 24.7123ZM90.1299 25.9144L90.1486 25.894C90.4205 26.1588 90.805 26.3117 91.3207 26.3932V26.4237C90.7863 26.3422 90.4018 26.1792 90.1299 25.9144ZM91.3114 26.4135V26.383L92.0428 26.4848V26.5154L91.3114 26.4135ZM92.0522 26.5154V26.4848C92.3335 26.5256 92.4741 26.5867 92.596 26.6987L92.5773 26.7191C92.4647 26.6172 92.3335 26.5663 92.0522 26.5154ZM92.5773 26.7293L92.596 26.7089C92.7273 26.8312 92.7929 27.0145 92.7929 27.2284H92.7648C92.7648 27.0145 92.7085 26.8413 92.5773 26.7293ZM92.7648 27.2284C92.7648 27.4627 92.671 27.6461 92.4929 27.7683C92.3147 27.8906 92.0522 27.9619 91.6958 27.9619V27.9924C92.0522 27.9924 92.3241 27.9313 92.5023 27.7989C92.6898 27.6664 92.7836 27.4729 92.7836 27.2284H92.7648ZM91.6958 27.9619V27.9924C91.1332 27.9924 90.6081 27.86 90.2143 27.4831L90.233 27.4627C90.6175 27.8294 91.1426 27.9619 91.6958 27.9619ZM90.2236 27.4525L90.2424 27.4729L89.4735 28.2369L89.4547 28.2165L90.2236 27.4525ZM89.4547 28.2369L89.4735 28.2165C90.0642 28.8175 90.7675 29.0111 91.6864 29.0111V29.0416C90.7581 29.0416 90.0549 28.8481 89.4547 28.2369ZM91.6864 29.0416V29.0111C92.3241 29.0111 92.8867 28.8481 93.2805 28.5323C93.6838 28.2267 93.9276 27.7683 93.9276 27.1877H93.9557C93.9557 27.7785 93.7119 28.2471 93.2993 28.5527C92.8867 28.8787 92.3241 29.0416 91.6864 29.0416Z" fill="black"/>
<path fill-rule="evenodd" clip-rule="evenodd" d="M98.9443 27.1873C98.9443 26.6474 98.8036 26.2094 98.4754 25.9038C98.2222 25.6695 97.8659 25.5167 97.3127 25.4352L96.5906 25.3333C96.3468 25.3028 96.1499 25.2009 96.028 25.099C95.8967 24.9768 95.8499 24.8138 95.8499 24.661C95.8499 24.2434 96.1593 23.897 96.7876 23.897C97.1908 23.897 97.6502 23.948 98.0347 24.3147L98.7849 23.571C98.2598 23.0719 97.6596 22.8682 96.8157 22.8682C95.5029 22.8682 94.6965 23.622 94.6965 24.7018C94.6965 25.2111 94.8465 25.5982 95.1278 25.8936C95.3998 26.1584 95.7842 26.3214 96.3093 26.3928L97.0407 26.4946C97.3221 26.5353 97.4627 26.5965 97.5752 26.7085C97.7065 26.8308 97.7628 27.0039 97.7628 27.2179C97.7628 27.7068 97.3877 27.9615 96.6844 27.9615C96.1218 27.9615 95.5967 27.8392 95.2122 27.4521L94.4433 28.2161C95.0434 28.8171 95.7467 29.0107 96.6657 29.0107C97.9597 29.0311 98.9443 28.3588 98.9443 27.1873Z" fill="black"/>
<path fill-rule="evenodd" clip-rule="evenodd" d="M98.0347 24.3253L98.0253 24.3354L98.0347 24.3456L98.0441 24.3354L98.0347 24.3253ZM98.7849 23.5816L98.7942 23.5918L98.8036 23.5816L98.7942 23.5714L98.7849 23.5816ZM95.231 27.4627L95.2404 27.4525L95.231 27.4424L95.2216 27.4525L95.231 27.4627ZM94.4621 28.2267L94.4527 28.2165L94.4433 28.2267L94.4527 28.2369L94.4621 28.2267ZM98.9537 27.1877C98.9537 26.6478 98.8036 26.1996 98.4754 25.894L98.4567 25.9144C98.7755 26.22 98.9255 26.658 98.9255 27.1877H98.9537ZM98.4754 25.894C98.2129 25.6495 97.8659 25.4967 97.3033 25.4254V25.456C97.8565 25.5273 98.2035 25.6801 98.4567 25.9144L98.4754 25.894ZM97.3127 25.4254V25.456L96.5906 25.3541V25.3235L97.3127 25.4254ZM96.5906 25.3235C96.3468 25.293 96.1499 25.2013 96.0374 25.0893L96.0186 25.1096C96.1405 25.2217 96.3375 25.3134 96.5906 25.3541V25.3235ZM96.0374 25.0893C95.9155 24.9772 95.8592 24.8142 95.8592 24.6716H95.8311C95.8311 24.8244 95.8874 24.9976 96.0186 25.1198L96.0374 25.0893ZM95.8592 24.6716H95.8311C95.8311 24.4577 95.9061 24.2641 96.0655 24.1215C96.2249 23.9789 96.4594 23.8872 96.7782 23.8872V23.9178C96.4687 23.9178 96.2343 23.9993 96.0843 24.1419C95.9342 24.2743 95.8592 24.4679 95.8592 24.6716ZM96.7876 23.9178V23.8872C97.1908 23.8872 97.6596 23.9382 98.0441 24.3049L98.0253 24.3253C97.6409 23.9687 97.1908 23.9178 96.7876 23.9178ZM98.0441 24.3354L98.0253 24.3151L98.7755 23.5714L98.7942 23.5918L98.0441 24.3354ZM98.7942 23.5714L98.7755 23.5918C98.2597 23.0927 97.6502 22.889 96.8157 22.889V22.8584C97.6596 22.8584 98.2691 23.0621 98.7942 23.5714ZM96.8251 22.8584V22.889C96.1687 22.889 95.6436 23.0723 95.2779 23.3983C94.9121 23.7141 94.7152 24.1724 94.7152 24.7123H94.6871C94.6871 24.1724 94.8934 23.7039 95.2591 23.3779C95.6248 23.0519 96.1593 22.8584 96.8251 22.8584ZM94.6871 24.7123H94.7152C94.7152 25.2217 94.8559 25.6088 95.1466 25.894L95.1278 25.9144C94.8371 25.619 94.6871 25.2217 94.6871 24.7123ZM95.1278 25.9144L95.1466 25.894C95.4185 26.1588 95.803 26.3117 96.3187 26.3932V26.4237C95.7936 26.3422 95.3998 26.1792 95.1278 25.9144ZM96.3187 26.4135L97.0501 26.5154V26.4848L96.3187 26.383V26.4135ZM97.0501 26.5154C97.3314 26.5561 97.4627 26.6172 97.5846 26.7191L97.6034 26.6987C97.4815 26.5867 97.3408 26.5256 97.0595 26.4848L97.0501 26.5154ZM97.5846 26.7293C97.7065 26.8413 97.7628 27.0145 97.7628 27.2284H97.7909C97.7909 27.0145 97.7346 26.8312 97.594 26.7089L97.5846 26.7293ZM97.7628 27.2284H97.7909C97.7909 27.4729 97.6971 27.6664 97.5096 27.7989C97.3221 27.9313 97.0501 27.9924 96.7032 27.9924V27.9619C97.0501 27.9619 97.322 27.9007 97.5002 27.7683C97.669 27.6461 97.7628 27.4627 97.7628 27.2284ZM96.7032 27.9619V27.9924C96.1405 27.9924 95.6154 27.86 95.2216 27.4831L95.2404 27.4627C95.6248 27.8294 96.1405 27.9619 96.7032 27.9619ZM95.2216 27.4525L95.2404 27.4729L94.4714 28.2369L94.4527 28.2165L95.2216 27.4525ZM94.4527 28.2369L94.4714 28.2165C95.0622 28.8175 95.7655 29.0111 96.6844 29.0111V29.0416C95.7561 29.0416 95.0528 28.8481 94.4527 28.2369ZM96.6844 29.0416V29.0111C97.322 29.0111 97.8753 28.8481 98.2785 28.5323C98.6817 28.2267 98.9255 27.7683 98.9255 27.1877H98.9537C98.9537 27.7785 98.7099 28.2471 98.2973 28.5527C97.894 28.8787 97.322 29.0416 96.6844 29.0416Z" fill="black"/>
</svg>
