<svg width="278" height="51" viewBox="0 0 278 51" fill="none" xmlns="http://www.w3.org/2000/svg">
<path d="M17.7765 50.024C14.5765 50.024 11.4832 49.64 8.4965 48.872C5.5525 48.104 2.88583 46.9307 0.4965 45.352L7.3445 34.856C9.09383 35.9653 10.9712 36.7973 12.9765 37.352C15.0245 37.864 16.9658 38.12 18.8005 38.12C20.2085 38.12 21.3818 37.9707 22.3205 37.672C23.3018 37.3733 24.0272 36.9467 24.4965 36.392C25.0085 35.7947 25.2645 35.0907 25.2645 34.28C25.2645 33.384 24.9018 32.7227 24.1765 32.296C23.4512 31.8267 22.3205 31.592 20.7845 31.592H14.5765L16.4325 22.312L30.0645 10.536L30.7045 15.592H8.3685L10.6725 4.2H44.0805L42.2245 13.48L28.5925 25.256L21.8725 21.288H25.2005C28.3152 21.288 31.0032 21.7787 33.2645 22.76C35.5685 23.7413 37.3392 25.128 38.5765 26.92C39.8565 28.712 40.4965 30.824 40.4965 33.256C40.4965 36.456 39.4938 39.336 37.4885 41.896C35.5258 44.4133 32.8165 46.3973 29.3605 47.848C25.9472 49.2987 22.0858 50.024 17.7765 50.024ZM62.273 50.024C58.7743 50.024 55.7237 49.3413 53.121 47.976C50.5183 46.568 48.4917 44.5627 47.041 41.96C45.633 39.3573 44.929 36.2 44.929 32.488C44.929 28.264 45.5263 24.3813 46.721 20.84C47.9157 17.256 49.601 14.1413 51.777 11.496C53.953 8.85067 56.513 6.80267 59.457 5.352C62.4437 3.90133 65.6863 3.176 69.185 3.176C72.6837 3.176 75.7343 3.85867 78.337 5.224C80.9397 6.58933 82.945 8.59467 84.353 11.24C85.8037 13.8427 86.529 17 86.529 20.712C86.529 24.936 85.9317 28.84 84.737 32.424C83.5423 35.9653 81.857 39.0587 79.681 41.704C77.505 44.3493 74.9237 46.3973 71.937 47.848C68.993 49.2987 65.7717 50.024 62.273 50.024ZM63.809 37.928C65.1317 37.928 66.2623 37.352 67.201 36.2C68.1823 35.0053 68.9717 33.512 69.569 31.72C70.209 29.928 70.6783 28.0933 70.977 26.216C71.2757 24.296 71.425 22.5893 71.425 21.096C71.425 18.8773 71.0623 17.3627 70.337 16.552C69.6543 15.6987 68.7583 15.272 67.649 15.272C66.3263 15.272 65.1743 15.8693 64.193 17.064C63.2543 18.216 62.465 19.688 61.825 21.48C61.2277 23.272 60.7797 25.128 60.481 27.048C60.1823 28.9253 60.033 30.6107 60.033 32.104C60.033 34.3227 60.3957 35.8587 61.121 36.712C61.8463 37.5227 62.7423 37.928 63.809 37.928ZM106.586 50.024C103.087 50.024 100.036 49.3413 97.4335 47.976C94.8308 46.568 92.8042 44.5627 91.3535 41.96C89.9455 39.3573 89.2415 36.2 89.2415 32.488C89.2415 28.264 89.8388 24.3813 91.0335 20.84C92.2282 17.256 93.9135 14.1413 96.0895 11.496C98.2655 8.85067 100.826 6.80267 103.77 5.352C106.756 3.90133 109.999 3.176 113.498 3.176C116.996 3.176 120.047 3.85867 122.65 5.224C125.252 6.58933 127.258 8.59467 128.666 11.24C130.116 13.8427 130.842 17 130.842 20.712C130.842 24.936 130.244 28.84 129.05 32.424C127.855 35.9653 126.17 39.0587 123.994 41.704C121.818 44.3493 119.236 46.3973 116.25 47.848C113.306 49.2987 110.084 50.024 106.586 50.024ZM108.122 37.928C109.444 37.928 110.575 37.352 111.514 36.2C112.495 35.0053 113.284 33.512 113.882 31.72C114.522 29.928 114.991 28.0933 115.29 26.216C115.588 24.296 115.738 22.5893 115.738 21.096C115.738 18.8773 115.375 17.3627 114.65 16.552C113.967 15.6987 113.071 15.272 111.962 15.272C110.639 15.272 109.487 15.8693 108.506 17.064C107.567 18.216 106.778 19.688 106.138 21.48C105.54 23.272 105.092 25.128 104.794 27.048C104.495 28.9253 104.346 30.6107 104.346 32.104C104.346 34.3227 104.708 35.8587 105.434 36.712C106.159 37.5227 107.055 37.928 108.122 37.928ZM150.898 50.024C147.399 50.024 144.349 49.3413 141.746 47.976C139.143 46.568 137.117 44.5627 135.666 41.96C134.258 39.3573 133.554 36.2 133.554 32.488C133.554 28.264 134.151 24.3813 135.346 20.84C136.541 17.256 138.226 14.1413 140.402 11.496C142.578 8.85067 145.138 6.80267 148.082 5.352C151.069 3.90133 154.311 3.176 157.81 3.176C161.309 3.176 164.359 3.85867 166.962 5.224C169.565 6.58933 171.57 8.59467 172.978 11.24C174.429 13.8427 175.154 17 175.154 20.712C175.154 24.936 174.557 28.84 173.362 32.424C172.167 35.9653 170.482 39.0587 168.306 41.704C166.13 44.3493 163.549 46.3973 160.562 47.848C157.618 49.2987 154.397 50.024 150.898 50.024ZM152.434 37.928C153.757 37.928 154.887 37.352 155.826 36.2C156.807 35.0053 157.597 33.512 158.194 31.72C158.834 29.928 159.303 28.0933 159.602 26.216C159.901 24.296 160.05 22.5893 160.05 21.096C160.05 18.8773 159.687 17.3627 158.962 16.552C158.279 15.6987 157.383 15.272 156.274 15.272C154.951 15.272 153.799 15.8693 152.818 17.064C151.879 18.216 151.09 19.688 150.45 21.48C149.853 23.272 149.405 25.128 149.106 27.048C148.807 28.9253 148.658 30.6107 148.658 32.104C148.658 34.3227 149.021 35.8587 149.746 36.712C150.471 37.5227 151.367 37.928 152.434 37.928ZM194.622 49L201.662 13.992H216.766L223.55 35.816H217.534L234.494 13.992H248.254L241.342 49H228.35L232.382 27.944L234.494 29.48L221.63 46.248H215.55L209.406 28.392L211.838 27.752L207.614 49H194.622ZM251.068 28.072L252.22 22.248L264.38 13.672C265.02 13.2027 265.532 12.776 265.916 12.392C266.342 12.008 266.641 11.6453 266.812 11.304C267.025 10.92 267.132 10.5573 267.132 10.216C267.132 9.61867 266.94 9.14933 266.556 8.808C266.172 8.46666 265.489 8.296 264.508 8.296C263.569 8.296 262.694 8.53067 261.884 9C261.116 9.42667 260.433 10.0453 259.836 10.856L253.564 6.76C254.758 5.13867 256.422 3.752 258.556 2.6C260.689 1.448 263.356 0.871998 266.556 0.871998C269.841 0.871998 272.486 1.61867 274.492 3.112C276.54 4.56267 277.564 6.46133 277.564 8.808C277.564 9.78933 277.393 10.728 277.052 11.624C276.753 12.52 276.092 13.48 275.068 14.504C274.086 15.528 272.593 16.7653 270.588 18.216L262.332 24.04L261.116 20.776H275.964L274.492 28.072H251.068Z" fill="#FFED00"/>
</svg>
