<svg width="498" height="30" viewBox="0 0 498 30" fill="none" xmlns="http://www.w3.org/2000/svg">
<path d="M4.72021 23.6089L7.38421 9.97689L8.36821 11.2009H2.29621L3.16021 6.80889H18.5682L17.7042 11.2009H11.4882L12.9522 9.97689L10.2882 23.6089H4.72021ZM16.9561 23.6089L20.3161 6.80889H27.7801C30.0361 6.80889 31.7721 7.29689 32.9881 8.27289C34.2201 9.24889 34.8361 10.6169 34.8361 12.3769C34.8361 13.7849 34.4841 15.0249 33.7801 16.0969C33.0921 17.1689 32.1081 18.0009 30.8281 18.5929C29.5641 19.1849 28.0681 19.4809 26.3401 19.4809H20.9161L23.9401 17.0089L22.6201 23.6089H16.9561ZM23.7961 17.6809L21.8041 15.1129H26.6281C27.4121 15.1129 28.0201 14.9209 28.4521 14.5369C28.8841 14.1369 29.1001 13.5849 29.1001 12.8809C29.1001 12.2729 28.9081 11.8409 28.5241 11.5849C28.1561 11.3129 27.6441 11.1769 26.9881 11.1769H22.5961L25.6201 8.53689L23.7961 17.6809ZM41.9736 13.0489H49.4616L48.6456 17.1289H41.1576L41.9736 13.0489ZM41.0856 19.3369H49.5096L48.6456 23.6089H34.6776L38.0376 6.80889H51.6936L50.8296 11.0809H42.7416L41.0856 19.3369ZM65.1993 6.80889H70.8633L67.5033 23.6089H61.8393L65.1993 6.80889ZM56.6073 23.6089H50.9433L54.3033 6.80889H59.9673L56.6073 23.6089ZM63.4473 17.4169H57.4713L58.4073 12.7609H64.3833L63.4473 17.4169ZM70.4901 23.6089L73.8501 6.80889H79.4181L77.6181 15.5449L85.1301 6.80889H90.5301L87.1701 23.6089H81.6021L83.4261 14.8969L75.9141 23.6089H70.4901ZM90.0342 23.6089L93.3942 6.80889H100.858C103.114 6.80889 104.85 7.29689 106.066 8.27289C107.298 9.24889 107.914 10.6169 107.914 12.3769C107.914 13.7849 107.562 15.0249 106.858 16.0969C106.17 17.1689 105.186 18.0009 103.906 18.5929C102.642 19.1849 101.146 19.4809 99.4182 19.4809H93.9942L97.0182 17.0089L95.6982 23.6089H90.0342ZM96.8742 17.6809L94.8822 15.1129H99.7062C100.49 15.1129 101.098 14.9209 101.53 14.5369C101.962 14.1369 102.178 13.5849 102.178 12.8809C102.178 12.2729 101.986 11.8409 101.602 11.5849C101.234 11.3129 100.722 11.1769 100.066 11.1769H95.6742L98.6982 8.53689L96.8742 17.6809ZM117.254 23.9929C115.51 23.9929 113.998 23.6729 112.718 23.0329C111.454 22.3929 110.47 21.5129 109.766 20.3929C109.078 19.2569 108.734 17.9529 108.734 16.4809C108.734 14.9929 108.99 13.6409 109.502 12.4249C110.03 11.1929 110.766 10.1289 111.71 9.23289C112.654 8.33689 113.774 7.64889 115.07 7.16889C116.366 6.67289 117.782 6.42489 119.318 6.42489C121.062 6.42489 122.566 6.74489 123.83 7.38489C125.11 8.02489 126.094 8.91289 126.782 10.0489C127.486 11.1689 127.838 12.4649 127.838 13.9369C127.838 15.4249 127.574 16.7849 127.046 18.0169C126.534 19.2329 125.806 20.2889 124.862 21.1849C123.918 22.0809 122.798 22.7769 121.502 23.2729C120.206 23.7529 118.79 23.9929 117.254 23.9929ZM117.734 19.4089C118.438 19.4089 119.054 19.2729 119.582 19.0009C120.126 18.7289 120.59 18.3529 120.974 17.8729C121.358 17.3929 121.646 16.8489 121.838 16.2409C122.03 15.6169 122.126 14.9609 122.126 14.2729C122.126 13.6169 121.99 13.0489 121.718 12.5689C121.462 12.0729 121.086 11.6889 120.59 11.4169C120.11 11.1449 119.526 11.0089 118.838 11.0089C118.15 11.0089 117.534 11.1449 116.99 11.4169C116.446 11.6889 115.982 12.0649 115.598 12.5449C115.214 13.0249 114.926 13.5769 114.734 14.2009C114.542 14.8089 114.446 15.4569 114.446 16.1449C114.446 16.7849 114.574 17.3529 114.83 17.8489C115.102 18.3449 115.478 18.7289 115.958 19.0009C116.454 19.2729 117.046 19.4089 117.734 19.4089ZM128.05 23.6089L131.41 6.80889H140.314C142.314 6.80889 143.818 7.16089 144.826 7.86489C145.834 8.55289 146.338 9.53689 146.338 10.8169C146.338 11.8569 146.034 12.7369 145.426 13.4569C144.834 14.1769 144.01 14.7289 142.954 15.1129C141.914 15.4809 140.714 15.6649 139.354 15.6649L140.074 14.3689C141.786 14.3689 143.13 14.7129 144.106 15.4009C145.098 16.0729 145.594 17.0249 145.594 18.2569C145.594 19.4889 145.234 20.5049 144.514 21.3049C143.81 22.0889 142.866 22.6729 141.682 23.0569C140.498 23.4249 139.186 23.6089 137.746 23.6089H128.05ZM134.41 19.6489H138.058C138.618 19.6489 139.074 19.5209 139.426 19.2649C139.794 19.0089 139.978 18.6249 139.978 18.1129C139.978 17.7449 139.834 17.4729 139.546 17.2969C139.274 17.1049 138.954 17.0089 138.586 17.0089H134.554L135.298 13.2649H138.562C138.994 13.2649 139.346 13.2089 139.618 13.0969C139.906 12.9689 140.114 12.8009 140.242 12.5929C140.37 12.3689 140.434 12.1049 140.434 11.8009C140.434 11.4489 140.298 11.1929 140.026 11.0329C139.77 10.8569 139.41 10.7689 138.946 10.7689H136.186L134.41 19.6489ZM146.732 23.6089L150.092 6.80889H155.756L152.396 23.6089H146.732ZM151.988 17.5369L152.876 13.0729H159.236L158.348 17.5369H151.988ZM157.508 23.6089L154.868 15.7369L159.524 13.0969L163.508 23.6089H157.508ZM159.716 15.8089L154.244 15.2809L160.748 6.80889H167.036L159.716 15.8089ZM164.803 23.6089L168.163 6.80889H173.731L171.931 15.5449L179.443 6.80889H184.843L181.483 23.6089H175.915L177.739 14.8969L170.227 23.6089H164.803ZM191.662 23.6089L195.022 6.80889H209.59L208.726 11.0809H199.726L199.342 13.0249H203.35C205.094 13.0249 206.438 13.4249 207.382 14.2249C208.342 15.0089 208.822 16.1369 208.822 17.6089C208.822 18.8409 208.486 19.9049 207.814 20.8009C207.142 21.6969 206.182 22.3929 204.934 22.8889C203.702 23.3689 202.23 23.6089 200.518 23.6089H191.662ZM198.022 19.6489H200.926C201.566 19.6489 202.07 19.5049 202.438 19.2169C202.822 18.9289 203.014 18.5449 203.014 18.0649C203.014 17.6969 202.886 17.4249 202.63 17.2489C202.374 17.0569 201.982 16.9609 201.454 16.9609H198.55L198.022 19.6489ZM216.935 13.0489H224.423L223.607 17.1289H216.119L216.935 13.0489ZM216.047 19.3369H224.471L223.607 23.6089H209.639L212.999 6.80889H226.655L225.791 11.0809H217.703L216.047 19.3369ZM231.904 23.9929C230.752 23.9929 229.576 23.8649 228.376 23.6089C227.192 23.3689 226.04 22.9769 224.92 22.4329L227.368 18.5209C228.104 18.8569 228.872 19.1129 229.672 19.2889C230.472 19.4489 231.24 19.5289 231.976 19.5289C232.456 19.5289 232.904 19.4969 233.32 19.4329C233.736 19.3529 234.096 19.2489 234.4 19.1209C234.72 18.9929 234.968 18.8329 235.144 18.6409C235.32 18.4489 235.408 18.2329 235.408 17.9929C235.408 17.6889 235.288 17.4649 235.048 17.3209C234.808 17.1769 234.432 17.1049 233.92 17.1049H229.384L230.2 13.0249H234.256C234.592 13.0249 234.888 12.9769 235.144 12.8809C235.4 12.7849 235.6 12.6569 235.744 12.4969C235.888 12.3209 235.96 12.1209 235.96 11.8969C235.96 11.6409 235.864 11.4329 235.672 11.2729C235.48 11.0969 235.208 10.9689 234.856 10.8889C234.52 10.7929 234.128 10.7449 233.68 10.7449C233.04 10.7449 232.32 10.8329 231.52 11.0089C230.736 11.1849 229.944 11.4569 229.144 11.8249L228.328 7.62489C229.368 7.19289 230.416 6.87289 231.472 6.66489C232.544 6.45689 233.568 6.35289 234.544 6.35289C235.904 6.35289 237.128 6.53689 238.216 6.90489C239.32 7.25689 240.2 7.76889 240.856 8.44089C241.512 9.11289 241.84 9.91289 241.84 10.8409C241.84 11.6889 241.576 12.4729 241.048 13.1929C240.52 13.8969 239.808 14.4649 238.912 14.8969C238.032 15.3129 237.064 15.5209 236.008 15.5209L236.344 14.3929C237.256 14.3929 238.064 14.5689 238.768 14.9209C239.472 15.2569 240.024 15.7289 240.424 16.3369C240.824 16.9449 241.024 17.6409 241.024 18.4249C241.024 19.2729 240.776 20.0409 240.28 20.7289C239.8 21.4009 239.136 21.9849 238.288 22.4809C237.456 22.9609 236.488 23.3369 235.384 23.6089C234.296 23.8649 233.136 23.9929 231.904 23.9929ZM258.512 23.9929C256.768 23.9929 255.256 23.6729 253.976 23.0329C252.712 22.3929 251.728 21.5129 251.024 20.3929C250.336 19.2569 249.992 17.9529 249.992 16.4809C249.992 14.9929 250.248 13.6409 250.76 12.4249C251.288 11.1929 252.024 10.1289 252.968 9.23289C253.912 8.33689 255.032 7.64889 256.328 7.16889C257.624 6.67289 259.04 6.42489 260.576 6.42489C262.32 6.42489 263.824 6.74489 265.088 7.38489C266.368 8.02489 267.352 8.91289 268.04 10.0489C268.744 11.1689 269.096 12.4649 269.096 13.9369C269.096 15.4249 268.832 16.7849 268.304 18.0169C267.792 19.2329 267.064 20.2889 266.12 21.1849C265.176 22.0809 264.056 22.7769 262.76 23.2729C261.464 23.7529 260.048 23.9929 258.512 23.9929ZM258.992 19.4089C259.696 19.4089 260.312 19.2729 260.84 19.0009C261.384 18.7289 261.848 18.3529 262.232 17.8729C262.616 17.3929 262.904 16.8489 263.096 16.2409C263.288 15.6169 263.384 14.9609 263.384 14.2729C263.384 13.6169 263.248 13.0489 262.976 12.5689C262.72 12.0729 262.344 11.6889 261.848 11.4169C261.368 11.1449 260.784 11.0089 260.096 11.0089C259.408 11.0089 258.792 11.1449 258.248 11.4169C257.704 11.6889 257.24 12.0649 256.856 12.5449C256.472 13.0249 256.184 13.5769 255.992 14.2009C255.8 14.8089 255.704 15.4569 255.704 16.1449C255.704 16.7849 255.832 17.3529 256.088 17.8489C256.36 18.3449 256.736 18.7289 257.216 19.0009C257.712 19.2729 258.304 19.4089 258.992 19.4089ZM269.428 23.6089L272.788 6.80889H285.58L284.716 11.2009H276.196L277.66 9.97689L274.996 23.6089H269.428ZM283.98 23.6089L287.34 6.80889H294.804C297.06 6.80889 298.796 7.29689 300.012 8.27289C301.244 9.24889 301.86 10.6169 301.86 12.3769C301.86 13.7849 301.508 15.0249 300.804 16.0969C300.116 17.1689 299.132 18.0009 297.852 18.5929C296.588 19.1849 295.092 19.4809 293.364 19.4809H287.94L290.964 17.0089L289.644 23.6089H283.98ZM290.82 17.6809L288.828 15.1129H293.652C294.436 15.1129 295.044 14.9209 295.476 14.5369C295.908 14.1369 296.124 13.5849 296.124 12.8809C296.124 12.2729 295.932 11.8409 295.548 11.5849C295.18 11.3129 294.668 11.1769 294.012 11.1769H289.62L292.644 8.53689L290.82 17.6809ZM299.441 23.6089L310.145 6.80889H315.713L319.697 23.6089H314.057L311.345 9.42489H313.553L305.417 23.6089H299.441ZM304.385 20.6809L306.641 16.6009H314.369L314.993 20.6809H304.385ZM335.504 6.80889H341.168L337.808 23.6089H332.144L335.504 6.80889ZM326.912 23.6089H321.248L324.608 6.80889H330.272L326.912 23.6089ZM333.752 17.4169H327.776L328.712 12.7609H334.688L333.752 17.4169ZM340.795 23.6089L344.155 6.80889H349.723L347.923 15.5449L355.435 6.80889H360.835L357.475 23.6089H351.907L353.731 14.8969L346.219 23.6089H340.795ZM371.822 18.0409C371.038 18.2969 370.342 18.4809 369.734 18.5929C369.126 18.6889 368.574 18.7369 368.078 18.7369C365.518 18.7369 363.678 18.1209 362.558 16.8889C361.454 15.6409 361.126 13.8969 361.574 11.6569L362.534 6.80889H368.102L367.166 11.4649C366.958 12.4889 366.998 13.2089 367.286 13.6249C367.59 14.0409 368.15 14.2489 368.966 14.2489C369.686 14.2489 370.318 14.1689 370.862 14.0089C371.422 13.8489 371.894 13.6569 372.278 13.4329L371.822 18.0409ZM369.782 23.6089L373.142 6.80889H378.71L375.35 23.6089H369.782ZM385.614 13.0489H393.102L392.286 17.1289H384.798L385.614 13.0489ZM384.726 19.3369H393.15L392.286 23.6089H378.318L381.678 6.80889L395.334 6.80889L394.47 11.0809H386.382L384.726 19.3369ZM408.84 6.80889H414.504L411.144 23.6089H405.48L408.84 6.80889ZM400.248 23.6089H394.584L397.944 6.80889H403.608L400.248 23.6089ZM407.088 17.4169H401.112L402.048 12.7609H408.024L407.088 17.4169ZM414.131 23.6089L417.491 6.80889H423.059L421.259 15.5449L428.771 6.80889H434.171L430.811 23.6089H425.243L427.067 14.8969L419.555 23.6089H414.131ZM433.795 23.6089L437.155 6.80889H442.723L440.923 15.5449L448.435 6.80889H453.835L450.475 23.6089H444.907L446.731 14.8969L439.219 23.6089H433.795ZM445.723 5.94489C443.931 5.94489 442.651 5.60089 441.883 4.91289C441.115 4.22489 440.835 3.16889 441.043 1.74488H444.547C444.467 2.28889 444.547 2.68889 444.787 2.94489C445.043 3.20089 445.443 3.32889 445.987 3.32889C446.531 3.32889 446.947 3.20889 447.235 2.96889C447.539 2.71289 447.731 2.30489 447.811 1.74488H451.411C451.187 3.21689 450.619 4.28889 449.707 4.96089C448.811 5.61689 447.483 5.94489 445.723 5.94489Z" fill="black"/>
<path d="M491.586 5.77417H479.26L473.024 12.089H486.438L478.68 18.2587H489.773L483.538 24.2107L497.024 16.0086H487.671L497.024 8.4598H488.106L491.586 5.77417Z" fill="black"/>
</svg>
