<svg width="45" height="19" viewBox="0 0 45 19" fill="none" xmlns="http://www.w3.org/2000/svg">
<path d="M23.6357 1.9195L25.4619 0.0488281H0L1.82623 1.9195H4.40754H23.6357Z" fill="white"/>
<path d="M19.2685 17.0315H16.5785V4.51758H7.06696L8.89543 6.34545H14.7501V18.8594H21.097V10.2824L19.2685 8.45454V17.0315Z" fill="white"/>
<path d="M4.44851 1.91992H1.87073L6.35992 6.38875H8.9377L7.11397 4.57329L4.44851 1.91992Z" fill="#3D6E97"/>
<path d="M21.3048 4.17213L22.5759 5.45299L27.9561 0.0488281H25.3966L23.5857 1.87361L21.3048 4.17213Z" fill="#E2484D"/>
<path d="M38.8683 1.91992H36.3055L30.866 7.31005L32.1562 8.57119L33.4289 7.31005L38.8683 1.91992Z" fill="#3F6D9B"/>
<path d="M19.2263 5.86914V8.44974L21.052 10.2755L29.6365 18.8599H32.2171L30.3914 17.0342L19.2263 5.86914Z" fill="#A8D0DB"/>
<path d="M45 18.859L33.4954 7.32324L32.2171 8.605L42.4259 18.859H45Z" fill="#A8D0DB"/>
<path d="M40.739 0.0488281H31.8195L24.5266 7.34168L34.1981 17.0363H30.4029L32.2218 18.8595H38.5879L27.0975 7.34168L32.5716 1.87204H36.3492H38.9201L40.739 0.0488281Z" fill="white"/>
</svg>
