<svg width="70" height="65" viewBox="0 0 70 65" fill="none" xmlns="http://www.w3.org/2000/svg">
<path id="image 65 (Traced)" fill-rule="evenodd" clip-rule="evenodd" d="M44.2187 0.28452C41.8782 0.778076 40.3981 1.54871 39.0249 2.98923C37.6086 4.47475 37.0312 6.2522 37.3289 8.20996C37.5205 9.46914 37.3449 10.6483 36.7711 11.9566L36.4598 12.6662L36.9206 13.3263C37.1741 13.6894 37.7075 14.6606 38.1061 15.4845C40.5562 20.5499 40.3098 26.7636 37.4205 32.7753C37.0557 33.5343 36.7572 34.1733 36.7572 34.1951C36.7572 34.3665 40.3072 36.0602 42.3117 36.8449L43.1654 37.1791L43.2368 36.7137C43.2762 36.4578 43.3812 35.6197 43.4705 34.8513C43.9291 30.8987 45.0968 28.8215 46.8601 28.8215C48.0187 28.8215 48.9615 29.5501 49.0976 30.5509C49.1433 30.8856 49.0724 31.5005 48.931 31.9992C48.665 32.9362 46.1241 38.0579 46.0435 37.8195C46.0165 37.7398 46.4912 36.6258 47.0983 35.3438C48.379 32.6391 48.719 31.7004 48.7323 30.8319C48.7449 30.0191 48.3884 29.4972 47.6118 29.191C45.9999 28.5553 44.7983 29.6848 44.1714 32.4247C43.9201 33.5225 43.4096 37.1913 43.4961 37.2766C43.5245 37.3046 43.7215 37.3705 43.9338 37.423L44.3199 37.5185L44.5742 35.6399C45.0262 32.2988 45.5936 30.6047 46.4766 29.9595C46.9457 29.6169 47.4033 29.7132 47.7446 30.2266C47.9625 30.5543 47.9511 30.6774 47.5874 31.9269C47.3718 32.6676 46.7634 34.2079 46.2354 35.3494C45.7074 36.4909 45.2559 37.5155 45.232 37.6264C45.2071 37.7422 45.4106 37.9094 45.711 38.0197C46.5255 38.3188 45.8125 38.2731 44.3679 37.9337C42.443 37.4814 39.9046 36.6742 37.9588 35.8957L36.2092 35.1957L35.6387 36.064L35.0682 36.9324L35.3229 37.7288C35.4631 38.1668 35.692 38.5831 35.8317 38.654C36.3355 38.9094 41.2668 40.3088 46.5318 41.6903C49.4865 42.4657 52.465 43.2669 53.1506 43.4706C53.8362 43.6744 54.418 43.8203 54.4434 43.795C54.4689 43.7696 54.7562 43.0492 55.0819 42.194C55.9549 39.9027 56.0476 39.7632 57.0198 39.2795C59.7031 37.9447 63.4087 34.0458 66.7495 29.0421C69.5905 24.787 70.4986 21.7188 69.7487 18.9072C69.0439 16.2645 67.4322 14.7031 65.4094 14.7031C63.2757 14.7031 60.9388 17.0559 60.2619 19.8857C59.823 21.7201 60.0937 24.3216 60.9216 26.2233C61.3332 27.1689 61.3117 27.242 60.8277 26.5404C60.2586 25.7146 59.6294 24.0427 59.4217 22.8037C59.275 21.9278 59.2044 21.7656 59.0068 21.85C58.8758 21.9059 57.9628 21.9823 56.9779 22.0198C52.9939 22.1715 47.9657 20.7254 44.2865 18.3696C43.025 17.5621 40.606 15.2578 40.1246 14.4056C39.9239 14.05 40.1907 14.2646 41.0003 15.1097C44.4876 18.7501 50.9894 21.1135 56.3905 20.7037C57.1346 20.6474 58.104 20.482 58.545 20.3361L59.3466 20.0711L59.5473 19.1904C60.0401 17.0269 61.7686 14.6815 63.4979 13.8298C65.1084 13.0367 66.5916 13.2733 67.9938 14.5471L68.6559 15.1486L68.8159 14.5215C69.3133 12.5699 69.1099 10.6095 68.2261 8.83646C66.4528 5.27876 59.131 1.47782 51.7548 0.285844C49.3995 -0.0947656 46.0205 -0.0953543 44.2187 0.28452ZM19.745 3.086C17.2816 3.32278 14.6083 4.00649 11.9225 5.08655C5.81835 7.54095 1.32144 11.5871 0.250716 15.5879C-0.0543109 16.7281 -0.0865435 19.4778 0.184459 21.2476C1.33741 28.7754 5.92713 38.2126 10.7001 42.8692C12.4057 44.5333 13.5261 45.2777 14.4955 45.3908C15.8141 45.5448 20.6702 44.2065 23.9234 42.7927C26.206 41.8008 26.3938 41.7278 26.2299 41.8961C25.902 42.2323 22.6563 43.9682 20.8851 44.7546C19.8667 45.2067 18.136 45.872 17.0388 46.2331C15.9418 46.5941 15.0266 46.9771 15.005 47.084C14.969 47.2618 15.7896 50.2682 15.9051 50.382C16.0626 50.537 22.422 47.514 29.7538 43.7991L35.6589 40.8072L35.3222 40.0504C35.1372 39.634 34.7814 38.7231 34.5317 38.0262L34.0779 36.7587L34.8287 35.6574C36.4635 33.2591 37.9325 29.8087 38.575 26.8579C39.0619 24.6222 39.0333 21.1976 38.5119 19.2622C38.0095 17.3981 37.2204 15.359 36.5956 14.3103C35.3858 12.2799 32.9372 10.5273 31.7281 10.8264C31.0251 11.0003 30.8905 11.589 31.0075 13.9798C31.1033 15.9376 31.0859 16.2058 30.8251 16.7843C29.9784 18.6622 28.6988 18.9494 28.6988 17.2616C28.6988 16.9596 28.9993 15.806 29.3667 14.6981C30.5077 11.2575 30.5937 8.77911 29.6409 6.78767C29.1506 5.7632 27.9422 4.56843 26.8798 4.05811C25.1262 3.21571 22.342 2.83643 19.745 3.086ZM18.469 7.46918C18.3911 7.53492 17.7229 7.80743 16.9842 8.07495C8.88652 11.0067 4.22502 15.7288 4.22502 20.9996C4.22502 21.5808 4.16473 22.0565 4.09116 22.0565C3.90865 22.0565 3.62809 20.393 3.62809 19.3104C3.62809 17.3572 4.57392 15.0033 6.08338 13.1998C8.26229 10.5964 12.6041 8.2404 16.3127 7.6489C16.9282 7.55066 17.5326 7.45094 17.6557 7.42712C18.1458 7.33241 18.6032 7.35609 18.469 7.46918ZM36.1771 39.8948C36.3519 40.3323 36.6948 40.8328 36.9775 41.0628C37.7682 41.7062 38.9284 43.6399 40.7949 47.4255C42.7828 51.457 42.9434 51.8716 42.8076 52.6201C42.661 53.4279 42.6675 53.9707 42.8255 54.1265C43.0302 54.3282 49.8502 56.5937 50.5865 56.7044C51.2019 56.797 51.2127 56.791 51.5398 56.1589C52.1776 54.9269 53.22 51.4473 54.1407 47.4762C54.6535 45.2649 54.623 44.9833 53.8441 44.7355C53.5158 44.6311 50.4603 43.6506 47.0541 42.5566C43.6479 41.4625 39.8202 40.2723 38.548 39.9117C37.2758 39.5509 36.1531 39.2274 36.0531 39.1925C35.9352 39.1514 35.9788 39.3981 36.1771 39.8948ZM29.2685 45.0442C25.631 46.8487 21.0601 49.045 19.1107 49.9249C17.1615 50.8048 15.5665 51.5866 15.5665 51.6625C15.5665 52.1066 16.7535 55.1867 17.5043 56.6907C18.5205 58.7266 20.6815 62.0587 20.9857 62.0587C21.0992 62.0587 22.3165 61.5272 23.6905 60.8777C26.1562 59.7122 30.2069 57.9295 37.0557 54.9961C41.9094 52.917 41.9803 52.8793 41.9803 52.3752C41.9803 51.6031 40.5248 48.5254 38.2834 44.5577C36.8351 41.9937 36.6662 41.7634 36.2349 41.7634C36.0407 41.7634 32.906 43.2398 29.2685 45.0442ZM36.482 44.9724C36.8109 45.3013 38.1374 47.6867 38.6208 48.8187C39.5129 50.9072 39.4135 51.8446 38.2379 52.4317C37.2344 52.9327 36.5404 52.9107 36.0196 52.3612C35.107 51.3985 33.0867 46.7965 33.2666 46.0901C33.3846 45.6269 34.08 44.9783 34.7048 44.7489C35.2971 44.5315 36.1479 44.6384 36.482 44.9724ZM34.7002 45.7356C34.4307 45.8976 34.1745 46.122 34.1306 46.2346C33.962 46.6677 36.2361 51.6362 36.7197 51.8913C37.0242 52.0519 38.0664 51.7518 38.2771 51.4428C38.5953 50.9764 38.0327 49.2949 36.8332 47.1259C35.8273 45.3076 35.6284 45.1779 34.7002 45.7356ZM39.8164 54.0744C38.9136 54.5191 36.1267 55.9464 33.6234 57.2462C31.12 58.5461 27.4793 60.38 25.5329 61.3217L21.9939 63.0339L22.5077 63.7857C23.2046 64.8056 23.5267 65 24.5193 65C27.3453 65 36.0034 61.0855 39.9701 58.0143C41.1986 57.0632 42.1135 55.9783 42.1574 55.4207C42.1856 55.0618 41.7076 53.4136 41.5479 53.3191C41.4984 53.2898 40.7193 53.6297 39.8164 54.0744ZM43.0249 55.3826C43.0249 56.0595 42.4472 57.0179 41.5803 57.7795C40.6372 58.6077 40.5312 58.512 42.8756 58.9501C45.3312 59.4088 45.4988 59.4285 46.9863 59.4315C48.7996 59.4351 49.4188 59.1367 49.9671 57.9948C50.1706 57.5706 50.3372 57.1347 50.3372 57.0259C50.3372 56.8923 49.3052 56.5576 47.166 55.9973C42.7995 54.8534 43.0249 54.8868 43.0249 55.3826Z" fill="#FAED19"/>
</svg>
