<svg width="24" height="15" viewBox="0 0 24 15" fill="none" xmlns="http://www.w3.org/2000/svg">
<path d="M19.9157 8.07976C19.5277 7.58976 19.6387 7.37176 19.9157 6.93376C19.9207 6.92876 23.1238 2.50276 23.4538 1.00176L23.4558 1.00076C23.6198 0.453758 23.4558 0.0517578 22.6628 0.0517578H20.0387C19.3707 0.0517578 19.0627 0.396758 18.8977 0.782758C18.8977 0.782758 17.5616 3.98076 15.6715 6.05376C15.0615 6.65276 14.7795 6.84476 14.4465 6.84476C14.2825 6.84476 14.0275 6.65276 14.0275 6.10576V1.00076C14.0275 0.344758 13.8405 0.0517578 13.2875 0.0517578H9.16132C8.7423 0.0517578 8.49329 0.357758 8.49329 0.642758C8.49329 1.26476 9.43833 1.40776 9.53633 3.15776V6.95476C9.53633 7.78676 9.38533 7.93976 9.05031 7.93976C8.15828 7.93976 5.99321 4.72876 4.71016 1.05376C4.45115 0.340758 4.19815 0.0527577 3.52512 0.0527577H0.900031C0.151005 0.0527577 0 0.397758 0 0.783758C0 1.46576 0.892031 4.85676 4.14814 9.33676C6.31822 12.3948 9.37433 14.0518 12.1544 14.0518C13.8255 14.0518 14.0295 13.6838 14.0295 13.0508C14.0295 10.1288 13.8785 9.85276 14.7155 9.85276C15.1035 9.85276 15.7715 10.0448 17.3316 11.5198C19.1147 13.2688 19.4077 14.0518 20.4057 14.0518H23.0298C23.7778 14.0518 24.1568 13.6838 23.9388 12.9578C23.4398 11.4308 20.0677 8.28976 19.9157 8.07976Z" fill="#FAED19"/>
</svg>
