<svg width="24" height="25" viewBox="0 0 24 25" fill="none" xmlns="http://www.w3.org/2000/svg">
<g clip-path="url(#clip0_99_194)">
<path d="M7.25301 18.5448L7.97701 18.9678C9.19795 19.6799 10.5866 20.0537 12 20.0508C13.5823 20.0508 15.129 19.5816 16.4446 18.7025C17.7602 17.8235 18.7855 16.5741 19.3911 15.1122C19.9966 13.6504 20.155 12.0419 19.8463 10.4901C19.5376 8.93821 18.7757 7.51275 17.6569 6.39393C16.538 5.27511 15.1126 4.51318 13.5607 4.2045C12.0089 3.89582 10.4004 4.05424 8.93855 4.65975C7.47674 5.26525 6.22731 6.29063 5.34826 7.60622C4.46921 8.92181 4.00001 10.4685 4.00001 12.0508C4.00001 13.4868 4.37701 14.8638 5.08401 16.0748L5.50601 16.7988L4.85301 19.1998L7.25301 18.5448ZM2.00401 22.0508L3.35601 17.0828C2.46515 15.5556 1.99711 13.8188 2.00001 12.0508C2.00001 6.52778 6.47701 2.05078 12 2.05078C17.523 2.05078 22 6.52778 22 12.0508C22 17.5738 17.523 22.0508 12 22.0508C10.2328 22.0536 8.49667 21.586 6.97001 20.6958L2.00401 22.0508ZM8.39101 7.35878C8.52501 7.34878 8.66001 7.34878 8.79401 7.35478C8.84801 7.35878 8.90201 7.36478 8.95601 7.37078C9.11501 7.38878 9.29001 7.48578 9.34901 7.61978C9.64701 8.29578 9.93701 8.97678 10.217 9.65978C10.279 9.81178 10.242 10.0068 10.124 10.1968C10.0429 10.3253 9.95507 10.4494 9.86101 10.5688C9.74801 10.7138 9.50501 10.9798 9.50501 10.9798C9.50501 10.9798 9.40601 11.0978 9.44401 11.2448C9.45801 11.3008 9.50401 11.3818 9.54601 11.4498L9.60501 11.5448C9.86101 11.9718 10.205 12.4048 10.625 12.8128C10.745 12.9288 10.862 13.0478 10.988 13.1588C11.456 13.5718 11.986 13.9088 12.558 14.1588L12.563 14.1608C12.648 14.1978 12.691 14.2178 12.815 14.2708C12.877 14.2968 12.941 14.3198 13.006 14.3368C13.0732 14.3539 13.1439 14.3507 13.2093 14.3275C13.2746 14.3044 13.3316 14.2624 13.373 14.2068C14.097 13.3298 14.163 13.2728 14.169 13.2728V13.2748C14.2193 13.2279 14.2791 13.1923 14.3443 13.1704C14.4095 13.1485 14.4786 13.1408 14.547 13.1478C14.607 13.1518 14.668 13.1628 14.724 13.1878C15.255 13.4308 16.124 13.8098 16.124 13.8098L16.706 14.0708C16.804 14.1178 16.893 14.2288 16.896 14.3358C16.9 14.4028 16.906 14.5108 16.883 14.7088C16.851 14.9678 16.773 15.2788 16.695 15.4418C16.6416 15.553 16.5707 15.655 16.485 15.7438C16.3841 15.8497 16.2736 15.9461 16.155 16.0318C16.114 16.0626 16.0723 16.0926 16.03 16.1218C15.9056 16.2007 15.7778 16.2741 15.647 16.3418C15.3895 16.4785 15.1052 16.5571 14.814 16.5718C14.629 16.5818 14.444 16.5958 14.258 16.5858C14.25 16.5858 13.69 16.4988 13.69 16.4988C12.2683 16.1248 10.9534 15.4242 9.85001 14.4528C9.62401 14.2538 9.41501 14.0398 9.20101 13.8268C8.31101 12.9418 7.63901 11.9868 7.23101 11.0848C7.02218 10.6421 6.90938 10.1602 6.90001 9.67078C6.89589 9.06363 7.09436 8.47245 7.46401 7.99078C7.53701 7.89678 7.60601 7.79878 7.72501 7.68578C7.85201 7.56578 7.93201 7.50178 8.01901 7.45778C8.13469 7.39981 8.26088 7.3658 8.39001 7.35778L8.39101 7.35878Z" fill="#FAED19"/>
</g>
<defs>
<clipPath id="clip0_99_194">
<rect width="24" height="24" fill="white" transform="translate(0 0.0507812)"/>
</clipPath>
</defs>
</svg>
